<svg xmlns="http://www.w3.org/2000/svg" width="17.496" height="17.5" viewBox="0 0 17.496 17.5">
  <g id="Group_267" data-name="Group 267" transform="translate(4)">
    <path id="Path_997" data-name="Path 997" d="M-836.08,892.4h-13.6a.4.4,0,0,0-.077-.031,2.246,2.246,0,0,1-1.87-2.235q0-5.818,0-11.637a2.2,2.2,0,0,1,1.693-2.15,6.889,6.889,0,0,1,1.221-.077c.3-.011.6,0,.914,0,0-.251,0-.484,0-.716,0-.411.2-.653.55-.651s.543.247.543.66q0,.347,0,.7h7.655c0-.165,0-.318,0-.472a2.948,2.948,0,0,1,.012-.46.542.542,0,0,1,.6-.422.543.543,0,0,1,.483.529c0,.276,0,.553,0,.837.549,0,1.072,0,1.6,0a2.251,2.251,0,0,1,2.162,1.687c.022.087.046.174.07.261v12.236a.407.407,0,0,0-.032.077,2.216,2.216,0,0,1-1.336,1.69A4.846,4.846,0,0,1-836.08,892.4Zm.854-11.472h-15.309v.146q0,4.5,0,9a1.172,1.172,0,0,0,1.24,1.228q6.414,0,12.828,0a1.492,1.492,0,0,0,.4-.055,1.16,1.16,0,0,0,.837-1.189q0-4.485,0-8.97Zm-15.284-1.117h15.28c0-.461.021-.911-.005-1.359a1.1,1.1,0,0,0-.979-1.062,9.107,9.107,0,0,0-1.056-.028c-.226,0-.451,0-.69,0,0,.19,0,.36,0,.53a.54.54,0,0,1-.552.564.542.542,0,0,1-.54-.56c0-.174,0-.349,0-.522h-7.655c0,.182,0,.353,0,.523a.539.539,0,0,1-.541.559.541.541,0,0,1-.552-.565c0-.174,0-.348,0-.529h-.161c-.484,0-.968-.012-1.452.005a1.1,1.1,0,0,0-1.086.969C-850.549,878.819-850.51,879.311-850.51,879.811Z" transform="translate(847.628 -874.9)" fill="#f75a25"/>
  </g>
</svg>
