<svg xmlns="http://www.w3.org/2000/svg" width="28.652" height="19.748" viewBox="0 0 28.652 19.748">
  <g id="Group_672" data-name="Group 672" transform="translate(-775.084 -741.658)">
    <path id="Path_1000" data-name="Path 1000" d="M-228.241-226.456a1.708,1.708,0,0,1-.222-.1q-4.61-2.918-9.217-5.839c-.062-.039-.122-.083-.217-.147l9.656-6.367Z" transform="translate(1031.977 984.214)" fill="#fff"/>
    <path id="Path_1001" data-name="Path 1001" d="M-493.722-290.914q6.2,0,12.4,0a1.8,1.8,0,0,1,1.812,1.262.306.306,0,0,1-.147.408q-6.93,4.562-13.849,9.141a.353.353,0,0,1-.464-.011q-6.744-4.463-13.5-8.914l-.164-.108c-.435-.287-.444-.3-.214-.766a1.707,1.707,0,0,1,1.445-1c.13-.013.261-.009.392-.009Z" transform="translate(1283.134 1032.572)" fill="#fff"/>
    <path id="Path_1002" data-name="Path 1002" d="M-493.425-123.293q-6.2,0-12.4,0a1.785,1.785,0,0,1-1.79-1.216.321.321,0,0,1,.153-.451q5.41-3.41,10.8-6.846a.341.341,0,0,1,.441.012c.719.486,1.45.953,2.168,1.441a1.026,1.026,0,0,0,1.269,0c.734-.5,1.48-.976,2.215-1.471a.287.287,0,0,1,.37,0q5.433,3.452,10.875,6.892a.269.269,0,0,1,.13.362,1.773,1.773,0,0,1-1.55,1.267c-.13.01-.261.009-.392.009Z" transform="translate(1282.816 884.698)" fill="#fff"/>
    <path id="Path_1003" data-name="Path 1003" d="M-508.79-238.841l9.648,6.369-9.648,6.113Z" transform="translate(1283.874 984.15)" fill="#fff"/>
  </g>
</svg>
