<svg xmlns="http://www.w3.org/2000/svg" width="22.176" height="22.167" viewBox="0 0 22.176 22.167">
  <g id="Group_976" data-name="Group 976" transform="translate(693.435 -538)">
    <path id="Path_2105" data-name="Path 2105" d="M-671.259,550.079c-.024.073-.051.146-.072.22a2.027,2.027,0,0,1-1.932,1.515c-.5.012-.492.013-.678.477-.1.254-.208.507-.33.751a.207.207,0,0,0,.049.294,2.194,2.194,0,0,1,.763,1.249,1.96,1.96,0,0,1-.477,1.748c-.349.384-.718.751-1.1,1.106a2.026,2.026,0,0,1-2.85-.028c-.336-.32-.335-.318-.761-.129q-.3.131-.6.244c-.363.136-.37.133-.365.516a2.045,2.045,0,0,1-.318,1.172,1.8,1.8,0,0,1-1.381.905,11.171,11.171,0,0,1-2.091-.006,1.959,1.959,0,0,1-1.677-1.939c0-.171.041-.38-.041-.5s-.292-.129-.445-.191a4.223,4.223,0,0,1-.613-.267.358.358,0,0,0-.54.1,1.926,1.926,0,0,1-1.141.654,1.945,1.945,0,0,1-1.73-.47c-.406-.368-.8-.756-1.164-1.161a2.007,2.007,0,0,1,.009-2.718,4.261,4.261,0,0,1,.395-.347c-.2-.493-.363-.929-.545-1.359-.021-.049-.117-.084-.184-.094a6.279,6.279,0,0,1-1-.135,1.961,1.961,0,0,1-1.351-1.849,13.154,13.154,0,0,1,.041-1.792,1.976,1.976,0,0,1,1.929-1.691c.173,0,.387.051.506-.031s.136-.3.2-.462c.107-.252.211-.506.334-.75a.2.2,0,0,0-.051-.276,2.217,2.217,0,0,1-.767-1.247,1.963,1.963,0,0,1,.485-1.766c.356-.387.729-.761,1.115-1.118a1.979,1.979,0,0,1,2.775.025c.295.295.513.361.865.14a3.564,3.564,0,0,1,.761-.3.188.188,0,0,0,.153-.216,3.47,3.47,0,0,1,.023-.626,2.026,2.026,0,0,1,1.594-1.681.945.945,0,0,0,.117-.043h1.992a.329.329,0,0,0,.074.037,2.017,2.017,0,0,1,1.637,1.686,3.384,3.384,0,0,1,.024.625.189.189,0,0,0,.153.215c.265.091.525.2.785.3.153.062.312.2.448.183s.245-.2.365-.316a2.024,2.024,0,0,1,2.817-.019c.38.354.748.721,1.1,1.1a1.96,1.96,0,0,1,.487,1.765,2.093,2.093,0,0,1-.639,1.128c-.248.242-.241.243-.1.549q.165.364.307.737c.134.35.13.351.5.353a2.035,2.035,0,0,1,1.979,1.271c.061.151.1.31.153.466Zm-11.1,8.789c.231,0,.462,0,.693,0a.733.733,0,0,0,.754-.751c.005-.3,0-.592,0-.887a.653.653,0,0,1,.525-.7,8.27,8.27,0,0,0,1.912-.792.639.639,0,0,1,.864.113c.212.206.416.421.629.626a.731.731,0,0,0,1.081,0q.473-.461.934-.933a.734.734,0,0,0,.011-1.1c-.2-.209-.409-.408-.61-.614a.643.643,0,0,1-.122-.88,8.3,8.3,0,0,0,.786-1.891.659.659,0,0,1,.707-.541c.3,0,.592,0,.888,0a.729.729,0,0,0,.744-.738q.011-.693,0-1.385a.727.727,0,0,0-.74-.742c-.3-.006-.606,0-.909,0a.652.652,0,0,1-.684-.515,8.293,8.293,0,0,0-.8-1.931.633.633,0,0,1,.113-.846c.211-.218.432-.425.64-.646a.728.728,0,0,0-.006-1.065q-.468-.481-.949-.949a.732.732,0,0,0-1.1,0c-.207.2-.407.41-.614.611a.64.64,0,0,1-.863.118,8.228,8.228,0,0,0-1.911-.793.654.654,0,0,1-.529-.695c0-.3,0-.592,0-.888a.73.73,0,0,0-.749-.755q-.682-.009-1.364,0a.73.73,0,0,0-.753.751c-.005.3,0,.592,0,.887a.655.655,0,0,1-.526.7,8.3,8.3,0,0,0-1.911.792.64.64,0,0,1-.864-.114c-.217-.211-.425-.432-.646-.64a.724.724,0,0,0-1.048,0q-.49.474-.965.964a.729.729,0,0,0,0,1.08c.205.213.42.417.626.629a.635.635,0,0,1,.118.846,8.275,8.275,0,0,0-.8,1.931.649.649,0,0,1-.68.519c-.3.005-.592,0-.888,0a.731.731,0,0,0-.767.759q-.007.671,0,1.342a.732.732,0,0,0,.761.765c.3,0,.592,0,.888,0a.65.65,0,0,1,.685.514,8.269,8.269,0,0,0,.8,1.931.635.635,0,0,1-.111.847c-.205.213-.42.417-.626.629a.732.732,0,0,0,0,1.1q.462.471.934.934a.734.734,0,0,0,1.1,0c.208-.2.407-.409.614-.611a.64.64,0,0,1,.863-.12,8.379,8.379,0,0,0,1.911.793.656.656,0,0,1,.531.694c0,.267,0,.534,0,.8a.75.75,0,0,0,.836.844Z" fill="#f75a25"/>
    <path id="Path_2106" data-name="Path 2106" d="M-580.186,646.31a4.815,4.815,0,0,1,4.815,4.818,4.818,4.818,0,0,1-4.835,4.821,4.818,4.818,0,0,1-4.8-4.829A4.816,4.816,0,0,1-580.186,646.31Zm3.516,4.839a3.515,3.515,0,0,0-3.5-3.54,3.516,3.516,0,0,0-3.54,3.5,3.517,3.517,0,0,0,3.5,3.541A3.517,3.517,0,0,0-576.67,651.149Z" transform="translate(-102.154 -102.046)" fill="#f75a25"/>
  </g>
</svg>
