<svg xmlns="http://www.w3.org/2000/svg" width="21.716" height="21.754" viewBox="0 0 21.716 21.754">
  <path id="Path_1698" data-name="Path 1698" d="M-640.1,269.466c-.53-.114-1.068-.2-1.589-.348a13.194,13.194,0,0,1-3.04-1.339,28.423,28.423,0,0,1-7.139-6,23.307,23.307,0,0,1-3.424-5.019,10.957,10.957,0,0,1-1.146-3.556,3.778,3.778,0,0,1,.319-2.3,2.858,2.858,0,0,1,.461-.63c.631-.651,1.285-1.279,1.918-1.927a2.164,2.164,0,0,1,3.073,0c.989.963,1.962,1.944,2.931,2.928a2.032,2.032,0,0,1,.013,2.957,2.074,2.074,0,0,1-.645.394,2.213,2.213,0,0,0-1.317,1.186,1.813,1.813,0,0,0-.083,1.223,7.386,7.386,0,0,0,1.793,3.042,9.667,9.667,0,0,0,2.919,2.263,2.776,2.776,0,0,0,1.585.382,1.956,1.956,0,0,0,1.68-1.22,2.281,2.281,0,0,1,.854-1.155,2.033,2.033,0,0,1,2.556.285q1.53,1.489,3.02,3.019a2.153,2.153,0,0,1-.042,3.009c-.65.662-1.312,1.312-1.967,1.969a2.816,2.816,0,0,1-1.677.789,1.408,1.408,0,0,0-.16.04Z" transform="translate(656.487 -247.712)" fill="#fff"/>
</svg>
