<svg id="Group_212" data-name="Group 212" xmlns="http://www.w3.org/2000/svg" width="22.124" height="20" viewBox="0 0 22.124 20">
  <path id="Path_906" data-name="Path 906" d="M-735.908,1591.678h-19.617a5.557,5.557,0,0,1-.6-.25,1.466,1.466,0,0,1-.654-.883v-14.334c.009-.01.023-.018.027-.029a1.507,1.507,0,0,1,1.648-1.1h4.179c0-.108,0-.192,0-.276,0-.625-.017-1.25.017-1.874a1.408,1.408,0,0,1,1.455-1.245q3.737-.011,7.473,0a1.406,1.406,0,0,1,1.452,1.248c.033.623.014,1.249.017,1.874,0,.083,0,.167,0,.272h4.226a2.289,2.289,0,0,1,.344.017,1.407,1.407,0,0,1,1.284,1.42q0,5.067,0,10.133c0,1.217,0,2.434,0,3.651a1.393,1.393,0,0,1-1.115,1.331C-735.818,1591.644-735.863,1591.662-735.908,1591.678Zm-19.567-10c0,.063-.006.095-.006.127q0,4.208,0,8.416c0,.238.062.283.367.283h18.792c.326,0,.371-.041.371-.339q0-4.139,0-8.279c0-.062-.006-.123-.01-.185a.293.293,0,0,0-.058,0q-3.775,1.334-7.548,2.673a.223.223,0,0,0-.116.17c-.011.345,0,.69-.007,1.035a1.018,1.018,0,0,1-1.077.984q-.95.013-1.9,0a1.018,1.018,0,0,1-1.075-.986c-.005-.325-.012-.651,0-.976.007-.151-.056-.214-.2-.265q-2.553-.9-5.1-1.8Zm11.806,1.462c.074-.023.143-.041.209-.064q3.664-1.3,7.33-2.591c.134-.047.185-.1.184-.235-.007-1.23,0-2.461,0-3.691,0-.266-.052-.311-.358-.311h-18.816c-.309,0-.356.044-.356.332,0,1.217,0,2.435,0,3.652a.225.225,0,0,0,.186.252q2.915,1.022,5.824,2.057l1.718.608c.007-.07.011-.121.018-.172a.987.987,0,0,1,.945-.874c.718-.027,1.44-.024,2.158,0a.979.979,0,0,1,.909.723C-743.7,1582.929-743.689,1583.031-743.669,1583.142Zm1.859-8.071c0-.686,0-1.355,0-2.024,0-.158-.13-.2-.286-.2q-3.617,0-7.235,0c-.2,0-.294.074-.293.255,0,.625,0,1.249,0,1.874a.469.469,0,0,0,.02.093Zm-3.183,10.318v-2.117h-1.442v2.117Z" transform="translate(756.778 -1571.678)" fill="#f75a25"/>
</svg>
