<svg xmlns="http://www.w3.org/2000/svg" width="30.181" height="30.187" viewBox="0 0 30.181 30.187">
  <g id="instagram_1_" data-name="instagram (1)" transform="translate(0 0)">
    <path id="Path_894" data-name="Path 894" d="M30.554,8.875a11.031,11.031,0,0,0-.7-3.662A7.733,7.733,0,0,0,25.435.8a11.059,11.059,0,0,0-3.662-.7C20.157.018,19.644,0,15.546,0S10.934.018,9.324.088a11.034,11.034,0,0,0-3.662.7A7.366,7.366,0,0,0,2.985,2.536a7.432,7.432,0,0,0-1.74,2.671,11.06,11.06,0,0,0-.7,3.662C.467,10.485.449,11,.449,15.1s.018,4.611.088,6.221a11.03,11.03,0,0,0,.7,3.662A7.732,7.732,0,0,0,5.656,29.4a11.06,11.06,0,0,0,3.662.7c1.61.071,2.123.088,6.221.088s4.611-.018,6.221-.088a11.028,11.028,0,0,0,3.662-.7A7.721,7.721,0,0,0,29.84,24.98a11.068,11.068,0,0,0,.7-3.662c.071-1.61.088-2.123.088-6.221S30.625,10.485,30.554,8.875ZM27.835,21.2a8.274,8.274,0,0,1-.519,2.8,5.008,5.008,0,0,1-2.866,2.866,8.3,8.3,0,0,1-2.8.519c-1.592.071-2.07.088-6.1.088s-4.511-.018-6.1-.088a8.27,8.27,0,0,1-2.8-.519,4.645,4.645,0,0,1-1.734-1.126,4.693,4.693,0,0,1-1.126-1.734,8.3,8.3,0,0,1-.519-2.8c-.071-1.592-.088-2.07-.088-6.1s.018-4.511.088-6.1a8.27,8.27,0,0,1,.519-2.8A4.588,4.588,0,0,1,4.925,4.476,4.686,4.686,0,0,1,6.659,3.35a8.309,8.309,0,0,1,2.8-.519c1.592-.071,2.07-.088,6.1-.088s4.511.018,6.1.088a8.274,8.274,0,0,1,2.8.519A4.642,4.642,0,0,1,26.19,4.476,4.692,4.692,0,0,1,27.316,6.21a8.308,8.308,0,0,1,.519,2.8c.071,1.592.088,2.07.088,6.1S27.906,19.608,27.835,21.2Zm0,0" transform="translate(-0.449 0)" fill="#fff"/>
    <path id="Path_895" data-name="Path 895" d="M132.7,124.5a7.755,7.755,0,1,0,7.755,7.755A7.757,7.757,0,0,0,132.7,124.5Zm0,12.785a5.03,5.03,0,1,1,5.03-5.03A5.031,5.031,0,0,1,132.7,137.285Zm0,0" transform="translate(-117.607 -117.158)" fill="#fff"/>
    <path id="Path_896" data-name="Path 896" d="M366.07,90.412a1.81,1.81,0,1,1-1.811-1.81A1.811,1.811,0,0,1,366.07,90.412Zm0,0" transform="translate(-341.102 -83.377)" fill="#fff"/>
  </g>
</svg>
