<svg id="instagram_1_" data-name="instagram (1)" xmlns="http://www.w3.org/2000/svg" width="26.336" height="26.341" viewBox="0 0 26.336 26.341">
  <path id="Path_894" data-name="Path 894" d="M26.718,7.744a9.625,9.625,0,0,0-.612-3.2A6.748,6.748,0,0,0,22.252.695a9.65,9.65,0,0,0-3.2-.612C17.646.015,17.2,0,13.622,0S9.6.015,8.194.077A9.628,9.628,0,0,0,5,.689,6.427,6.427,0,0,0,2.662,2.213,6.485,6.485,0,0,0,1.144,4.544a9.651,9.651,0,0,0-.612,3.2C.465,9.149.449,9.6.449,13.173S.465,17.2.526,18.6a9.624,9.624,0,0,0,.612,3.2,6.747,6.747,0,0,0,3.854,3.854,9.651,9.651,0,0,0,3.2.612c1.4.062,1.852.077,5.429.077s4.024-.015,5.429-.077a9.623,9.623,0,0,0,3.2-.612A6.738,6.738,0,0,0,26.1,21.8a9.657,9.657,0,0,0,.612-3.2c.062-1.4.077-1.852.077-5.429S26.78,9.149,26.718,7.744ZM24.346,18.5a7.22,7.22,0,0,1-.453,2.444,4.37,4.37,0,0,1-2.5,2.5,7.245,7.245,0,0,1-2.444.453c-1.389.062-1.806.077-5.321.077s-3.937-.015-5.321-.077a7.216,7.216,0,0,1-2.444-.453,4.053,4.053,0,0,1-1.513-.983,4.1,4.1,0,0,1-.983-1.513A7.247,7.247,0,0,1,2.914,18.5c-.062-1.389-.077-1.806-.077-5.321s.015-3.937.077-5.321a7.216,7.216,0,0,1,.453-2.444,4,4,0,0,1,.988-1.513,4.089,4.089,0,0,1,1.513-.983A7.25,7.25,0,0,1,8.312,2.47c1.389-.062,1.806-.077,5.321-.077s3.937.015,5.321.077a7.22,7.22,0,0,1,2.444.453,4.05,4.05,0,0,1,1.513.983,4.094,4.094,0,0,1,.983,1.513,7.249,7.249,0,0,1,.453,2.444c.062,1.389.077,1.806.077,5.321S24.408,17.11,24.346,18.5Zm0,0" transform="translate(-0.449 0)" fill="#8f5745"/>
  <path id="Path_895" data-name="Path 895" d="M131.716,124.5a6.767,6.767,0,1,0,6.767,6.767A6.768,6.768,0,0,0,131.716,124.5Zm0,11.156a4.389,4.389,0,1,1,4.389-4.389A4.39,4.39,0,0,1,131.716,135.656Zm0,0" transform="translate(-118.543 -118.094)" fill="#8f5745"/>
  <path id="Path_896" data-name="Path 896" d="M365.609,90.181a1.58,1.58,0,1,1-1.58-1.58A1.58,1.58,0,0,1,365.609,90.181Zm0,0" transform="translate(-343.822 -84.042)" fill="#8f5745"/>
</svg>
