<svg xmlns="http://www.w3.org/2000/svg" width="27.308" height="27.308" viewBox="0 0 27.308 27.308">
  <g id="linkedin" transform="translate(0 0)">
    <path id="Path_897" data-name="Path 897" d="M26.131,26.264h.007V16.248c0-4.9-1.055-8.674-6.783-8.674A5.946,5.946,0,0,0,14,10.518h-.08V8.031H8.489V26.263h5.655V17.235c0-2.377.451-4.675,3.394-4.675,2.9,0,2.944,2.713,2.944,4.828v8.876Z" transform="translate(1.17 1.044)" fill="#fff"/>
    <path id="Path_898" data-name="Path 898" d="M.4,7.977H6.058V26.209H.4Z" transform="translate(0.055 1.1)" fill="#fff"/>
    <path id="Path_899" data-name="Path 899" d="M3.279,0A3.295,3.295,0,1,0,6.559,3.279,3.28,3.28,0,0,0,3.279,0Z" transform="translate(0 0)" fill="#fff"/>
  </g>
</svg>
