<svg xmlns="http://www.w3.org/2000/svg" width="23.829" height="23.829" viewBox="0 0 23.829 23.829">
  <g id="linkedin" transform="translate(0)">
    <path id="Path_897" data-name="Path 897" d="M23.884,23.883h.006V15.143c0-4.275-.92-7.569-5.919-7.569A5.189,5.189,0,0,0,13.3,10.143h-.069V7.973H8.489V23.882h4.935V16c0-2.074.393-4.08,2.962-4.08,2.531,0,2.569,2.367,2.569,4.213v7.745Z" transform="translate(-0.06 -0.054)" fill="#8f5745"/>
    <path id="Path_898" data-name="Path 898" d="M.4,7.977H5.337V23.886H.4Z" transform="translate(-0.003 -0.057)" fill="#8f5745"/>
    <path id="Path_899" data-name="Path 899" d="M2.861,0A2.875,2.875,0,1,0,5.723,2.861,2.862,2.862,0,0,0,2.861,0Z" transform="translate(0 0)" fill="#8f5745"/>
  </g>
</svg>
