<?xml version="1.0" encoding="utf-8"?>
<!-- Generator: Adobe Illustrator 24.3.0, SVG Export Plug-In . SVG Version: 6.00 Build 0)  -->
<svg version="1.1" id="Layer_1" xmlns="http://www.w3.org/2000/svg" xmlns:xlink="http://www.w3.org/1999/xlink" x="0px" y="0px"
	 viewBox="0 0 870.4 400.2" style="enable-background:new 0 0 870.4 400.2;" xml:space="preserve">
<style type="text/css">
	.st0{fill:#FFFFFF;}
	.st1{fill:#6E4335;}
	.st2{fill:none;stroke:#6E4335;stroke-width:0.6611;stroke-miterlimit:10;}
	.st3{stroke:#ED5C2A;stroke-width:1.1849;stroke-miterlimit:10;}
	.st4{fill:#ED5C2A;stroke:#FFFFFF;stroke-width:0.5509;stroke-miterlimit:10;}
	.st5{fill:#ED5C2A;}
	.st6{fill:#F75A25;}
	.st7{fill:#F75A25;stroke:#E84E1B;stroke-width:1.1804;stroke-miterlimit:10;}
	.st8{fill:#E84E1B;}
	.st9{fill:none;stroke:#F75A25;stroke-width:1.0974;stroke-miterlimit:10;}
	.st10{fill:#F75A25;stroke:#E84E1B;stroke-width:0.6005;stroke-miterlimit:10;}
	.st11{fill:none;stroke:#F75A25;stroke-width:1.2344;stroke-miterlimit:10;}
	.st12{fill:none;stroke:#F75A25;stroke-width:0.8533;stroke-miterlimit:10;}
	.st13{clip-path:url(#SVGID_1_);}
	.st14{fill:#F75A25;stroke:#E84E1B;stroke-width:0.5346;stroke-miterlimit:10;}
	.st15{fill:#ED5C2A;stroke:#FFFFFF;stroke-width:0.6647;stroke-miterlimit:10;}
	.st16{fill:#6E4335;stroke:#6E4335;stroke-width:0.5655;stroke-miterlimit:10;}
	.st17{display:none;fill:none;stroke:#ED1C24;stroke-width:0.5;stroke-miterlimit:10;}
	.st18{display:none;fill:none;stroke:#ED1C24;stroke-width:0.5187;stroke-miterlimit:10;}
	.st19{fill:none;stroke:#6E4335;stroke-width:0.6494;stroke-miterlimit:10;}
	.st20{opacity:0.98;}
	.st21{fill:#F75A25;stroke:#E84E1B;stroke-width:0.5897;stroke-miterlimit:10;}
	.st22{fill:none;stroke:#ED5C2A;stroke-width:3.9739;stroke-miterlimit:10;}
	.st23{fill:#FAAA78;}
	.st24{fill:#FFEEDB;}
	.st25{fill:none;stroke:#F75A25;stroke-miterlimit:10;}
	.st26{fill:none;stroke:#F75A25;stroke-width:2;stroke-miterlimit:10;}
</style>
<g>
	<g>
		<g>
			<path class="st6" d="M148.6,198.8c-6.1-5.4-2.4-8.2-2.1-13.4c0.1-4.1,0.5-8.2-0.5-12.2c-3.3-12.4-21-14.7-28.7-3.6
				c-2.1,2.9-5.9,6.6-9.5,4.9c-2.9-1.4-2.6-4.5-1.2-7.4c3.1-6,9.2-10.3,16.4-11.6c5.6-1.1,11.4,0,16.7,1.9
				c11.9,5.2,13.5-6.6,10.8-16.1l0.4-0.1c2.8,9.8,0.9,21.9-11.4,16.6c-5.3-1.9-11-3-16.5-1.9c-7,1.2-13,5.5-16.1,11.3
				c-1.3,2.6-1.6,5.4,1,6.7c3.4,1.6,7-2.1,9-4.8c7.9-11.3,26.1-8.9,29.5,3.8c1,4.1,0.6,8.2,0.5,12.3c-0.3,5.2-3.6,8.3,2.3,13.6
				L148.6,198.8z"/>
			<path class="st6" d="M152.1,200.5l-3.8-1.1c-5-4.4-4-7.4-3.1-10.8c1-5,1.1-10.3,0.1-15.2c-3.2-11.9-20.1-13.9-27.5-3.4
				c-1.2,1.5-2.5,3.1-4.1,4.2c-3,2.1-7.3,1.7-8.5-1.8c-1.1-9,9.1-16.1,17.7-17.7c5.7-1.1,11.6,0,17.1,1.9
				c11.7,5.2,12.3-7.2,9.8-15.9l1.8-0.5c3.1,10.3,1,23.8-12.1,18.2c-5.2-1.8-10.7-2.9-16.2-1.9c-14.3,1.6-22.8,21.1-10.5,16
				c1.4-1,2.6-2.5,3.7-3.9c8.2-11.8,27.2-9.2,30.7,4.1c1,5.3,1,10.9-0.1,16.2C145.3,193.8,147.2,196.7,152.1,200.5z"/>
		</g>
		<g>
			<path class="st6" d="M145.7,207.5c-10.4-6.3-4.2-17.8,0.2-20.1l-0.2,1.1c-3.2,2.5-9.5,13.4,0.2,18.6L145.7,207.5z"/>
			<path class="st6" d="M145.9,208.3c-8.4-4.4-8.7-15.4-0.6-21.2c0.1,0,0.1-0.1,0.1-0.1l1.4-1.8c-0.1,0.2-0.6,3.7-0.9,3.7
				c-4,3.5-8.7,13.3,0.6,17.9L145.9,208.3z M145.5,187C145.5,187,145.5,187,145.5,187L145.5,187z"/>
		</g>
		<g>
			<path class="st6" d="M141.2,202.3c-1.8-2.7,1.4-5.4,4.1-4.9c3.3,0.4,4.9,2.7,7.6,3.8l-0.1,0.4c-2.8-1.1-4.3-3.4-7.5-3.8
				c-2.2-0.4-5.3,1.8-3.8,4.2L141.2,202.3z"/>
			<path class="st6" d="M141.3,203.3c-3-3,0.5-7.1,4.1-6.5c3.6,0.5,5.2,3,8.2,4.1l-0.5,1.5c-3.5-1-6.8-5.9-10.6-3.2
				c-0.7,0.6-1.3,1.9-0.4,2.8L141.3,203.3z"/>
		</g>
		<g>
			<path class="st6" d="M155.2,206.9c-1.9,0-3.3-0.8-4.1-1.6c-4.8,0.4-7.5-1.3-6.4-4.1c2-2,5.1,0.4,5.9,2.6c0.3,0.8,2,3,5.3,2.7
				l0,0.5C155.6,206.9,155.4,206.9,155.2,206.9z M146.2,200.9c-1.9,0-1.7,2.3-0.3,3.1c0.4,0.3,1.3,1,4.8,0.9
				C149.6,202.9,148.6,201,146.2,200.9z"/>
			<path class="st6" d="M155.2,207.2c-2.1,0-3.4-0.8-4.2-1.6c-5,0.4-7.8-1.6-6.5-4.6c2.1-2.2,5.5,0.2,6.4,2.6c0.2,0.8,2.3,3,5.3,2.5
				l0.1,1C155.8,207.2,155.5,207.2,155.2,207.2z M146.2,201.2c-1.6,0-1.3,2-0.2,2.6c0.4,0.3,1.1,0.9,4.1,0.8
				C149.4,202.8,148.2,201.3,146.2,201.2z"/>
		</g>
		<g>
			<path class="st6" d="M155.9,206.9C155.9,206.9,155.9,206.9,155.9,206.9l0-0.5c3.1,0,4.7-2.1,5-2.9l0.4,0.2
				C160.9,204.6,159.2,206.9,155.9,206.9z"/>
			<path class="st6" d="M155.9,207.2h-0.3l0-1c3.1,0.1,4.8-1.9,5.2-3l0.9,0.4C161.2,204.8,159.6,207.1,155.9,207.2z"/>
		</g>
		<g>
			<path class="st6" d="M146.7,187.6l-0.4-0.2c0-0.1,1.2-2.3,3.1-3.8l0.3,0.4C147.8,185.4,146.7,187.6,146.7,187.6z"/>
			<path class="st6" d="M146.8,188l-0.9-0.5c0.1-0.3,1.5-2.8,3.6-4.3l0.6,0.8C148.1,185.4,146.9,187.8,146.8,188z"/>
		</g>
		<g>
			<path class="st6" d="M155.2,229.8c-4.7,0.8-16.6-4.4-16.8-5.2l0.9-0.4c6.7,5.2,20.4,8.1,32.2-0.3l1.6,0.5
				C167.1,228.4,159.9,229.8,155.2,229.8z"/>
			<path class="st6" d="M155.2,230.7c-5.7,0.7-17.6-4.7-18.4-6.2l2.6-1.2c6.9,5.2,19,8.6,32-0.2l3.7,1.1
				C169,228.6,160.3,230.8,155.2,230.7z"/>
		</g>
		<g>
			<path class="st6" d="M128.8,263.9c-0.2,0-0.6,0-0.8-0.1c12.3-9.6-10.4-19.8-5.5-40.7c1.5-7.7,8.4-18.2,16.8-19.3l0,0.5
				c-8.2,1.1-14.9,11.4-16.4,19c-4.7,20.7,16.8,30,6.3,40.1c9.9-1.7,18.5-18.9,9.5-30.4c-6.4-9.8,0.6-20.3,6.1-23.2l0.2,0.4
				c-20.9,16,3.7,24.4-3.2,40.8C138,259.8,134.5,263.1,128.8,263.9z"/>
			<path class="st6" d="M128.8,264.9c-0.1,0-0.2,0-0.2,0l-3.1-0.2c15.6-10.5-8.7-17.3-3.9-41.7c1.7-8.4,9.3-19.8,18.7-20.2l0.2,2.4
				c-8.3,0.4-15,10.9-16.5,18.2c-4.2,19.3,14.2,28.2,8,38.1c9.1-5.5,13.2-18.2,6-28c-6.9-10.8,0.9-21.9,7.4-25l1.1,2.1
				c-1,0.7-6.3,3.3-8.4,10.3c-2.8,11,10.6,17.4,4.8,30.5C138.7,260.6,134.9,264.1,128.8,264.9z"/>
		</g>
		<g>
			<path class="st6" d="M145.4,321.7c-0.8-0.8-2.1-2.3-2.2-2.3l0.3-0.3c0.1,0.1,1.1,1.1,2.2,2.3L145.4,321.7z"/>
			<path class="st6" d="M145.4,322.1c-0.6-0.6-1.9-2.1-2.3-2.4l-0.6-0.1l1.1-0.9c0.1,0.2,1.1,1.3,2.5,2.7L145.4,322.1z"/>
		</g>
		<g>
			<path class="st6" d="M143.1,318.4c-8.3-11.4,0.2-35,7.2-47.8c7.8-11.9-0.5-30.4-5.3-36.8c5.5,6.2,13.7,24.8,5.8,37
				c-7.2,12.9-15.3,36.8-6.9,48.3L143.1,318.4z"/>
			<path class="st6" d="M143,320c-10.3-11.1-1-36.7,6.2-50c8.8-17.4-3.1-33.2-12.5-44.3l9.2,7.3c0.1,0.2,0.1,0.1,0.3,0.4
				c6.4,8.2,13.5,24.6,5.6,38.1c-6.9,12.5-15,35.7-7,46.8L143,320z"/>
		</g>
		<g>
			<path class="st6" d="M156.2,325.4c-3.7,0-7.4-1.6-10.9-4.5l0.3-0.4c6.8,5.8,14.1,5.9,19.6,0.5l0.3,0.3
				C162.9,324,159.7,325.4,156.2,325.4z"/>
			<path class="st6" d="M156.2,326.8c-4.4,0.1-9-2.3-12.8-5.7l2-2.6c6.5,6.3,14.6,6.8,19.9,0.4l2.2,2.4
				C164.5,324.7,160.5,326.9,156.2,326.8z"/>
		</g>
		<g>
			<path class="st6" d="M146.6,321.6c-8.1-4.2-26.8-28.8-9.2-43.1c10.5-8.9,14.2-16.1,15.5-20.6c1.4-5.6-0.3-6.4-0.7-9.8
				c4.3,13.4,1.4,17.8-14.5,30.7c-18.1,15,2.7,39.2,10.4,43.5L146.6,321.6z"/>
			<path class="st6" d="M147.5,323.7c-10.3-4.4-29.8-31.2-11-46.4c10.2-8.7,13.8-15.6,15-19.8c2.2-6.4-4.1-9.8,1.8-11.5l1.7,6.4l0,0
				c2.3,11.5-1.8,15.6-16.2,27.6c-17.1,14.3,3.3,37.1,10.3,41.1L147.5,323.7z"/>
		</g>
		<g>
			<path class="st6" d="M95.7,258.9c-5.1-4.1-15.3-19.9-10.5-27.7c8.2-19.3,9.9-34.3,6.9-46.2l0.4-0.2c3.1,12,1.4,27.1-6.9,46.6
				c-4.9,8.7,6.5,23.8,10.4,27.2L95.7,258.9z"/>
			<path class="st6" d="M95.8,261.6c-6.5-5.2-17.6-21.7-12.3-31.1c8.2-19.9,10.1-33.7,6.2-46.6l3.8-1.5c4.3,13.6,2.4,28.7-6.3,49.7
				c-4.4,8.9,7,22.6,11.3,26.3L95.8,261.6z"/>
		</g>
		<g>
			<path class="st6" d="M107.5,290c-14.9-8.2-14.5-19.3-12.5-28.1c1.3-4,1.8-8,0.2-11.4c-2.9-9,0.2-20.2,5.1-26.7
				c3-4,3.9-11.1,2.6-21.1l0.4-0.1c1.3,10.1,0.4,17.3-2.7,21.4c-6,7.5-7.8,20.2-4,30.1c-0.5,12.6-9.5,22.9,8.9,33
				C105.5,287.2,107.5,290,107.5,290z"/>
			<path class="st6" d="M116.6,297.8c-15.5-6.9-27.7-14-25.4-32.8c0.3-2.7,2.3-8.5,2.1-10.2c-4.1-10.6-1.8-24.6,4.6-32.7
				c2.1-1.3,3.6-12.5,1.7-21.9l6.3-0.8c1.7,10.4,1.2,21.8-2.9,26.5c-5.5,7-7,18.5-3.4,27.9c0.3,2.1-0.4,5.6-0.9,7.6
				c-3.1,9.7-2,19.1,8.9,23.6C107.5,284.9,116.6,297.8,116.6,297.8z"/>
		</g>
		<g>
			<path class="st6" d="M100.9,223c-4,17.6,13,23.4,12.6,38.2c-1.4,9.8-8.7,14.9-6.2,27l-0.4,0.1c-2.6-12.3,4.7-17.2,6.2-27.1
				c0.1-15.1-16.7-20.2-12.6-38.7"/>
			<path class="st6" d="M105.4,291c-1.9-5.4-1.2-13.9,1.4-19.3c1.7-3.4,3.9-7.1,4.1-10.8c-0.5-15.1-16.6-18.6-12.6-38.8l4.4,0.6
				c0,0.2,0,0.3-0.1,0.5l0.4,0.1c-3.9,16.3,13.6,23.3,12.7,38c-1.3,10.5-9.6,16-5.7,28.3L105.4,291z"/>
		</g>
		<g>
			<path class="st6" d="M133.6,308.4c-10.8-8.6-14.8-24.5-8.3-36.8c3.5-10.3-8.9-23.3-15.8-23.9l-1.1-1.7c7.3,2,21.2,13.9,17.4,25.8
				c-6.2,11.9-2.8,27.4,7.7,35.7L133.6,308.4z"/>
			<path class="st6" d="M136.4,313.1c-13.8-9-20.8-27.1-12.9-42.3c2.5-9.8-8.3-20.8-15.2-21.4l-4.4-6.5c9.9,2,20.7,8,24,21.9
				c1.5,5.3-1.3,8.9-2.6,13.5c-2.8,10.3,1.5,21.8,9.9,28.1L136.4,313.1z"/>
		</g>
		<g>
			<path class="st6" d="M134.1,309.1c-15.2-4-24.2-13-27.4-21.8l0.4-0.1c3.1,8.5,11,16.6,26,20.3L134.1,309.1z"/>
			<path class="st6" d="M138.4,312.4c-17.2-3.3-31.6-14.2-34.2-26.5l4.4-1.4c2.9,9.9,9.5,16.8,26,21.1L138.4,312.4z"/>
		</g>
		<g>
			<path class="st6" d="M136.8,279.2h-0.3c4.1-4.3,7.6-15.6,3.6-22.2l0.2-0.2C144.7,264.9,140.4,275.2,136.8,279.2z"/>
			<path class="st6" d="M137.5,280.7h-4.4c5.6-5.3,10-16,5.1-24l2.5-2.6C146.6,263.4,142.6,275.5,137.5,280.7z"/>
		</g>
		<g>
			<path class="st6" d="M135.2,261.1l-0.4-0.3c3.6-4.8,5.4-12.3,2-17.3c-7.9-7.5-15.4-19.6-9.7-30.4l0.4,0.2
				c-5.7,10.6,1.9,22.5,9.6,29.9C140.7,248.4,138.9,256,135.2,261.1z"/>
			<path class="st6" d="M135.3,262.5l-1.9-1.5c3.7-4.6,5.8-11.9,2.6-16.8c-8.5-7.9-16-21.1-9.3-32.3l2.1,1.2
				c-6.3,10.3,1.4,22.3,9.1,29.6C142,248.4,139.7,257.1,135.3,262.5z"/>
		</g>
		<g>
			<path class="st6" d="M139.8,234.4c-10.8-4.4-15.5-15.3-11.9-22.8l0.4,0.2c-3.6,7.2,1.2,18,11.7,22.2L139.8,234.4z"/>
			<path class="st6" d="M140.2,235.3c-11.7-4.6-17.1-16.4-12.5-24.7l1.6,0.9c-4.1,7.6,1.2,18,11.6,22.1L140.2,235.3z"/>
		</g>
		<g>
			<path class="st6" d="M138.9,233.1c-4.7-5-11.3-20.6-4.2-27.6l0.3,0.3c-7.1,6.8-0.3,22.1,4.2,27L138.9,233.1z"/>
			<path class="st6" d="M138.8,234.1c-5.5-5.9-12.3-21.9-4.2-29.6l1.4,1.3c-7.5,7-0.6,22,4.2,27.1L138.8,234.1z"/>
		</g>
		<g>
			<path class="st6" d="M123.4,217.5c-14.2-7.1-27-24-31.2-33l0.4-0.2c4.2,9,16.9,25.7,31,32.8L123.4,217.5z"/>
			<path class="st6" d="M124.3,220.4c-16.2-7.8-29.9-25.4-34.9-36.9l4.1-2.2c4.7,10.8,17.5,27.5,32.8,34.8L124.3,220.4z"/>
		</g>
		<g>
			<path class="st6" d="M137.6,224.3c13-7.4,6.1-5,19.6-3.8c0.8-0.5-3.7-0.3-4.2-0.7c-2-0.2-3.8-1.3-5.8-1.1
				c-3.4,1.3-6.4,3.6-9.7,5.3C137.3,224.1,137.5,224.4,137.6,224.3z"/>
			<path class="st6" d="M137.6,224.6c-0.4,0-0.6-0.6-0.2-0.8c0,0,5.6-3.2,5.6-3.2c5.8-4.3,8-0.4,14.3-0.7c0.5,0,0.5,0.9,0,0.9
				C143,219.4,151.2,217.1,137.6,224.6z"/>
		</g>
		<g>
			<path class="st6" d="M137.6,224.2c0.8-5.1,4.9-9.3,9.2-11.9c3.1-1.2,6.4,0.6,9.6,0.9c0.2,0,0.2-0.3,0-0.3c-3-0.3-6-1.8-9-1.1
				c-4.8,2.3-9.2,7-10,12.4C137.3,224.3,137.6,224.3,137.6,224.2L137.6,224.2z"/>
			<path class="st6" d="M137.4,224.6c-1.1-0.5,0.1-2.3,0.3-3.1c1.2-3.1,3.6-6,6.8-8.4c3.3-3.3,7.9-1.1,11.9-0.5
				c0.5,0,0.5,0.9-0.1,0.9c-3-0.3-6.5-2.1-9.4-0.9c-4.3,2.5-8.3,6.7-9.1,11.6C137.9,224.4,137.7,224.6,137.4,224.6z"/>
		</g>
		<g>
			<path class="st6" d="M105.5,183.3c-5.8,12.5,3.7,27.3,15,33.1c0.4,0.2,0.8-0.4,0.4-0.6c-10.9-5.6-20.3-19.9-14.7-32.1
				C106.5,183.3,105.8,182.9,105.5,183.3L105.5,183.3z"/>
			<path class="st6" d="M120.7,217.6c-12.3-5.2-22.4-22.1-16.1-34.8l0,0c1-1.7,3.6-0.1,2.6,1.5c-1.2,2-1.7,4.6-1.4,7.8
				C107.6,212.6,128.1,214.8,120.7,217.6z"/>
		</g>
		<g>
			<path class="st6" d="M106,170.8c-0.6-3.7-0.4-7.5,0.5-11.1c0.1-0.4-0.4-0.5-0.5-0.2C105.4,160.2,104.6,173.1,106,170.8L106,170.8
				z"/>
			<path class="st6" d="M105.7,171.9c-2.4-0.6-0.9-10.5-0.4-12.5c0.3-1.2,2.3-0.7,1.9,0.5c-0.4,1.5-0.7,3.3-0.8,5.4
				c-0.1,2.1,0,3.9,0.3,5.4C106.9,171.3,106.3,171.9,105.7,171.9z"/>
		</g>
		<g>
			<path class="st6" d="M150.3,168.4c-0.8-4.5-4.2-8.2-8.1-10.2c-0.3-0.1-0.6,0.4-0.3,0.5c3.8,1.9,7.1,5.5,7.9,9.8
				C149.9,168.9,150.4,168.7,150.3,168.4L150.3,168.4z"/>
			<path class="st6" d="M150,169c-0.3,0-0.5-0.2-0.5-0.4c-0.5-2.8-2-5.2-4.2-7.2c-0.8-1.2-4.2-2.3-3.8-3.1c0.7-1,2,0.5,2.9,0.9
				c3.4,2.4,5.7,5.8,6.2,9.2l0,0C150.7,168.7,150.4,169,150,169z M150.1,168.4C150.1,168.4,150.1,168.4,150.1,168.4l0.3,0
				L150.1,168.4z M142.1,158.4c3.3,1.5,6.4,4.9,7.6,8.3C148.6,163.5,145.5,160,142.1,158.4C142.1,158.4,142.1,158.4,142.1,158.4z"/>
		</g>
		<g>
			<path class="st6" d="M149.3,205.4c0.1,0.5,2.9,6,3.2,4.8c-1-1-2.1-3.3-2.6-4.6c-0.1-0.2,0,0.9,0,1.1L149.3,205.4z"/>
			<path class="st6" d="M152.4,210.7c-1.4-0.8-2.6-3.7-3.3-5.2l0.5-0.2l0.1,0.2c0,0,0.1-0.1,0.1-0.2l0.3,0c0.6,1.6,1.6,3.8,2.6,4.7
				C153,210.3,152.8,210.7,152.4,210.7z"/>
		</g>
		<g>
			<path class="st6" d="M147.7,234.6c1.6-2.3,4-4.6,6.9-4.5c0.4,0,0.4-0.6,0-0.6c-2.6-0.9-9.9,5.9-6.9,5L147.7,234.6z"/>
			<path class="st6" d="M147,237l-0.1-1.6c-2.9-1.3,3.6-5.9,5.5-6.4c3.4-1.3,4.5,1.4,2.3,2C151.1,230.9,148.9,234.4,147,237z"/>
		</g>
		<g>
			<path class="st6" d="M147.1,177.8c-0.7-5.3,3.7-4.6,3.2-9.4c-0.1-0.4-0.6-0.2-0.5,0.2c0.2,1.3-0.3,2.8-1.2,3.7
				C146.2,173.2,146.1,179.7,147.1,177.8L147.1,177.8z"/>
			<path class="st6" d="M146.8,178.4c-0.9-0.2-0.5-1.5-0.5-2.2c0-2.7,1.4-3.2,2.7-5.1c0.5-1,0.6-1.8,0.5-2.5
				c-0.1-0.4,0.2-0.6,0.5-0.7c1.3,0.2,0.5,2.4,0.1,3.5c-1.5,3-2.9,1.6-2.7,6.4l0,0C147.5,178.1,147.2,178.4,146.8,178.4z
				 M146.8,177.8C146.8,177.9,146.8,177.9,146.8,177.8l0.3-0.1L146.8,177.8z M147.2,174.2c-0.2,0.5-0.3,1-0.3,1.5
				C147,175.1,147.1,174.7,147.2,174.2z M149.5,171.3c-0.4,1-1.1,1.4-1.8,2.1C148.5,172.7,149.2,172.3,149.5,171.3z"/>
		</g>
		<g>
			<path class="st6" d="M162.6,198.8L162.6,198.8c4.7-4.1,2-8.6,1.8-13.4c-1.3-11.1,1.3-22.1,14.5-23.5c5.8-0.5,11.5,2.3,15.6,7.6
				c2.1,3.4,8.2,7.6,10.5,2.6c0.4-12-16.2-18.5-26.7-16.1c-5.4,0.6-11.6,5.7-16.5,1.4c-3.7-3.6-2.9-10.8-1.5-16.2l0.4,0.1
				c-2.6,9.5-1.1,21.2,10.8,16.1c5.3-1.9,11.1-3,16.7-1.9c7.2,1.3,13.3,5.6,16.4,11.6c1.4,2.8,1.6,6-1.2,7.4c-3.6,1.7-7.4-2-9.5-4.9
				c-7.7-11-25.4-8.8-28.7,3.6c-1,4-0.6,8.2-0.5,12.2C165.1,190.3,167.6,194.6,162.6,198.8z"/>
			<path class="st6" d="M162.9,199.5l-2.2,0c4.1-2.8,4.5-6.3,3.6-10.4c-0.7-5.3-1.1-10.8,0-16.1c3.5-13.3,22.5-15.9,30.7-4.1
				c1.8,2.4,5,5.9,8.1,4.6c2.2-1.1,1.8-3.5,0.7-5.8c-2.9-5.7-8.7-9.8-15.6-11c-5.4-1.1-11,0-16.2,1.9c-13.2,5.7-15.3-7.9-12.1-18.2
				l1.8,0.5c-2.6,8.8-1.9,21.1,9.8,15.9c5.4-1.9,11.4-3,17.1-1.9c7.8,0.2,24.5,14,15.3,20.3c-9.2,3.3-11.1-13.5-24.8-12
				c-12.6,1.4-14.6,11.9-13.5,22.3C165.9,190.4,168.4,194.9,162.9,199.5z"/>
		</g>
		<g>
			<path class="st6" d="M165.2,207.5L165,207c10.8-5.3,3.1-15.4,0.3-18.9c0,0-0.4-1.7-0.4-1.7C168.8,190.7,178,201.5,165.2,207.5z"
				/>
			<path class="st6" d="M165.1,207.8l-0.5-0.9c10.9-5.2,3.2-15.1,0.4-18.6c-0.1,0-0.6-2.9-0.7-2.9
				C170.1,191.4,178,201.9,165.1,207.8z M165.5,188c2.4,2.9,9.8,12.8,1.5,18c8.8-5.2,2.6-13.8-1.7-18.6L165.5,188z"/>
		</g>
		<g>
			<path class="st6" d="M170.2,202.4l0-0.3c0.8-1.1,0.1-2.5-0.8-3.3c-2.3-2-6.2-0.5-8,1.3c-0.3,0.2-3.2,2.3-2.6,1
				c2.6-1.2,4.2-3.3,7.4-3.8C168.7,197,172,199.7,170.2,202.4z"/>
			<path class="st6" d="M169.8,203.8l-0.3-1.8c0.8-0.8,0.1-2.1-0.6-2.7c-1.7-1.5-4.5-0.6-6.2,0.4c-0.9,0.7-3.8,3.7-4.7,2
				c-0.2-1.4,1.9-1.4,2.7-2.3c1.6-1.1,3-2.1,5.3-2.4C170,196.3,173.1,200.7,169.8,203.8z"/>
		</g>
		<g>
			<path class="st6" d="M156.2,207.1c-0.2,0-0.5,0-0.7,0l0-0.5c2.5,0.2,4.1-0.9,4.8-1.9l-0.1-0.2c0.1,0,0.1,0,0.2,0
				c1-3.7,7-5.9,6.4-1.4c-1.3,2.8-4.4,2.8-6.2,1.9C159.9,206,158.5,207.1,156.2,207.1z M161,204.6c1.6,0.8,4.3,0.7,5.5-1.7
				C167,199.1,161.6,201.8,161,204.6z"/>
			<path class="st6" d="M156.2,207.4c-0.3,0-0.7,0-1-0.1l0.1-1c2.4,0.4,4.3-0.9,4.8-1.6l-0.1-0.3c0.1-0.1,0.3-0.2,0.4-0.2
				c0.8-3.5,7.5-6.2,6.8-1c-1.3,2.9-4.7,3-6.3,2.1C160.2,206,158.7,207.4,156.2,207.4z M161.4,204.4c1.4,0.7,3.8,0.4,4.8-1.6
				C166.6,199.4,161.6,202.4,161.4,204.4z"/>
		</g>
		<g>
			<path class="st6" d="M155.8,202.1c-1.1,0-2.1-0.2-3.1-0.5l0.1-0.4c1.6,0.6,3.6,0.6,5.5,0.2c0.1,0,0.2,0,0.3,0.2
				C158.2,202.2,156.5,202,155.8,202.1z"/>
			<path class="st6" d="M155.8,202.7c-1.4,0-2.6-0.3-3.8-0.7l0.5-1.5c1.9,1,4.1,0.4,6.3,0.4C160.3,202.6,156.8,202.7,155.8,202.7z"
				/>
		</g>
		<g>
			<path class="st6" d="M155.5,207c-3.4,0-5.1-2.3-5.4-3.1l0.4-0.2c0.3,0.7,1.9,2.9,5,2.9L155.5,207C155.5,207,155.5,207,155.5,207z
				"/>
			<path class="st6" d="M155.8,207.3c-3.6,0.1-5.7-2.3-6.1-3.6l0.9-0.4c0.3,1,2.1,3.1,5.1,3C155.8,206.5,155.8,207.1,155.8,207.3z"
				/>
		</g>
		<g>
			<path class="st6" d="M164.7,187.7c-0.5-1.1-2-3.9-3-4.3l0.2-0.4c1.3,0.5,3,4.1,3.2,4.5L164.7,187.7z"/>
			<path class="st6" d="M164.6,188.1c-0.8-1.7-2.1-4.2-3.2-4.5l0.4-1c1.7,0.6,3.2,4.1,3.7,5L164.6,188.1z"/>
		</g>
		<g>
			<path class="st6" d="M182.5,264.1c-5.7-0.8-9.1-4.1-13.2-12.8c-6.9-16.4,17.7-24.8-3.2-40.8l0.2-0.4c5.6,3,12.5,13.3,6.1,23.2
				c-9,11.5-0.3,28.8,9.5,30.4c-10.4-10.1,11-19.5,6.3-40.1c-1.5-7.5-8.2-17.8-16.4-19l0-0.5c8.4,1.1,15.3,11.6,16.8,19.3
				c4.9,20.9-17.8,31.1-5.5,40.7C183.1,264,182.7,264.1,182.5,264.1z"/>
			<path class="st6" d="M182.5,265c-6.1-0.8-9.8-4.3-14.1-13.4c-5.8-13.1,7.6-19.5,4.8-30.5c-2.1-7-7.3-9.6-8.4-10.3l1.1-2.1
				c6.5,3.2,14.2,14.2,7.4,25c-7.2,9.8-3,22.6,6,28c-6.2-9.7,12.2-18.9,8-38.1c-1.5-7.4-8.2-17.8-16.5-18.2l0.2-2.4
				c9.4,0.4,17,11.8,18.7,20.2c4.9,23.6-19.4,31.4-3.9,41.7l-3.1,0.2C182.8,265,182.7,265,182.5,265z"/>
		</g>
		<g>
			<path class="st6" d="M166,321.9l-0.3-0.3c1.1-1.1,2.1-2.1,2.2-2.3l0.3,0.3C168,319.8,166.8,321.1,166,321.9z"/>
			<path class="st6" d="M166,322.3l-0.7-0.8c1.4-1.4,2.4-2.4,2.5-2.7l0.8,0.7C168.3,319.9,167.2,321,166,322.3z"/>
		</g>
		<g>
			<path class="st6" d="M168.2,318.8l-0.3,0.5c7.6-11.5,0.3-35.4-6.2-48.4c-7.1-12,0.1-30.5,5-37l0.4,0.3
				c-4.8,6.4-11.9,24.6-4.9,36.5C168.5,283.5,176,307.4,168.2,318.8z"/>
			<path class="st6" d="M169,320.1l-2.3-1.7c7.2-11.5-0.1-34.2-6.4-46.9c-7.4-13.5,0-32,5.9-39.6l2.6,2c-5.3,6.7-12.4,24-5.6,36.1
				C170,283.7,177.9,308.2,169,320.1z"/>
		</g>
		<g>
			<path class="st6" d="M164.9,321.9l-2.8,0.6c7.9-4.3,31.1-27.9,12.6-43.7c-12.4-11.4-16.9-19-15.3-28.2l0.4,0.2
				c-1.5,9.1,2.9,16.4,15.2,27.6C193,291.7,173.1,317.5,164.9,321.9z"/>
			<path class="st6" d="M155.6,325.4c9.6-5.9,37.3-27.8,18.2-45.6c-12.9-11.8-18.7-21.3-15.1-31.1l3,1.3c-2.9,8.1,2.8,17,14.3,27.3
				c18.7,13.7-1,40.8-10.2,45.6c0,0-0.2,0.2-0.2,0.2l-0.3,0.1L155.6,325.4z"/>
		</g>
		<g>
			<path class="st6" d="M215.7,259l-0.3-0.3c4-3.4,15.3-18.4,10.4-27.2c-8.3-19.5-10-34.6-6.9-46.6l0.4,0.2c-3,12-1.4,26.8,6.9,46.2
				C230.9,239.2,220.8,254.9,215.7,259z"/>
			<path class="st6" d="M215.5,261.7l-2.7-3.1c4.3-3.7,15.7-17.4,11.3-26.3c-8.7-20.9-10.6-36.3-6.3-49.7l3.8,1.5
				c-3.9,12.9-2,26.6,6.2,46.6C233.1,240.1,221.9,256.6,215.5,261.7z"/>
		</g>
		<g>
			<path class="st6" d="M203.5,290.1l0.4-1.5c13.3-6.7,13.6-17.2,12.9-23.5c-0.5-3.8-2.3-6.9-2-11.3c3.8-10.1,2-22.9-4-30.6
				c-4-5.5-3.4-14.8-2.6-21.3l0.4,0.1c-0.8,6.4-1.4,15.6,2.5,20.9c6,7.7,7.9,20.8,4.1,30.9c-0.4,2.9,1.6,7.8,2.1,11.2
				C218.4,276,213.6,285,203.5,290.1z"/>
			<path class="st6" d="M199.7,294.8l2.1-8c13.2-6.3,14-16.2,11.8-24.5c0,0,0.5-0.1,0.4-0.2l-0.4,0.1c-3-9.6-0.5-9.5,0.7-17.7
				c0.2-22.2-13.3-18.7-8.3-45.6l5.4,0.7c-0.5,5.2-2.5,14.9,1.8,21.6c5.4,7.1,8.6,19.6,5.4,29.4c-1.1,3.3-1.3,3.9-0.1,8.7
				C223.7,275.7,215,288.8,199.7,294.8z"/>
		</g>
		<g>
			<path class="st6" d="M204.4,287.3c1.6-12.4-5.1-15.8-6.6-26.1c-0.4-14.7,16.7-20.8,12.7-38.3c0-0.3,0.4-0.4,0.4-0.1
				c0.7,5,0.9,10.3-1.7,15.3c-3.8,7-11.9,15.2-11,23c0.3,4.2,2.5,7.9,4.4,11.6C204.2,276.4,206.2,283.6,204.4,287.3z"/>
			<path class="st6" d="M204.5,289.9c-1.7,0-3.1-1.7-2.7-3.4c0.8-3.4-0.3-9.2-1.8-12.3c-15.4-25.8,12.1-28.6,8-50.9
				c-0.2-1.5,0.8-2.9,2.3-3.1c5.8-0.7,3.5,15.3,1.1,19.2C208,246,200,253.7,200.8,261c0.3,3.6,2.4,7.3,4.1,10.7
				C206.5,275,210.5,289.1,204.5,289.9z M202.2,286.6C202.2,286.6,202.2,286.6,202.2,286.6C202.2,286.6,202.2,286.6,202.2,286.6z
				 M205.1,284.9L205.1,284.9C205.1,284.9,205.1,284.9,205.1,284.9z"/>
		</g>
		<g>
			<path class="st6" d="M177.7,308.5c10.2-9.6,14.4-23.5,7.9-36.6c-3.8-11.7,10.2-24.3,17.8-25.5l0.1,0.5
				c-7.3,1.2-21.1,13.4-17.4,24.9C192.5,284,188.5,299.9,177.7,308.5z"/>
			<path class="st6" d="M170.4,316.9L177,306c4.7-3.6,8.1-9.4,9.3-15.9c1.2-5.9,0.1-12-2.5-17.4c-4.4-14,11.2-27.4,21.1-28.6
				l0.9,4.3c-7.7,0.9-20.7,11.2-18,22.6C197,290.1,186.4,306.1,170.4,316.9z"/>
		</g>
		<g>
			<path class="st6" d="M177.2,309.2l0.6-0.9c15-3.8,23.3-12.5,26.4-21l0.4,0.1C201.4,296.3,192.5,305.2,177.2,309.2z"/>
			<path class="st6" d="M172.7,312.6l3.8-6.1c12-2.4,24.3-11.9,26.3-21.8l4.4,1.4C204.6,298.4,189.9,309.3,172.7,312.6z"/>
		</g>
		<g>
			<path class="st6" d="M174,277c0,0,0.2,1.9-2.2-2.6c-2.3-4.2-4-10.7,0.7-17.6l0.2,0.5c-7.1,9.4,0.9,20.2,6.4,25.7L174,277z"/>
			<path class="st6" d="M183.4,291.2c-2.3-2.8-7.8-9.3-10.1-12c-5.5-4.7-8.2-14.5-2.4-23.4c0,0,1.9-2.8,1.9-2.8l1.9,4.5
				c-6.2,7.7-1.8,16.4,4.4,22.8C181.2,281.8,182.5,289,183.4,291.2z"/>
		</g>
		<g>
			<path class="st6" d="M176.2,261.2c-3.8-5-5.5-12.7-2-17.8c7.8-7.3,15.3-19.3,9.6-29.9l0.4-0.2c5.8,10.8-1.7,22.9-9.7,30.4
				c-3.3,5-1.6,12.4,2,17.3L176.2,261.2z"/>
			<path class="st6" d="M176.1,262.2c-4.2-5.3-6.3-13.7-2.5-19.3c7.7-7.3,15.4-19.3,9.3-29.7l1.6-1c6.5,11.1-1.1,24-9.4,31.8
				c-3.3,5-1.3,12.3,2.4,17L176.1,262.2z"/>
		</g>
		<g>
			<path class="st6" d="M171.5,234.5l-0.2-0.4c10.4-4.2,15.3-15,11.7-22.2l0.4-0.2C187.1,219,182.2,230.2,171.5,234.5z"/>
			<path class="st6" d="M171.2,235.4l-0.7-1.7c10.6-4.2,15.7-14.4,11.7-22.1l1.6-0.9C188.2,219.1,182.9,230.8,171.2,235.4z"/>
		</g>
		<g>
			<path class="st6" d="M172.5,233.2l-0.3-0.3c4.5-4.9,11.2-20.1,4.2-27l0.3-0.3C183.8,212.6,177.2,228.2,172.5,233.2z"/>
			<path class="st6" d="M172.6,234.2l-1.4-1.2c4.8-5.1,11.7-20.2,4.2-27.1l1.4-1.3C185,212.3,178,228.4,172.6,234.2z M172,232.7
				L172,232.7L172,232.7z"/>
		</g>
		<g>
			<path class="st6" d="M187.5,219.1l-0.2-0.4c14.1-7.1,26.8-23.8,31-32.8l0.4,0.2C214.4,195.1,201.7,211.9,187.5,219.1z"/>
			<path class="st6" d="M186.6,221.9l-2-4.2c15.3-7.3,28.1-24.1,32.8-34.8l4.1,2.2C216.4,196.5,202.8,214.1,186.6,221.9z"/>
		</g>
		<g>
			<path class="st6" d="M173.9,224.1c-3.1-1.7-6.1-3.6-9.2-5.2c-1.8-0.5-3.6,0.4-5.3,0.8c-0.4,0.4-3.8,0.2-3.1,0.7
				c2.7,0.3,5.1-1.5,7.8-1.4c3.4,1.3,6.4,3.6,9.7,5.3C173.9,224.5,174,224.2,173.9,224.1L173.9,224.1z"/>
			<path class="st6" d="M173.8,224.7c-1.5-0.5-8.4-5.1-9.8-5.3c-2.7-0.1-4.9,1.6-7.7,1.4c-0.5,0-0.5-0.9,0-0.9
				c3.7,0.2,7-2.9,10.2-0.3c0,0,7.5,4.3,7.5,4.3C174.4,224.1,174.2,224.7,173.8,224.7z M173.7,224.4
				C173.7,224.4,173.7,224.4,173.7,224.4L173.7,224.4z"/>
		</g>
		<g>
			<path class="st6" d="M173.9,224.3c-0.9-5.5-5.5-10.6-10.6-12.5c-2.4-0.3-4.6,0.9-6.9,1.1c-0.2,0-0.2,0.3,0,0.3
				c3-0.3,6.3-2.4,9-0.2c3.9,2.6,7.6,6.5,8.3,11.3C173.7,224.5,173.9,224.5,173.9,224.3L173.9,224.3z"/>
			<path class="st6" d="M173.8,224.7c-0.7-0.1-0.4-1.8-0.9-2.5c-1.4-3.8-5.1-7.8-9.1-9.7c-2.5-0.7-4.9,0.8-7.4,1
				c-0.5,0.1-0.6-0.8-0.1-0.9c2.4-0.2,4.6-1.5,7-1.1c5.3,2,10,7.2,10.9,12.8l0,0C174.2,224.5,174,224.7,173.8,224.7z M173.7,224.3
				C173.7,224.3,173.7,224.3,173.7,224.3C173.7,224.3,173.7,224.3,173.7,224.3z"/>
		</g>
		<g>
			<path class="st6" d="M204.9,183.7c5,9-0.1,21.1-7.5,27.2c-0.3,0.2,0.1,0.7,0.4,0.5c6.3-5.1,10-13.3,9.6-21.4
				c-0.1-2.3-0.6-4.7-2-6.6C205.1,183,204.7,183.4,204.9,183.7L204.9,183.7z"/>
			<path class="st6" d="M197.6,212.5c-1.3,0-1.9-1.7-0.9-2.5c1.6-1.3,3.1-2.8,4.3-4.5c4.1-5.7,6.8-14.9,3.1-21.1l0,0
				c-1.1-1.4,1.2-3.2,2.2-1.7c1.3,1.8,2.1,4.3,2.2,7.2C208.9,198.2,204.9,208.2,197.6,212.5z"/>
		</g>
		<g>
			<path class="st6" d="M205.7,171.8c0.6-0.8,0.5-14.2-0.9-11.9c0.9,3.8,1,7.9,0.4,11.8C205.1,172,205.7,172.1,205.7,171.8
				L205.7,171.8z"/>
			<path class="st6" d="M205.5,172.7c-1.8-0.2-0.6-2.2-0.7-3.5c0.2-2.8,0-6.6-0.7-9.1c-0.4-1.2,1.6-1.8,1.9-0.5
				C206.6,161.5,207.9,172.2,205.5,172.7z M205,171.6C205,171.6,205,171.6,205,171.6L205,171.6C205,171.6,205,171.6,205,171.6z"/>
		</g>
		<g>
			<path class="st6" d="M161.6,167.7c0-4.6,3.8-7.6,7.9-8.9c0.9-1.5-4.1,1.3-4.5,1.6C162.1,161.5,159.9,169.4,161.6,167.7
				L161.6,167.7z"/>
			<path class="st6" d="M161.3,168.2c-1.3-0.4-0.1-2.9,0.2-4.1c0.7-1.7,1.8-3,3.3-4c1-0.5,4.4-2.8,5-1.8c0.2,1.1-1.8,1.1-2.6,1.7
				c-2.8,1-5.4,4.4-5.4,7.6l0,0C161.9,168,161.6,168.2,161.3,168.2z M161.3,167.7C161.3,167.7,161.3,167.7,161.3,167.7l0.3,0
				L161.3,167.7z M169.3,158.5c-1.9,0.8-3.9,1.6-5.4,3C165.6,160,167.4,159.4,169.3,158.5C169.3,158.5,169.3,158.5,169.3,158.5z"/>
		</g>
		<g>
			<path class="st6" d="M161.9,205.4c-1.3,3.9-5.2,8.4-9.4,4.8c-0.1-0.1-0.3,0.1-0.2,0.2c4.2,3.7,8.4-0.5,9.6-4.8
				c0.1-0.2-0.7,1-0.8,1.1L161.9,205.4z"/>
			<path class="st6" d="M155.7,212.1c-1.1,0-4-0.7-3.6-2c0.2-0.2,0.4-0.2,0.6,0c3.2,2.8,6.8,0.3,8.3-3.3l-0.1,0c0,0,0,0,0,0l0,0
				c0.1-0.1,0.6-1.2,0.7-1.4l0.2,0.1c0.1-0.1,0.3,0.1,0.4,0.1C161.2,208.3,159.6,212,155.7,212.1z"/>
		</g>
		<g>
			<path class="st6" d="M164.3,234.2c-2.6-3.8-7.3-5.3-11.7-4.4c-0.4,0.1-0.2,0.6,0.1,0.6c3.1-0.5,6.6-0.2,9,2.1
				c0.7,0.4,3.9,4.9,2.3,1.8L164.3,234.2z"/>
			<path class="st6" d="M164.5,236.3c-0.2,0-0.5-0.1-0.7-0.4c-1.3-1.5-2.8-3.5-4.8-4.2c-1.8-0.7-4.3-0.8-6.1-0.5
				c-0.4,0.1-0.8-0.1-1.1-0.4c-1.9-3.6,8.2-1.8,9.3-0.6c1.8,1,3.5,3,4.8,4.8l-0.7,0c0.1,0.4,0,0.8-0.2,1.1
				C165,236.2,164.6,236.3,164.5,236.3z"/>
		</g>
		<g>
			<path class="st6" d="M164.8,178.1c0.5-5.3-1.8-4.2-3-7.6c-0.2-0.8-0.3-1.8-0.2-2.7c0.1-0.4-0.5-0.5-0.5-0.2
				c-0.4,2.6,0.7,4.9,2.7,6.4c0.5,1.2,0.7,2.6,0.6,3.9C164.2,178.3,164.7,178.4,164.8,178.1L164.8,178.1z"/>
			<path class="st6" d="M164.6,178.6c-0.3,0-0.7-0.3-0.6-0.7c0.1-1.2-0.1-2.6-0.5-3.7c-0.5-0.7-1.2-1-1.7-1.7
				c-0.6-0.5-2.1-6-0.1-5.2c0.4,1.4-0.1,4.1,1.6,5.2C164.8,172.9,166,178.4,164.6,178.6z M164.5,178C164.5,178,164.5,178,164.5,178
				l0.3,0.1L164.5,178z M161.6,170.8c0.3,1.5,1.6,2,2.4,3.2C163.2,172.9,161.9,172.3,161.6,170.8z"/>
		</g>
		<g>
			<path class="st6" d="M108.3,246.9c8.2-0.3,17.8,1.9,23.4,8.3c0.1,0.4,0.6,0.2,0.5-0.2c-0.2-0.7-0.7-1.2-1.2-1.6
				c-4.8-3.4-10.3-6.8-16.1-7.9c-2-0.2-4.9-1-6.9-0.9C107.7,244.7,107.9,247,108.3,246.9z"/>
			<path class="st6" d="M131.9,256.5c-6.2-5.9-14.5-9.1-23.6-8.6h0c-1.2,0-1.4-1.5-1.5-2.4c-0.4-3.6,6.2-0.8,8.1-0.8
				C117.5,244.3,138.5,254,131.9,256.5z M108.3,246C108.3,246,108.3,246,108.3,246C108.3,246,108.3,246,108.3,246z M108.9,245.7
				c0,0.1,0,0.2,0,0.2c0.6,0,1.2,0,1.8,0C110.1,245.8,109.4,245.7,108.9,245.7z"/>
		</g>
		<g>
			<path class="st6" d="M180.3,253.5c6.7-3.7,14.6-7.1,22.4-6.5c0.4,0.1,0.5-0.5,0.1-0.6c-6.3-0.8-12.5,1.9-18.3,4.1
				C183.9,250.9,179.5,253,180.3,253.5L180.3,253.5z"/>
			<path class="st6" d="M180.2,254.9c-8.2-3.5,19.5-11.9,22.8-9.9c2.2,0.3,1.5,3.7-0.6,3.3C194.8,247.6,186.8,251.8,180.2,254.9z
				 M181.3,254.1L181.3,254.1C181.3,254.1,181.3,254.1,181.3,254.1z M179.6,252.3C179.6,252.3,179.6,252.3,179.6,252.3
				C179.6,252.3,179.6,252.3,179.6,252.3z"/>
		</g>
		<g>
			<path class="st6" d="M149.3,241.1c1.2-7.9,13.1-7.6,13.6,0.7c0,0.3,0.5,0.4,0.5,0c-0.2-6-7.6-9.3-12.1-5.3
				c-1.4,1.1-2.6,2.7-2.6,4.6C148.8,241.5,149.3,241.5,149.3,241.1L149.3,241.1z"/>
			<path class="st6" d="M163.2,242.8c-1.5,0-0.9-3.4-2.4-4.5c-3.1-4.1-10.1-2.2-10.9,2.8l0,0c-1.1,3-4.1-1.1,1-5.1
				c4.9-4.5,13-0.7,13.2,5.8C164.2,242.3,163.8,242.8,163.2,242.8z"/>
		</g>
		<g>
			<path class="st6" d="M145.9,234c-1.8-2.5-4.5-5-6.7-7.1c-0.6-0.5-1.8-2.3-2.7-2.4c-0.4,0-0.1,2.3,0.3,2.3
				c3.1,1.6,5.6,4.6,7.7,7.4c0.2,0.3,0.7,0,0.5-0.3L145.9,234z"/>
			<path class="st6" d="M144.7,234.9c-0.3,0-0.5-0.1-0.7-0.4c-1-1.5-2.2-2.9-3.5-4.2c-1.1-0.9-2.4-2.4-3.7-3c-1-0.1-0.9-2.6-0.9-2.7
				c0.1-0.8,0.7-0.8,0.8-0.8c1.5,0.4,2.9,2.7,4.3,3.7c2.1,2.1,4.7,4.5,6.2,7l-1.7-0.2C145.2,234.7,145,234.9,144.7,234.9z
				 M144.5,233.3l0.2,0c-0.4-0.5-0.8-1-1.3-1.5C143.7,232.3,144.1,232.8,144.5,233.3z M137.1,226.3c1.1,0.3,1.8,1.3,2.7,2
				c-1-0.9-1.9-1.9-2.9-2.9C136.9,225.7,137,226.1,137.1,226.3z"/>
		</g>
		<g>
			<path class="st6" d="M166.9,234.4c2.2-2.7,4.6-5.3,7.5-7.2c0.3-0.2,0.4-2.1,0.1-1.9C173.9,225.2,164.7,235.1,166.9,234.4
				L166.9,234.4z"/>
			<path class="st6" d="M166.8,235.9c-3-0.5-1.3-3.1,0.1-4.5c2.1-2.6,4.4-5.6,7-7.3c2.5-1.4,3.1,3,1.4,4.3c-3,2-5.4,4.8-7.2,6.9
				C167.7,235.7,167.3,235.9,166.8,235.9z"/>
		</g>
		<g>
			<path class="st6" d="M92.5,184.8c-0.9-5.1-6.5-7.3-10.9-5.4c-8.7,3.2-3.8,29.5,1.4,34.8c1.6,1.9,5.5,6.7,7.7,3.2
				c0.2-0.3-0.3-0.6-0.5-0.3c-1.7,2.8-5-1.4-6.4-2.8c-4.8-5.8-6-14-6.3-21.4c-0.1-5.2-0.2-13.4,6.7-13.6
				C91.8,178.4,91.7,186.9,92.5,184.8L92.5,184.8z"/>
			<path class="st6" d="M88.9,220.3c-10.9-3.1-13.6-18.7-13.5-29.6c-0.1-6.8,1.7-13.7,9.9-13.5c4.5,0,7.6,2.8,8.7,7.2
				c0.6,2.3-3,3.2-3.5,0.9c-0.5-4.1-5.6-5.6-9-3.5c-2.9,2.3-2.3,7.1-2.4,11.1c0.4,8.7,2.3,19.4,9.7,23.6c1-2.2,4.4-0.5,3.3,1.6
				C91.4,219.5,90.5,220.3,88.9,220.3z"/>
		</g>
		<g>
			<path class="st6" d="M218.8,187.4c0.1-7.9,10.6-9.5,13.9-2.6c3.3,7.9,1.2,19.6-2.6,27.1c-1.9,3.3-4.7,6.5-8.2,8
				c-0.9,1.4,2-0.3,2.4-0.6c2.1-1.6,4-3.4,5.5-5.6c4.7-8.1,6.6-19.3,3.8-28.4c-3-7.4-13.7-7.2-15.3,1c0,0.4-0.1,0.8,0,1.2
				C218.3,187.7,218.8,187.7,218.8,187.4L218.8,187.4z"/>
			<path class="st6" d="M222,221.9c-2.6-0.2-2.2-3.5,0.2-3.9c4.9-3,7.6-7.6,9.1-13.2c1.4-5.9,2.6-13.8,0.1-19.3
				c-2.6-5.4-10.8-4.5-11,1.8l0,0c0.2,2.4-3.5,2.6-3.6,0.2c-0.4-4.8,3.9-8.6,7.9-9.2c11.6-1.1,12.7,12.6,11.4,21.1
				C234.4,209.7,231.3,218.2,222,221.9z M217.2,187.5C217.2,187.5,217.2,187.5,217.2,187.5C217.2,187.5,217.2,187.5,217.2,187.5z"/>
		</g>
		<g>
			<path class="st6" d="M118.2,131.6c21.9,6.4,38.3-14.3,38.7-34.7c0.1-0.5,0.2-2.7-0.5-1.6c0.2,20-14.8,41.2-36.7,36.1
				c-0.4-0.1-0.9-0.2-1.3-0.4C118,130.9,117.8,131.5,118.2,131.6z"/>
			<path class="st6" d="M125.7,133.9c-2.1-0.2-10.9-0.1-8.4-3.6c0.8-0.7,1.8-0.1,2.6,0.1c3.3,0.9,7,1,10.6,0.3
				c11.6-2.1,19.8-11.9,22.9-23.1c1.1-3.9,1.7-8,1.8-12.2c0-0.8,0.6-1.4,1.4-1.4c3.4,0-0.4,13.8-1,15.9
				C151.6,123.2,139.9,134,125.7,133.9z M118.5,130.5C118.5,130.5,118.5,130.5,118.5,130.5C118.5,130.5,118.5,130.5,118.5,130.5z"/>
		</g>
		<g>
			<path class="st6" d="M138.2,130.6c19.1,3.3,34.3-15.2,33.9-33.3c0.1-0.5,0.1-2.5-0.6-1.4c0.5,14.2-7.7,29.4-21.9,33.4
				c-3.7,1.1-7.6,1.4-11.3,0.7C138,129.9,137.9,130.5,138.2,130.6z"/>
			<path class="st6" d="M142.4,132.5c-1.5,0-3-0.1-4.5-0.4c-2.4-0.4-1.6-4.2,0.8-3.6c3.5,0.6,7.1,0.3,10.6-0.7
				c13.5-3.9,21.2-18.4,20.7-32c0-2.4,3.8-2.3,3.6,0.1C174.6,113.7,161.2,132.6,142.4,132.5z M138.5,129
				C138.5,129,138.5,129,138.5,129C138.5,129,138.5,129,138.5,129z"/>
		</g>
		<g>
			<path class="st6" d="M152.9,129.9c18.8,2.1,32-11.4,32.8-29.8c0.1-0.5,0.4-2.3-0.4-1.3c-0.8,14-7.2,26.2-21.5,29.8
				c-3.6,0.9-7.3,1.2-10.9,0.7C152.6,129.3,152.6,129.8,152.9,129.9z"/>
			<path class="st6" d="M156.7,131.7c-1.3,0-2.6-0.1-3.9-0.3h0c-2.3-0.3-2-4,0.4-3.6c3.5,0.5,6.9,0.2,10.3-0.6
				c13.7-3.5,19.6-15.2,20.4-28.5c0.2-2.3,3.9-2,3.6,0.3C186.6,117.2,175.8,131.3,156.7,131.7z"/>
		</g>
		<g>
			<path class="st6" d="M167,128.2c11.5,3.2,24.5-2.6,30.1-13.1c1.5-2.8,3.2-3.1,3.6-6.3c0-0.4-1.5-1.9-1.5-1.6
				c-1.4,11-11.5,19.5-22.1,21c-3.3,0.5-6.7,0.3-10-0.6C166.8,127.5,166.6,128.1,167,128.2z"/>
			<path class="st6" d="M173.6,130.6c-2.4,0-4.7-0.3-7-0.9h0c-2.3-0.6-1.3-4.2,0.9-3.5c3,0.8,6.2,1,9.4,0.6
				c9.8-1.2,19.8-9.9,20.8-19.7c0.7-3.1,4.7-0.2,4.6,2c-0.5,3.7-2.3,4.1-3.8,6.8C193.7,124.7,183.7,130.7,173.6,130.6z M167.4,126.7
				C167.4,126.7,167.4,126.7,167.4,126.7C167.4,126.7,167.4,126.7,167.4,126.7z"/>
		</g>
		<g>
			<path class="st6" d="M195.3,116.7c-0.1,3.5,3.1,6.2,5,8.9c4.4,5.1,10.3,8.7,16.9,10c0.4,0.1,0.5-0.5,0.1-0.6
				c-7.9-1.6-14.8-6.8-19.3-13.4c-0.9-1.4-2.3-3-2.1-4.8C195.9,116.5,195.4,116.3,195.3,116.7L195.3,116.7z"/>
			<path class="st6" d="M217.3,137c-7-1.2-13.3-5.2-18-10.5c-2.1-2.9-5.6-5.7-5.3-10c0.4-2.2,3.7-1.5,3.3,0.6
				c1.3,4.5,6.1,9.2,9.8,12c3.2,2.3,6.8,3.9,10.5,4.6C219.6,134,219.2,137.1,217.3,137z"/>
		</g>
		<g>
			<path class="st6" d="M199.2,125c-2.5,7,0.6,17.8,6.6,22.1c5.2,2.7,11.1,3.6,14.9,8.8c1,1.2,1.7,2.6,2.4,4
				c1.6,0.7-1.4-3.5-1.6-3.9c-5.9-8.8-16-5.6-19.9-15c-2.2-4.9-3.8-10.6-1.8-15.8C199.9,124.8,199.4,124.7,199.2,125L199.2,125z"/>
			<path class="st6" d="M223.3,161.6c-2.2-0.2-2.5-3.7-3.8-4.7c-3.4-4.9-9.5-5.7-14.5-8.5c-6.8-4.7-10-16.6-7.2-24
				c0.8-2.2,4.3-0.9,3.4,1.3c-2.1,5,0.3,13.8,4,18.1c1.7,1.8,4,2.6,6.5,3.5c2.9,0.9,6.1,2.6,8.2,4.7
				C221.7,153.7,228.3,160.6,223.3,161.6z M200.7,125.6C200.7,125.6,200.7,125.6,200.7,125.6C200.7,125.6,200.7,125.6,200.7,125.6z"
				/>
		</g>
		<g>
			<path class="st6" d="M203.6,145.2c-2.2,8.5-0.9,15,7.1,19.5c2.5,1.6,5.4,2.9,6.8,5.6c2.1,3.4,0.8,9.5,0.7,13.3
				c0,1.5,0.9-1.6,0.6-0.1c-0.1,0.3-0.1,0.6-0.2,0.9c-0.1,0.4,0.4,0.5,0.5,0.2c1.1-5.5,1.1-12.4-2.9-16.8
				c-4.4-3.9-11.7-5.8-12.7-12.5c-0.6-2.9-0.4-6.1,0.3-9c0.1-0.3,0.2-0.7,0.3-1C204.3,144.9,203.7,144.8,203.6,145.2L203.6,145.2z"
				/>
			<path class="st6" d="M218.9,185.9c-0.6,0-1.2-0.4-1.4-1c-1.3-1.8,0.6-8.5,0.1-10.4c-2-12.5-20.4-6.5-15.1-29.6h0
				c0.5-1.8,3.2-1,2.7,0.8c-0.9,3.2-1.1,6.7-0.5,9.5c2.2,9.8,15.3,7.7,15.9,20.4C220.8,177.9,221.7,185.4,218.9,185.9z"/>
		</g>
		<g>
			<path class="st6" d="M217.2,135.6c9,2,13.6,17.6,6,23.5c-0.3,0.2,0,0.7,0.3,0.5c8-6.1,3.4-22.4-6.1-24.6
				C217,135,216.8,135.5,217.2,135.6z"/>
			<path class="st6" d="M223.3,161.2c-1.7,0-2.5-2.5-1-3.4c1.2-0.8,2.2-2.2,2.6-3.8c1.5-5.8-1.1-15.2-8.1-16.9
				c-2.3-0.4-1.5-4.1,0.8-3.6C228.4,135.4,234.2,156,223.3,161.2z"/>
		</g>
		<g>
			<path class="st6" d="M223.1,159.9c2.7,7.5-0.1,16.2-3.9,22.8c0.4,2.3,4.3-7.7,4.3-8.5c0.9-4.7,2.2-10.1,0.1-14.7
				C223.4,159.3,223,159.6,223.1,159.9L223.1,159.9z"/>
			<path class="st6" d="M219.5,184.7c-4.1-0.8,0.1-5.1,0.7-7.2c1.3-2.9,1.9-5.6,2.2-8.7c0.4-2.8,0.6-5.8-0.6-8.3
				c-1.1-2.1,2.2-3.8,3.3-1.7c3.1,7.8,0.2,17.7-4,24.9C220.7,184.4,220.1,184.7,219.5,184.7z M224.5,159.2L224.5,159.2
				C224.5,159.2,224.5,159.2,224.5,159.2z"/>
		</g>
		<g>
			<path class="st6" d="M199.3,105.9c4,8,14.5,7.8,19.6,14.7c3.7,5.3,6.7,12.5,4.8,19c0.8,1.8,1.4-4.1,1.2-4.7
				c-0.8-7.4-4.1-15.5-10.9-19.2c-4.7-2.6-11.2-3.1-13.8-8.3C200,107,199.1,105.6,199.3,105.9L199.3,105.9z"/>
			<path class="st6" d="M223.9,141.3c-4.3-0.7,2.1-4.2-3.8-16.1c-3-7.2-10.3-9.2-16.3-12.5c-2-1.1-3.5-1.9-4.8-4.7
				c-0.9-1.3-1.6-2.4-0.3-3.7c1.6-0.1,2,0.8,2.8,2.3c3.8,5.7,12.3,5.8,17,10.4c4.6,4.4,7.4,11.5,7.9,17.8
				C226.1,136.8,226.5,140.9,223.9,141.3z M200.6,105.3l-1.3,0.6L200.6,105.3C200.6,105.3,200.6,105.3,200.6,105.3z"/>
		</g>
		<g>
			<path class="st6" d="M113.5,101.7c-1.8,6.9-6.7,13.8-13.6,16.2c-12.5,2.6-16.7,12.9-13.4,24.6c0.1,0.5,0.2,0.9,0.3,1.4
				c0.1,0.4,0.6,0.2,0.5-0.2c-3.6-11.4-0.5-22.4,12.2-25.1c6.9-2.1,11.8-8.8,14-15.5c0.1-0.4,0.2-0.8,0.3-1.3
				C114.2,101.5,113.6,101.4,113.5,101.7L113.5,101.7z"/>
			<path class="st6" d="M87.2,145.7c-1.5,0-1.9-1.6-2.1-2.8c-2.1-6.8-1.6-16.6,4.5-21.6c2.5-2.3,6.6-3.8,9.9-4.7
				c5.5-1.5,11.4-9.5,12.5-15.1c0.2-1,1.2-1.6,2.2-1.4c4.2,1.4-2.7,11.3-4.6,13.6c-7.5,9.9-20.1,4.6-21.9,19.5
				c-0.3,3.5,0.5,7.1,1.3,10.2C89.3,144.5,88.4,145.7,87.2,145.7z"/>
		</g>
		<g>
			<path class="st6" d="M90.8,160.7c5.9-18.3,19.8-9.4,22.4-26.7c0.3-1.6,0.4-3.2,0.4-4.7c0-1.8,0.9-2.4,0.9-4.2
				c0-0.9-1.4-0.9-1.4,0c0.3,8.3-0.8,19.1-10.4,21.4c-5.9,2.6-10.5,7.9-12.4,14.1C90.2,160.9,90.7,161.1,90.8,160.7L90.8,160.7z"/>
			<path class="st6" d="M90.6,162.9c-5.6-0.8,1.2-10,3.1-12.2c7.4-8.8,15.6-4.1,17.2-18.1c0.3-2.7,0.2-4.9,0.2-7.6
				c0-3.4,5.4-3.4,5.4,0c0.1,2-0.8,2.7-0.9,4.3c0,1.7-0.2,3.4-0.4,5c-1,7.4-5,12.6-11.8,14.6c-5.1,2.4-9.1,7.1-10.6,12.4
				C92.4,162.2,91.6,162.9,90.6,162.9z M88.9,160.2C88.9,160.2,88.9,160.2,88.9,160.2C88.9,160.2,88.9,160.2,88.9,160.2z"/>
		</g>
		<g>
			<path class="st6" d="M90.1,160.7c-3.2,7.2-3.2,16,1.1,22.9c0.2,0.3,0.7,0,0.5-0.3c-4.1-6.6-4.3-15.3-1.1-22.3
				C90.8,160.7,90.3,160.4,90.1,160.7L90.1,160.7z"/>
			<path class="st6" d="M91.4,185.3c-2.4-0.5-2.9-4.1-3.9-6c-2-6.1-1.6-12.9,1.2-19.2c0.9-2.2,4.3-0.6,3.3,1.5
				c-0.7,1.5-1.2,3.1-1.5,4.7C87.4,178.6,96.9,184.3,91.4,185.3z"/>
		</g>
		<g>
			<path class="st6" d="M89.8,123.7c7.6-33.7,27.2-41.1,65.5-41.6c29-0.2,53.9,11.9,64.6,38.5c0.2,0.4-0.4,0.7-0.6,0.3
				c-10.8-40.8-83.7-47.5-111.9-27.3C97.9,100.3,94.2,111.4,89.8,123.7z"/>
			<path class="st6" d="M89.9,125.2c-1.2,0-2.2-1.2-1.8-2.4c3.8-13.4,8.3-23.8,17.9-31c30.1-20.4,101-15.8,115.2,28.2
				c0.9,2.2-2.6,3.7-3.5,1.4c-10.4-39.8-82.2-46.3-109.5-26.6c-8.8,6.6-13,16.3-16.6,29C91.5,124.7,90.7,125.3,89.9,125.2z
				 M90.2,122.2l-0.5,1.5L90.2,122.2z"/>
		</g>
		<g>
			<path class="st6" d="M107.5,143.9c1.2,6,0.4,13.1-2.9,18.4c-6.8,5.6-14.3,12.5-12.5,22.3c0.1,0.5,0.2,0.9,0.3,1.4
				c0.1,0.4,0.6,0.2,0.5-0.2c-2.1-7.4,2.2-14.9,7.8-19.5c2.2-1.8,4.7-3.4,5.7-6.2c1.9-4.9,2.6-10.5,1.7-15.7c0-0.2-0.1-0.5-0.2-0.7
				C108,143.4,107.4,143.6,107.5,143.9L107.5,143.9z"/>
			<path class="st6" d="M92.7,187.6c-4-0.8-1.8-11.7,0-14.5c1.6-3.1,4-6,7.2-8.6c2.1-1.7,4-2.8,4.9-5.7c1.5-4.1,2.4-9.9,1.3-14.6
				c-0.3-0.9,0.3-1.8,1.2-2.1c3.5-0.7,2.6,7.1,2.4,10c-0.6,4.6-1.3,8.4-3.9,11.6c-6.8,5.6-14,12.3-11.5,21.6
				C94.7,186.5,93.8,187.7,92.7,187.6z"/>
		</g>
		<g>
			<path class="st6" d="M95.1,134.7c-9.5,4.6-13.9,22.2-6,29.8c0.3,0.2,0.3-0.8,0-1.1c-4.8-4.2-3.6-11.6-2.4-17.3
				c1.3-6,8.3-11.4,13.1-14.6C100.1,131.5,95.4,134.6,95.1,134.7L95.1,134.7z"/>
			<path class="st6" d="M89.2,166.2c-7-3.3-6.2-15.1-4.2-21.5c2.4-7.5,8.6-11.1,14.9-14.8l1.5,0.9c0.3,2-1.3,2.5-2.8,3.5
				c-2.6,2-6.5,5.3-7.6,6.8c-3.8,5.1-5.9,16.7-0.9,21.2C91.5,163.6,90.8,166.2,89.2,166.2z"/>
		</g>
		<path class="st6" d="M103.3,220.2c-3.9,14.1-1.6,22.5,13.6,26.3c0.9,0.2,1.2-1.1,0.4-1.4c-14.3-3.4-16.3-11.4-12.6-24.6
			C104.9,219.7,103.5,219.3,103.3,220.2L103.3,220.2z"/>
		<path class="st6" d="M107,243.1c1.2,1.2,2.5,2.5,4.2,3c1,0.3,3.7,0.1,2.1-1.3c-1.5-0.6-3-1.3-4.4-2.1c-0.8-0.4-1.5,0.8-0.7,1.2
			c1.5,0.9,3.1,1.6,4.8,2.2c0.1-0.5,0.1-0.9,0.2-1.4c-2.1,0.4-3.7-1.3-5-2.7C107.4,241.5,106.4,242.5,107,243.1L107,243.1z"/>
		<path class="st6" d="M94.6,193.6c6.4,7.1,6.9,16.9,6.6,26c0,0.9,1.4,0.9,1.4,0c0.5-9.4-0.3-19.7-7-27C95,192,94,193,94.6,193.6
			L94.6,193.6z"/>
		<path class="st6" d="M98.7,199c2.7,3.7,3.7,8.2,3.4,12.8c2.3,3.5,1.3-6.5,0.8-7.4c-0.6-2.2-1.7-4.2-2.9-6.1
			C99.5,197.5,98.2,198.2,98.7,199L98.7,199z"/>
		<g>
			<g>
				<path class="st8" d="M115.5,165.6c0.9,0,0.9-1.3,0-1.3C114.6,164.3,114.6,165.6,115.5,165.6L115.5,165.6z"/>
			</g>
		</g>
		<path class="st6" d="M149.4,165.2c-4-7.1-12.6-8.8-20-9.5c-5.7-1.3-11.3,1.2-16,4.3c-2.8,2-5.2,4.4-7,7.3c-1.9,3-0.2,7.7,3.6,7.7
			c4.9-0.5,7.8-5.5,11.4-8.3c-0.2,0.2-0.5,0.4-0.7,0.5c1.8-1.4,3.8-2.5,6-3.4c-0.3,0.1-0.6,0.2-0.8,0.4c2.3-1,4.7-1.6,7.2-2
			c-0.3,0-0.6,0.1-0.9,0.1c4,0.4,6.7-4.1,3-6.7c-4.7-1.5-10.1-0.5-14.8,0.7c-4.5,1.4-9.3,3.4-12,7.5c-1.4,2.5-4.2,6.5-2.8,9.3
			c1.3,2.2,4.8,2.3,6.1,0c0.9-1.6,1.8-3.2,2.9-4.6c-0.2,0.2-0.4,0.5-0.5,0.7c0.7-0.9,1.4-1.6,2.3-2.3c-0.2,0.2-0.5,0.4-0.7,0.5
			c2.1-1.4,4-2.9,5.3-5.1c-0.2,0.2-0.4,0.5-0.5,0.7c0.2-0.2,0.3-0.4,0.5-0.6c-0.2,0.2-0.5,0.4-0.7,0.5c0.3-0.2,0.5-0.4,0.9-0.5
			c-0.3,0.1-0.6,0.2-0.8,0.4c1.3-0.5,2.9-0.8,4.3-1c-0.3,0-0.6,0.1-0.9,0.1c3.6,0.3,6.9-2.9,4.1-6.2c-2.3-2.1-5.8-0.5-8.5,0
			c-2.3,0.5-4,2.2-5.2,4.3c0.2-0.2,0.4-0.5,0.5-0.7c-0.3,0.4-0.7,0.8-1.1,1.1c0.2-0.2,0.5-0.4,0.7-0.5c-3.8,2.3-6.4,5.7-8.4,9.6
			c2.1,0.9,4.3,1.8,6.4,2.7c0.3-0.7,0.6-1.5,0.9-2.2c-0.1,0.3-0.2,0.6-0.4,0.8c0.6-1.4,1.3-2.7,2.2-3.9c-0.2,0.2-0.4,0.5-0.5,0.7
			c0.5-0.7,1.1-1.3,1.8-1.8c-0.2,0.2-0.5,0.4-0.7,0.5c1.4-1.1,3-1.9,4.7-2.6c-0.3,0.1-0.6,0.2-0.8,0.4c2.4-1,5-1.7,7.6-2.1
			c-0.3,0-0.6,0.1-0.9,0.1c2.5-0.3,5.1-0.4,7.6-0.1c0-2.3,0-4.7,0-7c-6.5,0.5-12.9,3-17.9,7.4c-2,2.1-4,4.1-6.4,5.7
			c0.2-0.2,0.5-0.4,0.7-0.5c-0.3,0.2-0.6,0.4-0.9,0.5c0.3-0.1,0.6-0.2,0.8-0.4c-0.1,0.1-0.3,0.1-0.4,0.1c0.3,0,0.6-0.1,0.9-0.1
			c-0.1,0-0.2,0-0.3,0c0.3,0,0.6,0.1,0.9,0.1c-0.1,0-0.2,0-0.3-0.1c0.3,0.1,0.6,0.2,0.8,0.4c-0.1,0-0.1-0.1-0.2-0.1
			c0.2,0.2,0.5,0.4,0.7,0.5c-0.1-0.1-0.1-0.1-0.2-0.2c0.2,0.2,0.4,0.5,0.5,0.7c-0.1-0.1-0.1-0.2-0.2-0.3c0.1,0.3,0.2,0.6,0.4,0.8
			c0-0.1-0.1-0.2-0.1-0.4c0,0.3,0.1,0.6,0.1,0.9c0-0.1,0-0.3,0-0.4c0,0.3-0.1,0.6-0.1,0.9c0-0.2,0.1-0.4,0.2-0.6
			c-0.1,0.3-0.2,0.6-0.4,0.8c0.3-0.6,0.7-1.2,1.2-1.8c-0.2,0.2-0.4,0.5-0.5,0.7c1.2-1.5,2.5-2.9,4.1-4.1c-0.2,0.2-0.5,0.4-0.7,0.5
			c1.7-1.3,3.6-2.4,5.6-3.2c-0.3,0.1-0.6,0.2-0.8,0.4c1.4-0.6,2.9-1.2,4.4-1.4c-0.3,0-0.6,0.1-0.9,0.1c2.5-0.3,5,0.3,7.4,0.6
			c-0.3,0-0.6-0.1-0.9-0.1c2.7,0.4,5.4,0.8,7.9,1.9c-0.3-0.1-0.6-0.2-0.8-0.4c1.2,0.5,2.4,1.2,3.5,2c-0.2-0.2-0.5-0.4-0.7-0.5
			c0.8,0.6,1.6,1.4,2.2,2.2c-0.2-0.2-0.4-0.5-0.5-0.7C144.5,172.5,151.6,170.5,149.4,165.2L149.4,165.2z"/>
		<path class="st6" d="M134.9,162.9c2.2,0.7,4.4,1.1,6.6,1.9c-0.3-0.1-0.6-0.2-0.8-0.4c0.3,0.1,0.5,0.3,0.8,0.4
			c-0.2-0.2-0.5-0.4-0.7-0.5c0.2,0.1,0.4,0.3,0.5,0.5c-0.2-0.2-0.4-0.5-0.5-0.7c0.1,0.1,0.2,0.3,0.3,0.4c-0.1-0.3-0.2-0.6-0.4-0.8
			c1,4.7,8,3.1,6.9-1.6c-0.7-2.5-3-4-5.5-4.6c-2.6-0.4-5.3-2.3-7.9-1.1C131.4,158,132,162.2,134.9,162.9z"/>
		<path class="st6" d="M184.5,163.3c0.2,0,0.3,0,0.5,0c-0.4-0.1-0.7-0.1-1.1-0.2c0.5,0.1,1,0.2,1.4,0.4c-0.3-0.1-0.7-0.3-1-0.4
			c3.3,1.5,6.7,3,9.7,5.1c-0.3-0.2-0.6-0.4-0.9-0.7c1.7,1.7,3.4,3.2,5.1,4.9c-0.2-0.3-0.4-0.6-0.7-0.9c0.2,0.2,0.3,0.5,0.5,0.8
			c-0.1-0.3-0.3-0.7-0.4-1c0,0.1,0.1,0.1,0.1,0.2c1-1.7,2-3.4,2.9-5.2c-0.1,0-0.1,0-0.2,0c0.4-0.1,0.7-0.1,1.1-0.2
			c-0.1,0-0.1,0-0.2,0c0.4,0.1,0.7,0.1,1.1,0.2c-0.1,0-0.1,0-0.2-0.1c0.3,0.1,0.7,0.3,1,0.4c-0.1-0.1-0.3-0.1-0.4-0.2
			c0.3,0.2,0.6,0.4,0.9,0.7c-0.2-0.1-0.3-0.3-0.4-0.4c0.2,0.3,0.4,0.6,0.7,0.9c-1.1-1.9-2.9-2.9-4.6-3.9c0.3,0.2,0.6,0.4,0.9,0.7
			c-0.5-0.4-0.9-0.8-1.2-1.2c0.2,0.3,0.4,0.6,0.7,0.9c-4.9-8.7-14.9,2-2.3,8.4c-0.3-0.2-0.6-0.4-0.9-0.7c0.2,0.2,0.4,0.4,0.6,0.6
			c-0.2-0.3-0.4-0.6-0.7-0.9c2.4,4.9,10.7,4.1,9.5-2.1c-1-3.2-4.1-4.8-6.2-7.3c-2.5-2.2-5.6-3.6-8.6-5.1c-2.1-1-4.2-2.2-6.6-2.2
			C179,154.9,179,163.2,184.5,163.3z"/>
		<path class="st6" d="M186.1,163.4c0.3,0,0.5,0.1,0.8,0.1c-0.4-0.1-0.7-0.1-1.1-0.2c1.7,0.2,3.3,0.7,4.9,1.4
			c-0.3-0.1-0.7-0.3-1-0.4c2,0.9,3.9,2,5.7,3.4c-0.3-0.2-0.6-0.4-0.9-0.7c1.1,0.9,2.2,1.8,3.1,3c-0.2-0.3-0.4-0.6-0.7-0.9
			c4.1,8.2,13.7,0.7,5.4-6.5c-4.5-4.1-10.1-7.2-16.3-7.7C180.7,155,180.6,163.4,186.1,163.4z"/>
		<path class="st6" d="M193.4,167.9c5.6,0.1,5.6-8.5,0-8.4C187.9,159.5,187.9,167.8,193.4,167.9z"/>
		<path class="st6" d="M194.8,166.6c-2.6,5.1,3.2,8.2,7.6,8.1c-1.4-1-2.7-2.1-4.1-3.1c0,0,0,0,0,0c0-0.7,0-1.5,0-2.2c0,0,0,0,0,0
			c0.1-0.3,0.3-0.7,0.4-1c0,0,0,0,0,0c0.2-0.3,0.4-0.6,0.7-0.9c0,0,0,0,0,0c0.3-0.2,0.6-0.4,0.9-0.7c0,0-0.1,0-0.1,0.1
			c0.3-0.1,0.7-0.3,1-0.4c-0.1,0-0.1,0-0.2,0c0.4-0.1,0.7-0.1,1.1-0.2c-0.1,0-0.3,0-0.4,0c0.4,0.1,0.7,0.1,1.1,0.2
			c-0.2,0-0.3-0.1-0.5-0.1c0.3,0.1,0.7,0.3,1,0.4c-4.5-3.1-9.6,2.6-5.8,6.6c4.5,4.6,10.7-3.2,5.2-6.5c0.3,0.2,0.6,0.4,0.9,0.7
			c0,0-0.1-0.1-0.1-0.1c0.2,0.3,0.4,0.6,0.7,0.9c0,0,0-0.1-0.1-0.1c0.1,0.3,0.3,0.7,0.4,1c0,0,0,0,0,0c0.1,0.4,0.1,0.7,0.2,1.1
			c0,0,0,0,0,0c-0.1,0.4-0.1,0.7-0.2,1.1c0,0,0,0,0,0c-0.1,0.3-0.3,0.7-0.4,1c0,0,0,0,0,0c-0.2,0.3-0.4,0.6-0.7,0.9c0,0,0,0,0,0
			c-0.3,0.2-0.6,0.4-0.9,0.7c0,0,0,0,0,0c-0.3,0.1-0.7,0.3-1,0.4c0,0,0,0,0,0c-0.4,0.1-0.7,0.1-1.1,0.2c0,0,0,0,0,0
			c-0.4-0.1-0.7-0.1-1.1-0.2c0,0,0.1,0,0.1,0c-0.3-0.1-0.7-0.3-1-0.4c7.6,4.7,12.2-7.5,2.9-7.8c0.4,0.1,0.7,0.1,1.1,0.2
			c-0.8-0.1-1.6-0.3-2.4-0.6c0.3,0.1,0.7,0.3,1,0.4c-0.1-0.1-0.3-0.1-0.4-0.2c0.3,0.2,0.6,0.4,0.9,0.7c-0.1-0.1-0.1-0.1-0.2-0.2
			c0.2,0.3,0.4,0.6,0.7,0.9c0,0-0.1-0.1-0.1-0.1c0.1,0.3,0.3,0.7,0.4,1c0-0.1,0-0.1-0.1-0.2c0.1,0.4,0.1,0.7,0.2,1.1
			c0-0.1,0-0.1,0-0.2c-0.1,0.4-0.1,0.7-0.2,1.1c0,0,0-0.1,0-0.1c-0.1,0.3-0.3,0.7-0.4,1C204.9,166.1,197.7,161.8,194.8,166.6
			L194.8,166.6z"/>
		<path class="st6" d="M167.4,168.9c0-0.8,0-1.6,0.1-2.5c0,0.3-0.1,0.6-0.1,0.9c0.1-0.4,0.2-0.9,0.3-1.3c-0.1,0.3-0.2,0.6-0.4,0.8
			c0.1-0.3,0.3-0.6,0.5-0.9c-0.2,0.2-0.4,0.5-0.5,0.7c0.2-0.2,0.4-0.4,0.6-0.6c-0.2,0.2-0.5,0.4-0.7,0.5c1.5-1,3-2,4.7-2.8
			c-0.3,0.1-0.6,0.2-0.8,0.4c1.8-0.7,3.8-1.1,5.8-1.3c-0.3,0-0.6,0.1-0.9,0.1c3.8-1.2,12.1,1.6,12.4-4c0-1.9-1.6-3.5-3.5-3.5
			c-4,0-8,0.2-12,1c-4.1,0.8-8.3,2.8-11,6c-1.5,2.4-2.2,6.4-0.3,8.8C163.5,173.6,167.5,171.9,167.4,168.9L167.4,168.9z"/>
		<path class="st6" d="M179,162c1.2,0.1,2.4-0.3,3.6-0.1c-0.3,0-0.6-0.1-0.9-0.1c0.3,0,0.5,0.1,0.8,0.2c-0.3-0.1-0.6-0.2-0.8-0.4
			c3,2,6.8-1.7,4.9-4.7c-1.4-2.7-8-2.6-10-0.8C174.3,158.1,176,162.1,179,162z"/>
		<path class="st6" d="M174.3,164c2.6-3.9-3.6-7.7-5.9-3.7C165.7,164.2,172,168,174.3,164L174.3,164z"/>
		<path class="st6" d="M169,167.1c3.6-3.1-1.4-8.4-4.7-5.1C160.6,165,165.6,170.4,169,167.1L169,167.1z"/>
		<path class="st6" d="M162.1,171.4c0.1,0.5,0.4,1,0.6,1.4c0-0.1-0.1-0.2-0.1-0.3c0.1,0.2,0.1,0.3,0.2,0.5c0-0.1,0-0.2-0.1-0.4
			c0,0.1,0,0.2,0,0.3c0-0.1,0-0.2,0.1-0.4c0,0,0,0,0,0c0.9,0.1,1.8,0.2,2.8,0.4c0-0.1,0-0.1,0-0.2c0,0.1,0,0.2-0.1,0.4
			c0-0.3,0.1-0.7,0.2-1c0,0.1-0.1,0.2-0.1,0.3c0-0.1,0.1-0.1,0.1-0.2c-0.1,0.1-0.1,0.2-0.2,0.3c0,0,0.1-0.1,0.1-0.1
			c-0.1,0.1-0.2,0.1-0.3,0.2c0.1,0,0.1-0.1,0.2-0.1c-0.1,0-0.2,0.1-0.3,0.1c1.5-0.3,2.4-2.6,1-3.5c-1.1-0.7-2.5,0.5-2,1.7
			c0-0.1,0-0.2-0.1-0.4c0,0.1,0,0.1,0,0.2c0-0.1,0-0.2,0.1-0.4c0,0.1,0,0.1-0.1,0.2c0-0.1,0.1-0.2,0.1-0.3c0,0.1-0.1,0.1-0.1,0.2
			c0.1-0.1,0.1-0.2,0.2-0.3c0,0-0.1,0.1-0.1,0.1c0.1-0.1,0.2-0.1,0.3-0.2c-0.1,0-0.1,0.1-0.2,0.1c0.1,0,0.2-0.1,0.3-0.1
			c-1.6,0.4-2.4,2.8-1.5,4c2.4,1.6,2.9-1.7,1.8-3.2c0,0.1,0.1,0.2,0.1,0.3C164.7,169,161.7,169.3,162.1,171.4L162.1,171.4z"/>
		<path class="st6" d="M145.2,170.4c0.1,0.5,0.4,1,0.6,1.4c0-0.1-0.1-0.2-0.1-0.3c0.1,0.2,0.1,0.3,0.2,0.5c0-0.1,0-0.2-0.1-0.4
			c0,0.1,0,0.2,0,0.3c0-0.1,0-0.2,0.1-0.4c0,0,0,0,0,0c0.9,0.1,1.8,0.2,2.8,0.4c0-0.1,0-0.1,0-0.2c0,0.1,0,0.2-0.1,0.4
			c0-0.3,0.1-0.7,0.2-1c0,0.1-0.1,0.2-0.1,0.3c0-0.1,0.1-0.1,0.1-0.2c-0.1,0.1-0.1,0.2-0.2,0.3c0,0,0.1-0.1,0.1-0.1
			c-0.1,0.1-0.2,0.1-0.3,0.2c0.1,0,0.1-0.1,0.2-0.1c-0.1,0-0.2,0.1-0.3,0.1c1.5-0.3,2.4-2.6,1-3.5c-1.1-0.7-2.5,0.5-2,1.7
			c0-0.1,0-0.2-0.1-0.4c0,0.1,0,0.1,0,0.2c0-0.1,0-0.2,0.1-0.4c0,0.1,0,0.1-0.1,0.2c0-0.1,0.1-0.2,0.1-0.3c0,0.1-0.1,0.1-0.1,0.2
			c0.1-0.1,0.1-0.2,0.2-0.3c0,0-0.1,0.1-0.1,0.1c0.1-0.1,0.2-0.1,0.3-0.2c-0.1,0-0.1,0.1-0.2,0.1c0.1,0,0.2-0.1,0.3-0.1
			c-1.6,0.4-2.4,2.8-1.5,4c2.4,1.6,2.9-1.7,1.8-3.2c0,0.1,0.1,0.2,0.1,0.3C147.8,168,144.8,168.3,145.2,170.4L145.2,170.4z"/>
		<path class="st6" d="M145.4,201.2c-0.6,0.9,0,1.9,0.6,2.5c1.2,2,1.5,1.1,3.3,1.6c0.1-0.4,0.1-0.9,0.2-1.3c0,0-0.1,0,0,0
			c-0.2,0-0.8,0-0.8,0c-1.1-0.1-1.9-1-2.5-1.6c0,0-0.1-0.1,0,0c0,0,0,0.1,0,0c0-0.1-0.1-0.3,0-0.5c0,0.1,0,0.1,0,0
			c0,0.1-0.2,0.2-0.1,0.1c-0.1,0,0.2,0,0.2,0c0,0,0.2,0,0,0c0.2,0,0.3,0.1,0.5,0.1c1.1,0.5,1.3,2.3,3.3,2c-0.3-0.2-0.6-0.3-0.9-0.5
			c0,0.1,0,0.1,0,0c0,0,0,0.1,0,0.1c0,0,0-0.1,0-0.1c0,0.1,0,0.1,0,0c0.8,0.1,1,0,0.7-0.3c-0.5-0.5-0.5-1.4-0.9-1.9
			c-1-0.7-2.7,0.4-2.8,1.6c-0.1,1.8,3.6,1.5,2.1-0.1c-0.6-0.3-1.2-0.8-1.5-1.1c-0.1-0.1,0-0.1,0,0.1c0,0.3-0.5,0.5-0.8,0.2
			c0.6,0.6,1.6-0.4,1-1c-0.9-0.9-2.2,0.6-1.4,1.5c0.5,0.7,1.3,1.2,2,1.6c0.1-0.4,0.1-0.9,0.2-1.3c-0.1,0-0.3,0-0.3,0
			c-0.2-0.1,0.1,0.1-0.1,0c0.1,0,0.1,0.2,0.1,0.3c0,0,0.1-0.2,0.1-0.1c0.1-0.1,0.1-0.1,0.2-0.2c-0.1,0.1,0.2-0.1,0.3-0.1
			c-0.2,0.1,0.4-0.1,0.2,0c-0.1,0-0.2-0.1-0.2-0.1c1.3,4.9,4.1,0.4,1.7,0.3c0.1,0-0.1,0-0.2,0c-0.2,0,0.1,0-0.1,0
			c-0.2-0.1-0.2-0.1-0.4-0.2c0,0,0,0,0,0c0,0,0,0-0.1,0c-2-3.5-6.3-1.6-3.6,1c3.6,4.1,7.6-0.1,2.4,0.2c0.1,0-0.2,0,0,0
			c0.1,0-0.1,0-0.1,0c0.1,0,0.1,0,0,0c-0.1-0.1,0,0.1,0,0c-0.1-0.1-0.1-0.1-0.2-0.2c-0.1-0.2-0.6-0.9-0.8-1.1
			c-0.2-0.2-0.2-0.3-0.2-0.5c0,0.1,0,0.1,0,0C147.1,201.4,146,200.3,145.4,201.2L145.4,201.2z"/>
		<path class="st6" d="M162.6,204.2c0-0.1,0.3-0.5,0.4-0.7c0-0.1,0,0,0,0c0.4-0.5,0.9-0.9,1.3-1c0.3-0.1,0.8-0.2,0.9-0.2
			c0,0-0.2-0.1-0.2-0.2c0,0,0,0.1,0,0.1c0,0.1,0-0.1,0,0c0,0.1,0,0.2,0,0.2c0-0.1,0,0,0,0.1c0,0.1-0.1,0.3-0.1,0.2
			c-0.1,0.1-0.1,0.3-0.2,0.4c-0.1,0.1-0.4,0.4-0.6,0.4c-0.2,0.1-0.3,0.1-0.5,0.1c0,0,0,0,0,0c-0.2,0-0.3,0-0.5,0
			c-3.1-1.2-2.6,2.5-0.5,0.8c0.1-0.1,0.6-0.3,0.4-0.3c1.3-0.2,4-2.1,1.8-3c-2.1,0.3-0.5,2.5,1.1,1.3c-0.1,0-0.2,0.1-0.4,0.1
			c0,0,0,0,0.1,0c-0.1,0-0.2-0.1-0.4-0.1c0,0,0,0,0,0c-0.1-0.1-0.2-0.2-0.3-0.3c0.2,0.4,0.4,1.3,1.1,1.1c0.3-0.1,0.6-0.5,0.5-0.9
			c-0.2-0.8-0.9-1.8-1.7-1.1c0.1,0-0.1,0-0.1,0c-0.1,0,0.1,0,0,0c-0.1,0,0.1,0,0,0c-0.1,0-0.1,0-0.2-0.1c0.2,0.2,0.3,0.5,0.5,0.7
			c0,0.3-0.3,0.6-0.7,0.5c-0.1-0.2-0.2-0.4-0.4-0.5c0,0,0,0,0,0.1c0.1-0.1-0.1,0.1-0.1,0.1c-0.2,0.3-1.1,0.5-1.9,0.8
			c-0.3,0.2-1.4,0.8-0.3,0.5c0,0.4,0,0.8,0,1.2c0,0,0,0-0.1,0c0,0,0.1,0,0.1,0c3.1,1.5,6.2-3.2,3.2-3.9c-1.7,0-3.3,1.4-3.9,2.9
			C161,204.7,162.4,205.1,162.6,204.2L162.6,204.2z"/>
		<path class="st6" d="M142.1,221.7c0.5-0.5,1-1,1.5-1.4c-0.3,0.2-0.3,0.3-0.2,0.2c1-0.7,2-1.4,3.2-1.8c-0.2,0.1-0.3,0.1-0.5,0.2
			c1.2-0.5,2.4-0.8,3.7-1c-0.2,0-0.4,0.1-0.6,0.1c3.5-0.4,7.3,0.7,10.3-1.6c-0.2,0.1-0.3,0.1-0.5,0.2c0.3-0.1,0.7-0.2,1-0.3
			c-0.2,0-0.4,0.1-0.6,0.1c0.3,0,0.7,0,1,0c-0.2,0-0.4-0.1-0.6-0.1c0.9,0.2,1.7,0.1,2.6-0.1c-0.2,0-0.4,0.1-0.6,0.1
			c0.1,0,0.2,0,0.3,0c-0.2,0-0.4-0.1-0.6-0.1c0.2,0,0.3,0.1,0.5,0.1c-0.2-0.1-0.3-0.1-0.5-0.2c0.6,0.3,1.9,1.6,3.2,2.2
			c0.6,0.3,1.2,0.6,1.7,1c0.3,0.2-0.3-0.3-0.1-0.1c0.2,0.1,0.3,0.3,0.5,0.5c0.2,0.2-0.1-0.1-0.1-0.2c0.1,0.2,0.3,0.4,0.4,0.6
			c-0.1-0.2-0.1-0.3-0.2-0.5c0,0.1,0.1,0.2,0.1,0.3c1-0.8,2.1-1.6,3.1-2.4c-1.7-3.3-7.9-3-12-2.1c0.2,0,0.4-0.1,0.6-0.1
			c-2.6,0.3-5.2,0.4-7.8,0.2c0.2,0,0.4,0.1,0.6,0.1c-0.4-0.1-0.7-0.1-1.1-0.3c0.2,0.1,0.3,0.1,0.5,0.2c-0.2-0.1-0.4-0.2-0.6-0.3
			c-0.7,1.2-1.4,2.4-2.1,3.6c4.6,2.1,10.1,2.6,14.7,0.1c-0.2,0.1-0.3,0.1-0.5,0.2c0.1,0,0.2-0.1,0.3-0.1c-0.2,0-0.4,0.1-0.6,0.1
			c0.2,0,0.4,0,0.5,0c-0.2,0-0.4-0.1-0.6-0.1c1,0.2,2.1,0.2,3.1,0.5c-0.2-0.1-0.3-0.1-0.5-0.2c0.1,0,0.1,0.1,0.2,0.1
			c-0.3-0.2-0.3-0.2-0.2-0.1c1.5,1.5,3.2,2.8,5.1,3.8c1.4,0.8,3.2-0.2,3.2-1.8c-0.7-2.5-3.2-4.2-4.9-6.1c-1.9-1.9-4.9,1.1-3,3
			c1.6,1.4,3,2.9,4.3,4.6c0.8-1.1,1.7-2.2,2.5-3.3c-2.2-1.1-2.9-2-4.8-3.6c-2.3-1-5.4-1.5-7.6,0c0.2-0.1,0.3-0.1,0.5-0.2
			c-0.9,0.4-1.8,0.6-2.8,0.8c0.2,0,0.4-0.1,0.6-0.1c-1.2,0.2-2.5,0.1-3.7,0c0.2,0,0.4,0.1,0.6,0.1c-1.6-0.2-3.1-0.7-4.6-1.3
			c0.2,0.1,0.3,0.1,0.5,0.2c-2.4-1.5-4.8,1.9-2.3,3.5c4.1,2,9.1,0.7,13.4,0.3c-0.2,0-0.4,0.1-0.6,0.1c1.6-0.2,3.3-0.2,5,0
			c-0.2,0-0.4-0.1-0.6-0.1c0.3,0,0.6,0.1,0.8,0.2c-0.2-0.1-0.3-0.1-0.5-0.2c0.1,0.1,0.3,0.2,0.4,0.2c2.7,4.5,8.1,0.8,2.7-3.6
			c-1-0.8-2.2-1.2-3.2-1.9c-0.4-0.2,0.3,0.3,0.1,0c-1.3-1.3-3.1-2.4-5-1.7c0.2,0,0.4-0.1,0.6-0.1c-0.1,0-0.2,0-0.4,0
			c0.2,0,0.4,0.1,0.6,0.1c-2-0.4-3.9,0.1-5.5,1.3c0.2-0.1,0.3-0.1,0.5-0.2c-0.4,0.2-0.9,0.2-1.3,0.3c0.2,0,0.4-0.1,0.6-0.1
			c-6-0.2-12.4,0.4-16.6,5.2C137.2,220.6,140.2,223.6,142.1,221.7L142.1,221.7z"/>
		<path class="st6" d="M163.1,215.5c0.2-0.2,0.1-0.1-0.2,0.1C163,215.6,163,215.6,163.1,215.5c-0.2,0.1-0.3,0.2-0.5,0.3
			c0.1,0,0.2-0.1,0.3-0.1c-0.2,0-0.4,0.1-0.6,0.1c0.1,0,0.2,0,0.3,0c-0.2,0-0.4-0.1-0.6-0.1c0.2,0,0.4,0.1,0.6,0.2
			c-0.2-0.1-0.3-0.1-0.5-0.2c1.1,0.5,2,1.2,2.9,1.9c0.3,0.2,0.1,0-0.1-0.1c2.1,1.1,4,5.5,6.6,3.4c2.6-2.9-5-7.2-7-8.7
			C158.2,209.2,158.2,218.4,163.1,215.5L163.1,215.5z"/>
		<path class="st6" d="M159.9,214.7c-2.1-0.6-4.8-3.8-6.6-1.2c-0.6,1-0.2,2.3,0.8,2.9c1.7,0.8,3.4,2.4,5.3,2.2
			C161.2,218.2,161.5,215.6,159.9,214.7L159.9,214.7z"/>
		<path class="st6" d="M143.4,220.8C143.4,220.7,143.4,220.7,143.4,220.8c-0.1,0.1-0.2,0.2-0.3,0.4c0.1-0.1,0.1-0.1,0.2-0.2
			c-0.1,0.1-0.3,0.2-0.4,0.3c0.9-0.4,1.5-0.9,2-1.7c-0.1,0.1-0.2,0.3-0.3,0.4c0.1-0.1,0.2-0.2,0.3-0.3c-0.1,0.1-0.3,0.2-0.4,0.3
			c0.2-0.2,0.5-0.3,0.8-0.4c-0.2,0.1-0.3,0.1-0.5,0.2c0.8-0.3,1.6-0.5,2.4-0.7c-0.2,0-0.4,0.1-0.6,0.1c5,0.7,5.3-4.5,0.7-4.8
			c-2.9,0-2.6,4.6,0.3,4.2c-0.2,0-0.4-0.1-0.6-0.1c0.1,0,0.3,0.1,0.4,0.1c-0.2-0.1-0.3-0.1-0.5-0.2c0.1,0,0.2,0.1,0.3,0.2
			c-0.1-0.1-0.3-0.2-0.4-0.3c0.1,0.1,0.2,0.2,0.3,0.3c0.5-1.2,1-2.4,1.5-3.6c-2.6-0.1-5.8,0.4-7.4,2.8c0.1-0.1,0.2-0.3,0.3-0.4
			c-0.1,0.1-0.1,0.2-0.2,0.2c0.1-0.1,0.3-0.2,0.4-0.3C137.4,218.6,140.4,224.1,143.4,220.8L143.4,220.8z"/>
		<path class="st6" d="M145.1,220.4c2.4-0.9,2.8-4.3-0.1-4.6C141,216.2,140.8,221.8,145.1,220.4L145.1,220.4z"/>
		<path class="st6" d="M143.4,220.2c0.2-0.5,0.6-1,0.9-1.5c-0.2,0.3-0.3,0.3-0.1,0.2c0.6-0.7,1.2-1.3,1.9-1.8c-0.5,0.4-0.1,0.1,0,0
			c0.5-0.3,1-0.6,1.5-0.9c-0.2,0.1-0.3,0.1-0.5,0.2c0.5-0.2,1-0.3,1.5-0.4c-0.2,0-0.4,0.1-0.6,0.1c1.1-0.1,2.2,0,3.3,0.1
			c-0.2,0-0.4-0.1-0.6-0.1c2.4-0.1,7,2.3,8.1-0.7c0.6-3.1-3.3-2.7-5.4-3.1c-4-0.9-8.4-0.6-11.3,2.6
			C136.9,219.4,141,223.1,143.4,220.2L143.4,220.2z"/>
		<path class="st6" d="M137.8,223.9c1.1-1,2.7-1.3,3.5-2.6c0.3-2.1-2.8,0.7-3.5,1c0.2,0.3,0.4,0.6,0.6,0.8c0.6-0.9,2.9-2,2.8-3.1
			c-1.1-1.2-2.1,1.1-2.8,1.7c0.2,0.2,0.5,0.5,0.7,0.7c0.4-0.6,3.3-3.6,1-2.9c-0.6,0.7-1.3,1.4-2,2c0.3,0.2,0.6,0.4,0.8,0.6
			c0.6-0.9,1.3-1.7,2.1-2.5c0.7-1.6-1.8-0.8-2,0.2c-0.4,0.6-1,1.9,0.2,1.9c1.4-0.5,2.3-2.2,3.2-3.3c-0.3-0.2-0.6-0.4-0.9-0.5
			c-0.6,1-1.3,1.9-2,2.9c-0.1,2.1,2.3-0.8,3-1.2c-0.3-0.2-0.6-0.3-0.9-0.5c-0.4,0.8-1.5,1.1-1.8,2c0.1,1.6,2.1-0.2,2.8-0.5
			c0.6-0.3,0.1-1.2-0.5-0.9c-0.5,0.3-1,0.5-1.5,0.8c0.2,0.3,0.4,0.6,0.6,0.8c0.3-0.4,0.7-0.7,1.1-1c-0.2-0.3-0.4-0.6-0.5-0.9
			c-0.7,0.6-2.1,1-2.2,2c0,0.1,0,0,0.1-0.1c-1.3,1.5,2.3,1,2-0.2c-0.3-0.9-1.3-0.3-1.7,0.2c0.3,0.2,0.6,0.3,0.9,0.5
			c1.3-1.3-0.7-1.7-1-0.3c-0.1,0.8,0.8,0.8,1.2,0.2c0.2-0.2,0,0-0.2-0.1c-0.1-0.1-0.1-0.1-0.2-0.2c0,0,0,0,0,0c0-0.1,0-0.2-0.1-0.3
			c0,0,0,0,0,0c0-0.1,0-0.2,0.1-0.3c0.2-0.2-0.7,0.3-0.9,0.3c0.1,0.3,0.3,0.6,0.4,1c0.3-0.1,0.4-0.5,0.4-0.7c-0.1,0,0.1,0,0.1,0
			c0.5-0.4,1.1-0.7,1.6-1.1c0.6-0.4,0.1-1.2-0.5-0.9c-2.5,1.5-1.6,2.9,0.8,1.2c-0.2-0.3-0.4-0.6-0.5-0.9c-0.7,0.4-1.3,0.7-2.1,1.1
			c0.3,0.2,0.5,0.4,0.8,0.6c0.3-0.8,2.5-1.6,1.5-2.6c-1.1-0.1-1.9,1.4-2.8,1.9c0.3,0.2,0.6,0.4,0.8,0.6c0.4-0.9,2.6-2.7,1.8-3.6
			c-0.3-0.2-0.6,0-0.7,0.2c-0.7,1-1.5,2-2.4,2.8c0,0,0.1,0,0,0c0.1,0,0.3,0,0.4,0.2c0,0.1,0,0.2,0.1,0.3c0.1-0.2,0.4-1.4,1-1.4
			c-0.1-0.3-0.2-0.6-0.2-0.9c-3.2,2.7-3,5.5,0.5,1.3c-0.2-0.2-0.5-0.5-0.7-0.7c-0.4,0.9-2.2,1.9-1.7,2.9c0.9,0.6,1.6-1.3,2.3-1.8
			c0-0.1,0.1,0-0.1,0c-0.1-0.1-0.2-0.1-0.3-0.2c0-0.2,0.1-0.4,0.1-0.6c-0.9,0.8-1.8,1.6-2.7,2.5c-0.7,2.2,2.7-0.6,3.4-0.9
			c-0.2-0.2-0.5-0.5-0.7-0.7c-0.8,1.2-2.4,1.4-3.3,2.4C136.5,223.7,137.3,224.4,137.8,223.9L137.8,223.9z"/>
		<path class="st6" d="M169.6,222c2.5,1.9,5.7,3.2,2.4-1c-0.3-0.6-1.2-0.1-0.9,0.5c1.2,2.4,2.9,2.1,1.7-0.7c-0.3,0.1-0.6,0.3-1,0.4
			c1.3,2.8,2.3,0.1,0.2-1.2c-1.3-0.4-0.7,1.4-0.2,2c0.2-0.3,0.3-0.5,0.5-0.8c-0.1,0,0,0,0,0c0,0-0.1-0.1-0.1,0c0.1,0-0.1,0,0,0
			c-0.4-0.5-1.3,0.1-0.8,0.7c0.4,0.6,1.7,0.4,1.3-0.4c-0.2-0.3-0.4-0.7-0.4-1c-0.3,0.2-0.5,0.3-0.8,0.5c0,0,0.4,0.4,0.4,0.5
			c0.1,0.1,0.2,0.3,0.2,0.4c0,0.1,0,0.1,0.1,0.2c0.3-0.1,0.6-0.3,1-0.4c-0.4-0.4-0.5-1.4-1.2-1.1c-0.7,0.4,0.1,1.3,0,1.9
			c0-0.1,0,0.2,0,0.2c0.3-0.2,0.5-0.3,0.8-0.5c-0.1-0.1-0.4-0.4-0.5-0.6c-0.1-0.1-0.3-0.5-0.4-0.7c-0.3,0.2-0.6,0.4-0.9,0.5
			c0.5,0.8,1,1.5,1.5,2.2c0.2-0.3,0.3-0.6,0.5-0.9c-1-0.3-2-1-2.8-1.5C169.9,220.7,169.1,221.5,169.6,222L169.6,222z"/>
		<path class="st6" d="M169.7,222.2c0.6,0.6,1.4,1,2.2,1.3c-0.1-0.1,0.1,0,0.1,0.1c0.1,0,0-0.1,0,0c0,0,0,0.1,0.1,0.1
			c0,0-0.1-0.1,0,0c0,0.1,0-0.1,0,0c0.3-0.2,0.5-0.4,0.8-0.6c-0.8-0.2-2-1.6-2.7-0.9c-0.3,1.1,1.6,1.2,2.2,1.8
			c0.4,0.2,0.9-0.1,0.8-0.6c-0.4-1-1.6-0.8-2.3-1.5C170.4,221.1,169.1,221.1,169.7,222.2L169.7,222.2z"/>
		<path class="st6" d="M170.2,222.9c0.9,0.4,3.8,2.7,4.4,1.5c0.1-1-3-1.6-3.8-2.4C170.1,221.6,169.6,222.6,170.2,222.9L170.2,222.9z
			"/>
		<g>
			<path class="st6" d="M194,176.5c-2.9-10.3-23.6-11.7-25.7-0.3c0,0.2-0.3,0.1-0.3-0.1C170,164.1,192.6,166.2,194,176.5L194,176.5z
				"/>
			<path class="st6" d="M194.1,177.6c-0.4,0-0.8-0.3-1-0.7l0,0c-2.5-9.5-22-10.9-23.8-0.6c-0.2,1.5-2.5,1.1-2.2-0.4
				c1.9-11.3,20.5-11.6,26.3-3.3C193.9,173.8,196.7,177.1,194.1,177.6z"/>
		</g>
		<g>
			<path class="st6" d="M194.5,176.9c-2.2,2.4-5.9,2.5-8.9,2.9c-6.1,0.9-12.3-0.6-17.9-3.2c-0.2-0.1,0.6-0.5,0.8-0.4
				c6.4,3.6,13.9,4.3,21,2.6c1.7-0.4,3.3-1.1,4.6-2.5c0.1-0.2,0.4,0.1,0.2,0.2L194.5,176.9z"/>
			<path class="st6" d="M181.9,180.6c-2.6,0-5.8-0.4-8-1.1c-0.8-0.4-7.2-1.8-6.7-3.2c0.2-0.4,1.1-0.8,1.5-0.6
				c4.7,2.6,10.3,3.9,15.9,3.3c3.4-0.4,6.9-0.8,9-3.1c0.4-0.5,1.2-0.1,1.2,0.5l0.4,0.5C191.9,180.6,186.4,180.2,181.9,180.6z"/>
		</g>
		<g>
			<path class="st6" d="M167.7,175.8c-0.7-5.8,4.5-13.9,10.1-13.1c-6.1,0.7-10.3,7.2-9.8,13.1C168.1,176,167.7,176,167.7,175.8
				L167.7,175.8z"/>
			<path class="st6" d="M167.9,176.5c-0.4,0-0.7-0.3-0.8-0.7l0,0c-0.5-6.1,3.8-13.6,10.6-13.9c0.9-0.1,1.2,1.2,0.2,1.3
				c-4.5,0.5-7.9,4.4-9,8.8C168.3,173.1,169.3,176.5,167.9,176.5z M168.3,175.7C168.3,175.7,168.3,175.7,168.3,175.7
				C168.3,175.7,168.3,175.7,168.3,175.7z"/>
		</g>
		<g>
			<path class="st6" d="M194.4,176.1c-0.4-3.9-1.3-8.3-5-10.5c-0.2-0.1,0-0.4,0.2-0.3c3.5,2.4,5.5,6.9,5.2,11.1
				C194.9,176.6,194.5,176.3,194.4,176.1L194.4,176.1z"/>
			<path class="st6" d="M194.8,176.8c-0.3,0-0.6-0.3-0.6-0.6l0,0c-0.4-4.8-1.5-7.7-5-10.7c0.7-1.7,4.1,3,4.3,3.8
				c1.2,2.2,1.9,4.6,1.7,7.2C195.1,176.7,195,176.7,194.8,176.8z M194.6,176.4C194.6,176.4,194.6,176.4,194.6,176.4
				C194.6,176.4,194.6,176.4,194.6,176.4z M194,171.7c0.3,1.1,0.4,2.3,0.6,3.4C194.7,173.8,194.4,172.8,194,171.7z"/>
		</g>
		<g>
			<path class="st6" d="M194.8,179.9c-5.3,5.2-14.7,5.3-21.2,2.6c-1.9-0.3-4.4-3.3-6.1-2.1c-0.9,1.9,1.5,3.8,2.7,5
				c2.3,1.8,5.2,2.7,8,3.1c0.5,1.2-6.9-1.5-7.4-2.2c-1.6-1.2-4.8-3.9-3.5-6c1-1.1,2.7,0.1,3.6,0.6
				C178.1,185.3,188.7,184.7,194.8,179.9L194.8,179.9z"/>
			<path class="st6" d="M178.1,189.2c-12-1.1-15.1-13.2-7.3-8.9c7,4.3,17.4,4.5,23.9-1.1c1.8,0.8-1.6,2.8-2.8,3.3
				c-6,2.6-12.7,2.9-18.6,0.3c-1.6-0.2-4.1-2.9-5.7-2.2c-0.5,1.6,1.5,3.3,2.6,4.4c1.9,1.5,4.5,2.5,7.8,3
				C178.9,188.1,178.8,189.2,178.1,189.2z"/>
		</g>
		<g>
			<path class="st6" d="M172.7,178.3c-3.8-1-2.7-6.6-0.3-8.5c0.2-0.1,0.3,0.2,0.2,0.3C170.4,171.8,169.3,177.2,172.7,178.3"/>
			<path class="st6" d="M172.6,178.7C172.6,178.7,172.6,178.7,172.6,178.7L172.6,178.7c-3-0.8-3.4-4.4-2.1-7c0.5-1,1.4-2.9,2.5-2.1
				c0.4,1-1.2,1.3-1.4,2.6c-0.9,1.9-1.1,5.1,1.2,5.7L172.6,178.7z"/>
		</g>
		<g>
			<path class="st6" d="M117.2,176.4c2.9-10.3,23.6-11.7,25.7-0.3c0,0.2,0.3,0.1,0.3-0.1C141.2,164.3,119.2,165.6,117.2,176.4
				L117.2,176.4z"/>
			<path class="st6" d="M116.6,177.6c-1.4-1.3,0-3.7,0.7-4.7c5.6-8.8,25-8.7,26.9,3c0.3,1.6-2.3,2.1-2.5,0.4
				c-1.4-7.8-11.8-8-17.7-5.7c-3,1.2-5,3.9-6,6.9C117.6,177.5,117,177.6,116.6,177.6z"/>
		</g>
		<g>
			<path class="st6" d="M116.7,176.8c2.2,2.4,5.9,2.5,8.9,2.9c6.1,0.9,12.3-0.6,17.9-3.2c0.2-0.1-0.6-0.5-0.8-0.4
				c-6.4,3.6-13.9,4.3-21,2.6c-1.7-0.4-3.3-1.1-4.6-2.5c-0.1-0.2-0.4,0.1-0.2,0.2L116.7,176.8z"/>
			<path class="st6" d="M129.3,180.5c-4.5-0.4-10,0-13.3-3.7l0.4-0.5c0-0.6,0.8-1,1.2-0.5c3.5,3.3,9.7,3.3,14.5,3
				c3.9-0.3,6.6-1.4,9.8-3c0.7-0.5,1.5-0.3,1.8,0c2,1.5-5.9,3.1-6.4,3.5C135.1,180,131.9,180.5,129.3,180.5z"/>
		</g>
		<g>
			<path class="st6" d="M143.4,175.7c0.7-5.8-4.5-13.9-10.1-13.1c6.1,0.7,10.3,7.2,9.8,13.1C143.1,175.9,143.4,175.9,143.4,175.7
				L143.4,175.7z"/>
			<path class="st6" d="M143.2,176.4c-1.3,0-0.4-3.5-1-4.5c-1-4.4-4.5-8.3-9-8.8c-1-0.1-0.7-1.4,0.2-1.3c6.7,0.4,11.1,7.8,10.6,13.9
				v0C144,176.1,143.6,176.4,143.2,176.4z M142.9,175.6C142.9,175.6,142.9,175.6,142.9,175.6C142.9,175.6,142.9,175.6,142.9,175.6z"
				/>
		</g>
		<g>
			<path class="st6" d="M116.7,176c0.4-3.9,1.3-8.3,5-10.5c0.2-1.5-3.8,3.1-3.7,3.7C117.4,169.6,115.9,177.5,116.7,176L116.7,176z"
				/>
			<path class="st6" d="M116.5,176.6c-1-0.6,0.7-6.8,1.2-7.5c0.5-1,2.9-4.7,4.3-4c0.1,0.2,0.1,0.5-0.1,0.6
				c-3.6,2.2-4.4,6.4-4.8,10.3l0,0C116.9,176.3,116.7,176.5,116.5,176.6z"/>
		</g>
		<g>
			<path class="st6" d="M116.3,179.8c5.3,5.2,14.7,5.3,21.2,2.6c1.9-0.3,4.4-3.3,6.1-2.1c0.9,1.9-1.5,3.8-2.7,5
				c-2.3,1.8-5.2,2.7-8,3.1c-0.5,1.2,6.9-1.5,7.4-2.2c1.6-1.2,4.8-3.9,3.5-6c-1-1.1-2.7,0.1-3.6,0.6
				C133.1,185.2,122.4,184.5,116.3,179.8L116.3,179.8z"/>
			<path class="st6" d="M133.1,189.1c-0.7,0-0.8-1.1-0.1-1.1c3.3-0.5,5.9-1.5,7.8-3c1.3-0.7,4.9-5.8,1.1-4.2
				c-2.7,1.7-5.8,2.9-8.8,3.5c-5.2,0.8-13.2,0.1-17-4.2h0c-0.4-0.6,0.5-1.3,1-0.6c6.2,5.6,16.6,4.8,23.4,0.8
				C148.2,175.8,145,188,133.1,189.1z M116.7,179.5C116.7,179.5,116.7,179.5,116.7,179.5C116.7,179.5,116.7,179.5,116.7,179.5
				L116.7,179.5z"/>
		</g>
		<g>
			<path class="st6" d="M138.4,178.2c3.8-1,2.7-6.6,0.3-8.5c-0.2-0.1-0.3,0.2-0.2,0.3C140.8,171.7,141.8,177,138.4,178.2"/>
			<path class="st6" d="M138.5,178.6l-0.2-0.8c2.4-0.6,2.1-3.8,1.2-5.7c-0.3-1.2-1.8-1.6-1.4-2.6c1.1-0.8,1.9,1.1,2.5,2.1
				C141.9,174.1,141.6,177.8,138.5,178.6L138.5,178.6C138.6,178.6,138.6,178.6,138.5,178.6z"/>
		</g>
		<path class="st6" d="M92.7,179.8c0-0.3-0.1-0.6-0.1-0.8c0-0.1-0.1-0.5,0-0.2c-0.5-3.5-0.2-7.3,1-10c0.5-1.2,1.5-2.7,2.1-3.5
			c4.6-4.2,7-10.3,7.4-16.4c0-1.8-2.8-1.8-2.8,0c0,1.1-0.1,1.6-0.4,2.8c-0.5,3.4-1.8,6.3-3.7,9c-3.1,2.8-5.9,6.9-6.4,11.4
			c-0.1,1.9-1.1,10.2,2,9.5C92.5,181.3,92.8,180.6,92.7,179.8L92.7,179.8z"/>
		<path class="st6" d="M90.2,161.1c-0.5-3.7,0-8,1.2-10.8c0.9-2.1,2.2-3.9,3.7-5c6.4-3.9,13.4-6.8,12.5-15.8c0-1.8-2.8-1.8-2.8,0
			c0.1,0.9,0.1,1.8,0,2.6c0.1-0.3,0-0.1,0,0c-0.1,0.9-0.4,1.7-0.7,2.5c0.1-0.3,0,0,0,0.1c-0.3,0.6-0.6,1.2-1,1.7
			c-0.1,0.1-0.3,0.4-0.1,0.2c-0.5,0.7-1.2,1.3-1.9,1.9c-2.8,2-7.9,3.8-10.3,7.3c-3.2,4.3-3.9,10.1-3.4,15.3
			C87.4,162.9,90.2,162.9,90.2,161.1L90.2,161.1z"/>
		<path class="st6" d="M206.9,148.2c-1.4,3.3-0.1,7.5,2,10.2c1.2,1.4,4.2,3,5,3.6c2.1,1.8,3.4,3.6,4.6,6.2c0.2,0.4,1,2.8,1.1,4
			c0.2,1.4,0.1,4.2-0.5,6c2.2,8.2,9.2-12.3-7.4-21c-0.4-0.3-0.7-0.7-1.1-1c0.1,0,0.2,0.2,0.1,0.1c-0.4-0.5-0.6-1-0.9-1.6
			c0-0.1-0.1-0.2,0,0.1c-0.4-0.9-0.6-1.8-0.8-2.7c0-0.2,0-0.1,0,0c-0.2-1.2,0-2.2,0.2-2.5C210.2,148.1,207.8,146.7,206.9,148.2
			L206.9,148.2z"/>
		<path class="st6" d="M203.7,131.8c0.1,8,6.4,12.2,12.1,15.5c1.2,0.9,2.2,1.9,3.1,3.1c1.4,1.7,3.1,5.7,3.3,7.9
			c0.1,0.7,0.6,1.4,1.4,1.4c4.2-0.7-2.4-11.9-4.4-13.2c-2.1-2.1-5.6-3.8-7.7-5.4c-0.9-0.7-1.6-1.5-2.3-2.3c-1.1-1.4-2.2-3.8-2.5-6.1
			C206.9,130.3,204.2,129.4,203.7,131.8L203.7,131.8z"/>
		<path class="st6" d="M212,135.3c-1.6,4.2,3.7,6.9,6.2,8.4c0.8,0.7,1.6,1.4,2.2,2.2c1,1.2,2,3.4,2.3,5.5c0.1,0.4,0.1,2.6,0,3
			c-0.1,0.9-0.6,2.7-0.8,3.1c-1.1,1.6,1.3,3.3,2.3,1.6c3.8-8-0.6-16.7-8.3-20.2c0.1,0.1,0.1,0.1,0.1,0.1c-0.3-0.2-0.6-0.5-0.8-0.8
			c-0.2-0.3,0.1,0.2,0,0c-0.1-0.1-0.6-1.1-0.4-0.7c-0.1-0.1-0.1-0.4-0.2-0.6c-0.1-0.3,0,0.3,0,0c0-0.1,0-0.3,0-0.4
			C215.5,135.1,213.2,133,212,135.3L212,135.3z"/>
		<path class="st6" d="M198.4,110.5c-3.8,2.3,4.4,11.2,6.5,13.2c2.5,2.4,6.6,4,9.2,5c2,0.8,4,2.1,4.9,3.4c0.5,0.7,0.9,1.4,1.3,2.2
			c0,0.1,0.1,0.2,0,0c0.4,0.9,0.6,1.8,0.7,2.7c-0.3,2.4,2.5,3.1,2.9,0.8c0-7.1-6.2-11.3-12-13c-1.4-0.5-3.4-1.8-4.2-2.4
			c-3.4-2.7-6.3-6.7-7.8-10.1c0.1,0,0,0.3,0,0.1c0-0.1,0.1-0.3,0,0.1c0-0.1,0.1-0.2-0.1,0.1c0,0.1-0.5,0.4-0.2,0.3
			C201.4,112,200,109.6,198.4,110.5L198.4,110.5z"/>
		<path class="st6" d="M172.9,128.7c9.6-1.3,15.9-8,18.7-17c1.9-6.5,4.8-13.3,3.2-20.1c-0.5-1.7-3.2-1-2.7,0.7
			c1.4,6.4-1.9,14.5-4.1,20.8c-2.1,4.8-4.9,8.8-9.5,11c-1.5,0.7-4.3,1.4-6.4,1.9C170.4,126.4,171.2,129.2,172.9,128.7z"/>
		<path class="st6" d="M193.6,94.6c0.9,3.1,5.7,20.1,10.4,16.3c0.8-1.6-1-2.1-1.5-2.6c-1.3-1.3-2.5-4.1-3.3-5.7
			c-1.1-2.8-1.9-5.8-2.9-8.7C195.8,92.1,193.1,92.8,193.6,94.6L193.6,94.6z"/>
		<path class="st6" d="M186.6,99.5c0.4-3.9,0.2-7.9-0.7-11.7c-0.2-0.7-1-1.2-1.7-1c-2,0.8-0.4,3.1-0.4,4.6c0.3,2.1,0.4,5.5,0.1,8.1
			C183.7,101.3,186.5,101.3,186.6,99.5L186.6,99.5z"/>
		<path class="st6" d="M172.9,99.5c-0.1-5-0.8-10-2.6-14.8c-0.5-1.7-3.2-1-2.7,0.7c0.8,2.5,1.6,4.9,1.9,7.5c0.2,1.4,0.5,4.6,0.5,6.6
			C170.1,101.3,172.9,101.3,172.9,99.5L172.9,99.5z"/>
		<path class="st6" d="M158.1,95.2c0.1-3.4-0.9-7.6-1.7-10.5c-0.1-0.4-0.1-0.8,0-1.3c0.1-0.2,0-1.6-1-1.7c-4.1,0.1-0.3,7-0.4,9.3
			c0.5,1.1-0.6,5.4,1.7,5.5C157.4,96.6,158.1,96,158.1,95.2L158.1,95.2z"/>
		<path class="st6" d="M115.2,103.6c0.4-2.2,3-13.8-0.2-13.9c-0.7,0-1.4,0.6-1.4,1.4c0.1,2.5,0,5-0.3,7.5c0.2,1.2-2,5.3,0.2,6
			C114.2,104.8,115.1,104.4,115.2,103.6L115.2,103.6z"/>
		<path class="st6" d="M123.3,132.6c4.2-0.1,7.9-2.4,11-5.1c9.2-7.7,13.7-19.3,15.2-31c0.6-4.7,0.5-9.6-1.1-14.1
			c-0.5-1.7-3.2-1-2.7,0.7c0.5,1.3,1,3.7,1.1,4.5c0.4,2.7,0.2,6.5-0.1,8.7c-0.8,5-1.9,10-3.8,14.6c-1,2.5-3.1,6.2-5.1,8.8
			c-1.3,1.8-4.7,5.3-6.6,6.7c-1.1,0.9-3.2,2.1-4,2.5c-0.9,0.4-1.8,0.6-2.8,0.8C121.6,129.4,121,132.2,123.3,132.6z"/>
		<path class="st6" d="M141,130.7c7.3-1,13-6.9,17.4-12.5c4.5-6.5,5.8-14.6,6.7-22.3c0.2-4.3-0.6-8.7-1.8-12.8
			c-0.5-1.7-3.2-1-2.7,0.7c0.7,2.5,1.2,5,1.5,7.5c0.7,4.5-0.5,9.5-1.6,14.3c-0.9,4.3-2.6,8.7-5.1,11.7c-3.2,3.9-7.3,7.7-11.3,9.5
			c-1,0.4-2.1,0.7-3.2,0.9C139.6,127.8,138.8,130.4,141,130.7z"/>
		<path class="st6" d="M115.2,132.1c8.6-5.6,14.5-14.6,18.3-24c3.4-7.6,3.2-15.9,2.6-24c0-0.7-0.6-1.4-1.4-1.4
			c-0.7,0-1.4,0.6-1.4,1.4c0.2,4.4,0.6,8.7,0.2,13.1c-0.2,3.1-1.8,8.1-3,10.8c-1.8,4.4-4.9,9.4-7.4,12.7c-1.9,2.6-5.1,5.9-7.2,7.4
			c-1,1-3.6,1.6-2.7,3.4C113.7,132.2,114.6,132.5,115.2,132.1L115.2,132.1z"/>
		<path class="st6" d="M89.6,138.9c0.5-1.6,1-3.3,1.6-4.9c0.7-1.8,2.5-4.2,4.6-5.7c1-0.9,4.1-2.1,5.3-2.6
			c15.4-4.2,22.3-21.8,20.5-36.6c0-1.8-2.8-1.8-2.8,0c0.4,3.2,0.4,6.5,0,9.7c-0.3,2.3-1.3,6.4-2.6,9.2c-1.5,3.5-4.3,8.3-7.6,11
			c-2.2,1.8-7.1,3.4-9.6,4.6c-5.9,1.9-10.2,6.9-11.6,12.9C85.8,139.7,88.5,141.1,89.6,138.9L89.6,138.9z"/>
		<path class="st6" d="M91.7,115.5c1.8,0.9,3.8-0.4,5.4-1.2c-0.1,0-0.1,0-0.2,0.1c2.4-0.4,4-2.4,5.8-3.9c4.2-3.9,5.4-9.8,5.7-15.4
			c0.1-0.7-0.7-1.4-1.4-1.4c-2.2,0.2-1.3,4-1.8,4.9c-0.5,3.3-1.2,5.8-3.2,8.4c-0.7,1-3.6,3.6-4.5,4.2c-0.1,0.1-0.1,0.1,0.1,0
			c-1.2,0.3-2.3,0.8-3.5,1.4c0.4-0.2-0.1,0-0.2,0.1c-0.3,0.1-0.7,0.2-1,0.3c-0.2,0-0.1-0.1,0.1,0c-0.1,0-0.2,0-0.2,0
			c-0.1,0-0.3-0.1,0.2,0c-0.3-0.1,0.3,0.2,0.1,0.1C91.6,112.2,90.1,114.6,91.7,115.5L91.7,115.5z"/>
		<path class="st6" d="M204.1,113.9c0.8,3,3.2,5.4,5.3,7.5c2.2,1.8,5,2.4,7.2,4c0.2,0.1,1.4,1.3,1.8,1.9c3.3,3.7,2.6,10.3,5.1,9.5
			c0.8-0.2,1.1-1,1-1.7c-1.9-9.3-5.3-11.8-13.3-15.7c-0.5-0.4-2.2-2.4-3.1-3.4c-0.1-0.1-1-1.4-1.2-2
			C206.9,111.9,204,111.2,204.1,113.9L204.1,113.9z"/>
		<path class="st6" d="M112.1,211.1c0,0.4,0,0.7-0.1,1.1c0,0.1-0.1,0.4,0,0.1c-1,6.5-6.5,11.8-6,18.9c0.3,8.6,10.6,9.8,15.9,14.6
			c1,0.8,3.2,2.7,4.3,4.2c-0.1-0.1-0.1-0.1-0.1-0.1c0.7,0.9,1.3,1.9,1.8,2.9c0.9,1.6,3.3,0.2,2.4-1.4c-3.7-7.6-12.7-11.5-19.1-15.4
			c-0.4-0.4-0.9-0.7-1.2-1.2c0.1,0.1,0.1,0.2,0.1,0.1c-0.3-0.4-0.6-0.9-0.8-1.4c0,0.1,0,0.1,0.1,0.2c-0.3-0.7-0.5-1.4-0.5-2.1
			c-0.3-1.5,0.5-5.5,1.3-7.1c1.9-4.4,4.7-8.5,4.8-13.4C114.9,209.3,112.1,209.3,112.1,211.1L112.1,211.1z"/>
		<path class="st6" d="M118.6,216.7c-3.4,4.9-6.8,10.6-4.4,16.7c2.7,4.9,6.2,9.6,10.5,13.2c1.3,1.3,3.3-0.7,2-2
			c-4.1-3.2-7.4-8-9.8-12c-0.2-0.6-0.4-1.2-0.5-1.9c0-0.1,0-0.2,0,0.1c-0.1-1.3-0.1-2.5,0-3.8c0.3-2.6,3-6,4.7-8.8
			C121.9,216.6,119.5,215.2,118.6,216.7L118.6,216.7z"/>
		<path class="st6" d="M197.4,248.8c7-2.1,11.4-9.6,12.4-16.5c-0.1-1.9,2.2-7.4,0-8c-0.7-0.2-1.6,0.2-1.7,1
			c-0.7,3.9-0.9,7.9-2.3,11.6c-0.4,1.1-2.3,3.9-3,4.8c-0.6,0.8-1.9,2.3-2.3,2.6c-0.7,0.5-1.5,0.9-2.3,1.3c-0.5,0.2-3,0.7-2.5,2.3
			C195.9,248.6,196.6,249.1,197.4,248.8z"/>
		<path class="st6" d="M184.2,250.8c9.2-5.5,13.1-17.6,12.9-27.8c-0.3-2-0.7-10.8-3.5-10.1c-0.7,0.2-1.2,1-1,1.7
			c1.6,4.7,2.1,9.1,1.5,14c-0.3,2.3-1.2,5.8-2.3,8.3c-1.5,3.5-3.8,7.7-7,10.3c0.1-0.1,0.1-0.1,0.1-0.1c-0.6,0.5-1.4,0.9-2.1,1.3
			C181.2,249.3,182.6,251.7,184.2,250.8z"/>
		<path class="st6" d="M204.6,206.2c-7.4,7.4-3,18.4-3.5,27.5c0,0-0.1,0.4,0,0.2c0-0.2,0,0.2,0,0.2c-0.1,0.6-0.3,1.2-0.5,1.8
			c0,0-0.2,0.4-0.1,0.2c0.1-0.2-0.1,0.2-0.1,0.2c-0.3,0.6-0.6,1.2-1.1,1.7c-2.1,2.5-6,6.1-8.7,8.1c-1.1,0.9-2.3,1.7-3.6,2.3
			c0.6-0.4,1.4,0.4,1.5,1.2c-0.1,1.5-2,1.3-2.4,0.1c0-0.1,0-0.2,0-0.3c0,1.8,2.8,1.8,2.8,0c0-1.9-2.7-2-3.1-0.3
			c0.3,6.1,10-3.8,11.7-5.3c10.7-7.9,4.5-17.4,5.6-28.1c0.1-1.7,1.4-5.2,2.5-6.4C208.2,207.1,206.4,204.9,204.6,206.2L204.6,206.2z"
			/>
		<path class="st6" d="M144.2,272.8c2.9-8.3,5.2-17.7,2-26.2c-1.5-4.4-2.9-8.8-5.1-12.9c-0.9-1.6-3.3-0.2-2.4,1.4
			c0.6,1,1.1,2.1,1.5,3.2c0.1,0.2,0,0.1,0,0c1.9,4.7,3.8,9.6,4.7,14.6c0.2,1.6,0.1,4.6-0.2,6.7c-0.5,3.6-1.7,8.6-3.2,12.5
			C141,273.7,143.7,274.5,144.2,272.8L144.2,272.8z"/>
		<path class="st6" d="M166.8,243.4c-2.2,8.6-1.9,17.8,0.7,26.3c0.8,1.7,2.3,8.4,4.8,7.1c1.9-1.3-0.9-3.7-1.1-5.1
			c-2.7-6.5-3.5-13.9-2.8-21.1c0.2-2.1,0.5-4.1,1.2-6.5C169.9,242.4,167.2,241.6,166.8,243.4L166.8,243.4z"/>
		<path class="st6" d="M140.9,311.7c-0.7-1-1.3-2-1.8-3.1c-0.9-2.3-1.9-6.2-2.3-9.1c-0.5-2.7,0.4-6.4,1.7-9.3c1-2.2,2.6-6.5,4.2-8.5
			c2.7-3.4,5.6-6.8,8.3-10.2c1.3-1.3-0.7-3.3-2-2c-3.9,5.1-8.9,9.6-11.4,15.6c-2,4.4-4.3,9-3.8,13.9c0.7,4.9,1.7,10,4.5,14.2
			C139.4,314.7,141.8,313.3,140.9,311.7L140.9,311.7z"/>
		<path class="st6" d="M160.8,267c7.3,9,11.7,19.6,13.5,31.1c0.2,1.4,0.1,4-0.2,5.8c-0.1,1.3-0.7,4.8-1.2,5.9
			c-0.5,1.2-1.2,2.1-1.9,2.7c-0.6,0.3-2.3,1.2-1.5,2.5c0.4,0.7,1.2,0.8,1.9,0.5c5-2.6,5.2-9,5.7-13.9c-0.3-12.7-6.1-26-13.6-35.5
			C162.8,264.1,159.9,265,160.8,267L160.8,267z"/>
		<path class="st6" d="M112.3,250.4c0.3,0.3,0.5,0.6,0.7,0.9c0.1,0.1,0.2,0.1,0,0c1.1,1.4,2,3,2.7,4.7c2,4.9,2.3,11,0.1,16.4
			c-9.7,15.3,1.9,30,17.9,34.4c0.7,0.2,1.6-0.3,1.7-1c0.3-2.4-3.7-2.2-5.2-3.3c-1.9-0.8-5.2-2.5-7.2-4.2c-2.4-1.7-5.5-5.5-6.5-8.2
			c-0.6-1.2-1.2-3.8-1.3-4.5c-0.2-1.3-0.2-2.7,0-4c1.4-6.7,6-10.4,4.9-19.6c-0.5-5-2.4-9.9-5.8-13.6
			C113,247.1,111,249.1,112.3,250.4L112.3,250.4z"/>
		<path class="st6" d="M200.4,251.1c-3.6-4.2-7.7,6.7-8.8,9.3c-2.8,6.8-1.3,14,2.5,20.1c0.4,0.7,1,3.2,1,3.6
			c0.5,4.4-0.5,8.2-3.2,11.7c0.2-0.3,0.1-0.1,0,0c-0.7,0.9-1.6,1.8-2.5,2.5c-0.1,0.1,0.1-0.1,0.1-0.1c-1.9,1.3-9.9,6.1-6,8.5
			c0.9,0.2,1.7-0.4,1.8-1.3c0-0.2-0.1,0.1-0.1,0.1c0.2-0.4,0.4-0.7,0.6-1c0.1-0.1-0.1,0.1-0.1,0.1c0.4-0.5,0.9-1,1.5-1.4
			c11.3-6.3,13.8-17.8,6.8-29.1c-0.3-0.6-0.9-2.5-1-3.7c-0.1-0.8-0.2-3.2,0-4.5c0.3-4,4-11.1,5.8-13c0,0,0.1,0,0.1,0
			c0.2,0-0.2,0-0.2,0c-0.1,0-0.3,0-0.4-0.1c0,0-0.5-0.5-0.3-0.3C198.8,254.1,201.3,252.7,200.4,251.1L200.4,251.1z"/>
		<path class="st6" d="M212.9,235.2c0,0.1-0.1,0.9,0,0.5c-0.2,1.6-0.7,3.1-1.3,4.6c-7.6,14.4-6.4,19.7-1.9,34.6
			c0.1,0.9,0.1,1.9,0,2.8c0-0.1,0-0.3,0,0c-0.1,0.7-0.3,1.5-0.6,2.1c-0.1,0.3-1,1.9-1.5,2.5c0,0,0.2-0.2,0,0
			c-0.4,0.5-0.8,0.9-1.2,1.4c-0.9,1.2-3.5,2.3-2.1,4c2.4,2,7.8-6.4,8-8.6c1.3-6-2.5-11.4-3.2-17.2c-0.6-4,0.1-9.8,1.8-13.5
			c1.9-4.3,4.5-8.4,4.9-13.1C215.8,233.4,212.9,233.4,212.9,235.2L212.9,235.2z"/>
		<path class="st6" d="M93.8,193.1c0.4,1.6,0.6,3.9,2.2,4.7c1.8,0.4,2.1-1.7,1.2-2.9c0,0.1,0.1,0.2,0.1,0.3
			c-0.7-1.2-0.4-2.9-1.5-3.8C94.9,190.8,93.5,191.9,93.8,193.1L93.8,193.1z"/>
		<path class="st6" d="M98,232.8c-3,11.7,7,22.2,5.6,33.4c-2.7,9.8-4,14.4,3.5,23.5c1.4,2.7,4.3,1.6,2.9-0.8
			c-1.8-2.2-3.6-4.6-4.9-7.5c-0.2-0.5-0.8-2.2-0.9-3.2c0,0,0,0.3,0,0.1c-0.1-1-0.1-2,0-2.9c5.5-16.3-0.8-20.8-3.8-35.3
			c-0.3-2.4-0.3-4.4,0.3-6.5C101.2,231.8,98.5,231,98,232.8L98,232.8z"/>
		<path class="st6" d="M194.3,248.1c-4.5,2.1-9.6,3.8-12.6,8.1c-0.8,1.4-2.8,4.4-0.6,5.3c1.8,0.4,1.9-1.8,2.1-2.3
			c0.2-0.6,0.6-1.1,0.9-1.7c0-0.1,0.3-0.4,0.1-0.1c2.7-3.6,7.3-4.9,11.5-6.9C197.3,249.6,195.9,247.2,194.3,248.1L194.3,248.1z"/>
		<path class="st6" d="M178.4,264.7c-3.6,8.5-0.2,15.8,4.8,22.7c0-0.1,0-0.1,0-0.1c0.2,0.4,0.3,0.8,0.4,1.2c0,0.1,0,0.3,0,0
			c0.2,4-2.1,8.2-3.1,12.4c-0.5,1.7,2.2,2.5,2.7,0.7c1.1-4.2,3.2-8.2,3.3-12.6c-0.5-5.7-6.1-8.3-6.4-14.8c-0.2-0.9-0.2-3.9,0.1-5.1
			c0.2-1.3,0.6-2.6,1.1-3.8C181.6,263.7,178.9,263,178.4,264.7L178.4,264.7z"/>
		<path class="st6" d="M116.6,250.2c0.2,0,0.3,0,0.5,0c0.3,0-0.2-0.1,0,0c0.1,0,0.9,0.3,0.5,0.1c0.4,0.2,0.8,0.4,1.1,0.7
			c0.1,0,0.2,0.1,0,0c1.3,1.2,3.5,2.8,4.7,3.5c1.7,1.5,2.6,3.2,3.9,5.4c0.6,1.1,1.2,2.2,1.7,3.3c0.9,1.6,3.3,0.2,2.4-1.4
			c-2.1-4.3-4.5-8.8-8.9-11.2C116.3,244.2,113.2,249.3,116.6,250.2z"/>
		<path class="st6" d="M130.2,264.8c0.3,0.6,0.6,2.2,0.7,2.4c0.6,7.8-5.4,14.8-5.3,22.9c-0.3,6.1,1.5,12.1,4.2,17.5
			c0.9,1.6,3.3,0.2,2.4-1.4c-1.7-3.5-3.1-7.2-3.7-11.3c-0.2-1.6-0.3-4.9,0-7.1c0.4-4.1,2.9-9.4,4.3-13.8c0.9-3.4,1.7-7.9-0.7-10.9
			C131.3,262.6,129.8,263.6,130.2,264.8L130.2,264.8z"/>
		<g>
			<g>
				<path class="st8" d="M140.5,228.7c1.7,0,1.7-2.7,0-2.7C138.8,226,138.7,228.7,140.5,228.7L140.5,228.7z"/>
			</g>
		</g>
		<path class="st6" d="M141.1,226.7c-0.1,1.1-0.6,1.5-1.4,1.2c0.1,0,0.3,0.2,0.1,0.1c1.1,0.8,2.1,1.8,3.3,2.5
			c1.4,0.5,2.5-1.1,2.1-2.3c-0.8,0.5-1.6,0.9-2.3,1.4c0.1,0.1,0.5,0.5,0.2,0.2c0.1,0.2,0.3,0.4,0.4,0.6c0.2,0.8,1.7,5.3,4.1,3.4
			c1.1-1.3-0.4-3.1-0.5-4.6c0,0.2,0,0.3,0,0.1c-0.1,0.6-0.4,1-0.9,1.2c0,0,0,0,0.1,0c-0.2,0-0.5,0-0.7,0c-0.7-0.2-0.8-1.1-0.7-0.5
			c0.1,0.9,0.3,1.7,0.4,2.6c0.3,1.3,2.4,1.3,2.7,0c0.1-0.6,0.3-1.3,0.4-1.9c-0.9,0.1-1.7,0.2-2.6,0.3c0.1,0.1,0.1,0.2,0.2,0.3
			c0.2,0.2-0.1-0.2,0,0.1c0,0.1,0,0.1,0-0.1c0,0.1,0,0.1,0,0.2c0,0.4,0.1-0.2,0,0.1c0.9,0.2,1.8,0.5,2.7,0.7
			c0.1-0.4,0.2-0.8,0.4-1.2c0.1-0.2,0.1-0.2,0,0c0.1-0.3,0-0.2-0.3,0.2c-0.2,0.1-0.5,0.1-0.7,0.2c0,0,0,0,0.1,0
			c-0.2-0.1-0.5-0.1-0.7-0.2c0,0,0.1,0,0.1,0c-0.2-0.2-0.3-0.3-0.5-0.5c0,0.1,0.1,0.3,0.1,0.1c-0.1-0.2,0.1,0.3,0-0.1
			c0,0,0,0.2,0,0.2c0.1-0.4-0.1,0.2,0.1-0.2c-0.9,2.3,2.1,2.8,2.8,0.8c0.2-0.2,0.1-0.2-0.2,0.2c-0.6,0.2-1.1,0.2-1.6-0.2
			c0,0,0,0,0,0.1c-0.1-0.2-0.2-0.4-0.4-0.6c0.4,1.8,3.2,1.1,2.7-0.7c-0.6-2-3-1.1-3.5,0.5c0.8,0.5,1.6,0.9,2.4,1.4
			c1.4-4-3-5-3.6-0.6c-0.5,1.7,2.2,2.5,2.7,0.7c0.7-3.8-3.3-4.9-3.4-0.5c0.9,0,1.8,0,2.7,0c-0.2-1.6-0.4-5-2.8-3.9
			c-1.7,1.2,0,3.5,0.2,5.2c0.1-0.5,0.2-0.9,0.4-1.4c0,0,0,0-0.1,0c0.2-0.1,0.4-0.2,0.6-0.4c0,0-0.1,0-0.1,0c0.2,0,0.5,0,0.7,0
			c0.1,0,0.5,0.3,0.2,0.1c0,0-0.1-0.1-0.1-0.1c0.3,0.4-0.3-0.4-0.3-0.6c-0.1-0.3-0.8-2.7-1.7-3.3c-1-1-2.7,0-2.3,1.4
			c0-0.2,0-0.3,0-0.1c0-0.4,0.3-0.6,0.9-0.5c1.1-0.3,1.1-0.2,0.6-0.5c-0.2-0.2-0.4-0.3-0.7-0.5c-1.2-0.7-2.2-2.2-3.7-1.9
			c-0.9,0.2-1.6,1.3-1.2,2.2C138.9,229.1,141.6,228.4,141.1,226.7L141.1,226.7z"/>
		<path class="st6" d="M164.2,231.5c0.1-1-0.5-1.9-1.3-2.4c-0.2,0.9-0.5,1.7-0.7,2.6c-1,0-1.4-1.4-0.4-1.8c-0.2,0-0.1,0,0.1,0
			c0,0-0.3,0-0.3,0c0.1,0.9,0.2,1.8,0.4,2.8c3.8-0.6,7.3-0.4,7.2-4.3c0,0-0.1,0.1-0.1,0.1c0.2-0.2-0.2,0.1-0.2,0.1
			c0.2-0.1,2.2-0.3,0.9-0.3c-0.3-0.2-0.6-0.4-0.8-0.6c0,0,0,0,0,0.1c-0.1-0.2-0.1-0.5-0.2-0.7c0,0,0,0.1,0,0.1
			c0.1-0.2,0.1-0.5,0.2-0.7c0.1-0.2,0.2-0.2,0,0c-0.1,0.1-0.8,0.7-0.6,0.5c-1.9,1.7-4.2,1.4-6.5,2.7c0.6,0.7,1.1,1.5,1.7,2.2
			c0.2-0.2,0.3-0.3,0.5-0.5c-0.2,0.2,0,0,0.1-0.1c0.1-0.1,0.9-0.5,0.6-0.3c0.3-0.1,0.6-0.2,0.9-0.3c-0.6-0.6-1.1-1.1-1.7-1.7
			c-0.4,1.8-0.4,3.5,0,5.3c0.1,0.6,0.8,1.1,1.4,1c1.9-0.1,1.5-2.6,1.3-3.9c-0.2-1-0.8-2.5-2-2.4c-2.5,0.4-1.6,4-1.4,5.8
			c0.3,1.4,2.4,1.3,2.7,0c0.3-1.4,1.2-4.2-1-4.3c-1.4-0.1-1.5,1.8-1.5,2.4c-0.1,0.4-0.1,0.8-0.3,1.2c0.9,0,1.8,0,2.7,0
			c0-0.2-0.1-0.3-0.1-0.5c0,0-0.1-0.4,0-0.2c-0.1-0.6,0-2.1,0-2.3c0.1-0.3,0-0.2-0.2,0.3c-0.3,0.1-0.7,0.3-1,0.4c0,0,0.1,0,0.1,0
			c-0.2-0.1-0.5-0.1-0.7-0.2c-0.5-0.6-0.3-0.3-0.2,0c0-0.1,0-0.1,0-0.1c0.1,0.4,0.2,0.8,0.3,1.1c0-0.2,0-0.2,0,0c0,0.3,0,0.6,0,1
			c0-0.2,0-0.2,0,0c0.9,0,1.8,0,2.7,0c0-0.1-0.1-0.8-0.1-0.5c-0.1-1.2-0.1-2.4,0.1-3.3c0.4-3.8-6.8-0.5-5.1,1.9
			c0.6,0.8,1.6,0.6,2.3,0.1c0.5-0.2,2.3-0.5,3.2-0.9c10.6-4.4-0.5-8.3-0.7-1.9c0,0.1,0,0.2-0.1,0.2c0-0.1,0.1-0.2,0,0
			c0,0,0.2-0.3,0-0.1c-0.2,0.2,0.1-0.1,0.1,0c-1,0.5-3.5,0.6-5.2,0.9c-1.5,0.4-1.2,2.8,0.4,2.8c1,0.1,2.1-0.5,2.3-1.5
			c0.3-1.1-0.5-2.4-1.8-2.4c-1.4,0-1.9,1.9-0.7,2.6c0.2,0.1-0.1-0.1,0,0c0.1,0.1-0.2-0.3,0,0c0-0.1-0.1-0.2,0-0.1
			c-0.1-0.3,0-0.1,0,0C161.4,233.3,164.2,233.3,164.2,231.5L164.2,231.5z"/>
		<path class="st6" d="M151.4,238.9c0.2,0.4,0.5,0.8,0.6,1.2c-0.1-0.2-0.1-0.2,0-0.1c0.4,0.9,0.7,1.9,0.8,2.9
			c-0.3,2.4,2.5,3.2,2.9,0.8c-0.2-1.9-1-8-3.8-6.8C151.2,237.4,151,238.2,151.4,238.9L151.4,238.9z"/>
		<path class="st6" d="M158.4,236.6c-3.3,5.2-2.4,15.9-1.4,21.8c0.1,0.7,1,1.2,1.7,1c1.8-0.5,0.5-3.3,0.6-4c-0.6-4.2-0.5-8.4,0-12.6
			c0.2-0.9,0.3-2.7,0.8-3.8c0,0-0.1,0.3,0,0c0-0.1,0.1-0.1,0.1-0.2c0.1-0.2,0,0,0,0C161.8,237.7,159.9,235.2,158.4,236.6
			L158.4,236.6z"/>
		<path class="st6" d="M153.2,243.1c0.5,2.4,0.4,5.3,0,8c-0.3,1.9-0.9,5.2-1.4,7.6c0,1.8-2.1,5.8,0.7,6.2c1.8-0.2,1.4-2.2,1.6-3.2
			c0.8-4.8,2.1-9.6,2.2-14.5c0-1.6-0.1-3.2-0.5-4.8C155.5,240.6,152.8,241.3,153.2,243.1L153.2,243.1z"/>
		<path class="st6" d="M154.8,249.4c-0.2,18.3,6.2,36.7,8.7,54.3c0.3,2.4,0.4,4.8,0.1,7.2c-0.3,2.3-1.3,5.2-3.1,7.3
			c-1,1.3-2.8,3.2-4.4,4.4c-0.4,0.2-1.8,1.3-1,2.3c2.3,3.3,10.6-8.3,10.7-10.8c1.5-5,0.6-10.3-0.3-15.3c-2.4-12.9-5.3-25.7-7.3-38.6
			c-0.4-3.2-0.7-7.2-0.5-10.8C157.6,247.6,154.8,247.6,154.8,249.4L154.8,249.4z"/>
		<path class="st6" d="M154.2,261.5c2.4,1.3,3.2-3,0.7-3c-1.7,0.1-1.8,2.2-2.4,3.4c-2.3,7.2-4.5,14.4-6,21.8
			c-2.5,14.3-4.5,32.7,8.6,42.6c1.3,1.3,3.3-0.7,2-2c-1.8-1.5-3.5-3.2-4.9-5c-2.2-2.6-3.7-7.3-4-10.8c-2.1-16.4,2.7-32.3,7.8-47.9
			c0,0-0.1,0.2-0.1,0.1c0.1-0.1-2.1-0.3-2.1-0.4c0,0,0-0.7,0-0.6c0.2-0.6,0.7-0.9,1.3-1c0,0,0,0,0,0c0.2,0.1,0.5,0.1,0.7,0.2
			C154.1,258.1,152.6,260.6,154.2,261.5z"/>
		<path class="st6" d="M154.3,259.3c-0.7,20.5-1.9,41.1-0.9,61.6c0.1,2.3-0.1,7.1,2.8,5c0,0,0.5-0.2,0.1-0.1
			c2.6-1.4-0.2-3.9-1.8-2.1c-0.1,0.1,0,0,0.2-0.1c0.2,0,0.5,0,0.7,0c0,0,0,0,0,0c0.4,0.2,0.7,0.4,0.9,0.9c0-0.1,0-0.1,0,0.2
			c-1.5-21.8-0.1-43.6,0.7-65.4C157.2,257.5,154.4,257.4,154.3,259.3L154.3,259.3z"/>
		<g>
			<g>
				<path class="st8" d="M88.7,142c2.6,0,2.6-4,0-4C86.1,138,86.1,142,88.7,142L88.7,142z"/>
			</g>
		</g>
		<path class="st6" d="M89.2,143.2c0-0.1,0-0.2,0-0.3c0,0.2-0.1,0.4-0.1,0.6c0.1-0.4,0.2-0.7,0.3-1c-0.1,0.2-0.1,0.3-0.2,0.5
			c0.8-1.8,2.1-2.8,3.9-4.6c2.6-2.7,5-4.3,8.7-5.8c-0.2,0.1-0.3,0.1-0.5,0.2c4.5-2.1,9.5-3.3,13.5-6.4c4.5-4.8,8.7-10.2,11.3-16.4
			c3.2-7.7,3.8-16.3,2.5-24.5c-1.1-3-5.1-1.2-4,1.8c0-0.2-0.1-0.4-0.1-0.6c0.6,4.2,0.6,8.6,0.1,12.8c0-0.2,0.1-0.4,0.1-0.6
			c-0.5,3.4-1.4,6.8-2.7,10c0.1-0.2,0.1-0.3,0.2-0.5c-2.5,5.8-6.9,11.4-10.3,14.9c-1.3,1-2.7,1.7-4.2,2.3c0.2-0.1,0.3-0.1,0.5-0.2
			c-7.3,2.8-14.9,5.6-20,12C81.1,144.1,88,148.1,89.2,143.2L89.2,143.2z"/>
		<path class="st6" d="M212.6,150.9c-1.6,4.4,2.7,6.9,5.1,9.8c0.4,0.4,1.8,2.9,2,3.4c0.5,1.4,1,2.8,1.2,4.3c0.1,0.4,0.2,3,0,4.1
			c-0.1,0.3-0.5,2.3,0.8,2.5c0.7,0.2,1.6-0.2,1.7-1c1.7-7.3-2.2-15.1-7.6-19.2c-0.2-0.3-0.4-0.6-0.5-0.9c0.1,0.3,0,0,0-0.1
			c-0.1-0.2-0.2-0.5-0.2-0.8c0,0,0,0.3,0,0c0-0.3,0-0.5,0-0.8c0-0.1,0-0.4,0-0.1C216.1,150.3,213.7,148.7,212.6,150.9L212.6,150.9z"
			/>
		<path class="st6" d="M92.6,188.9c-1.3-2.4-5.1-5-7.1-4.3c-3.3,0-3.8,4.5-4.3,7c-0.5,8,3.7,15.4,7.6,22c0.9,1.6,3.3,0.2,2.4-1.4
			c-1.7-2.8-3.9-6.7-4.9-9.2c-1.7-3.9-2.8-8.6-2.3-11.9c0.3-1.7,0.6-2.7,1.4-4c0.1-0.2-0.2,0.2-0.1,0.1c0.1-0.1-0.2,0.1-0.2,0.1
			c0.2-0.1-0.2,0.1-0.2,0.1c0,0,0.1,0,0.1,0c0.2-0.1-0.3,0-0.2,0c0.4,0,0.8-0.1,1.2-0.2c-0.3,0,0,0,0.1,0c0.3,0-0.1-0.1,0,0
			c0.2,0.1,0.4,0.1,0.6,0.2c-0.2-0.1,0,0,0.1,0.1c0.4,0.2,0.8,0.4,1.2,0.7c0.1,0.1,0.2,0.1,0,0c0.5,0.4,1,0.9,1.4,1.4
			C90.5,191.8,93.4,191.3,92.6,188.9L92.6,188.9z"/>
		<path class="st6" d="M221,190.7c0.1-0.1,0.6-0.9,0.4-0.6c0.3-0.4,0.7-0.8,1.1-1.2c0.1-0.1,0.5-0.4,0.2-0.2c0.5-0.4,1-0.7,1.5-0.9
			c-0.3,0.1,0,0,0.1,0c0.2-0.1,0.3-0.1,0.5-0.1c-0.2,0.1-0.1,0,0,0c0.1,0,0.4,0,0.1,0c0.2,0,1.8,0.3,1,0.1c0.1,0.1,0.3,0.2-0.1-0.1
			c0.2,0.1-0.3-0.3-0.1-0.1c0.1,0.1-0.2-0.3-0.1-0.1c0.3,0.4,0.5,0.9,0.7,1.3c0.1,0.2,0-0.1,0-0.1c0.4,0.9,0.6,1.9,0.8,2.9
			c0.6,3.8-1.1,9.4-2.9,13.1c-1.2,2.7-2.7,5.2-4.2,7.8c-0.4,0.6-0.2,1.6,0.5,1.9c0.7,0.4,1.5,0.2,1.9-0.5c4.3-7.4,9.4-16.2,7-25
			c-0.6-1.7-1.4-4.1-3.6-4c-0.3-0.2-2.3,0-3.2,0.6c-1.6,0.8-3,2.2-4,3.7C217.7,190.9,220.1,192.3,221,190.7L221,190.7z"/>
		<path class="st6" d="M195,94.7c-1.7,9,4.5,17.3,12.2,21.2c2.9,1.6,5.9,2.8,8.5,4.8c0.2,0.1-0.2-0.2-0.1,0c0.3,0.3,0.7,0.5,1,0.8
			c0.5,0.4,0.9,0.9,1.3,1.4c0.1,0.1-0.2-0.2,0-0.1c0.7,0.9,1.4,2.9,2.9,2c3.7-4.8-13.7-11.6-16-13.8c-3.9-3.1-6.4-6.7-7.1-11.5
			c-0.1-0.7-0.2-3.1,0.1-4C198.2,93.7,195.5,92.9,195,94.7L195,94.7z"/>
		<path class="st6" d="M186.6,101.2c1.5-2.2,2.8-13.7-1.2-13.4c-2.1,0.8-0.2,3.2-0.2,4.8c0.1,0.5,0.2,2.6,0,3.6
			c-0.1,0.7-0.7,3-1,3.6C183.3,101.4,185.7,102.8,186.6,101.2L186.6,101.2z"/>
		<path class="st6" d="M173.8,96.1c-0.1-2.2-1.9-14.7-5.2-13.1c-0.7,0.4-0.9,1.2-0.5,1.9c1.3,2.5,2.2,5.6,2.7,8.8
			c0.3,0.9-0.3,3.8,1.6,3.8C173.1,97.5,173.8,96.9,173.8,96.1L173.8,96.1z"/>
		<path class="st6" d="M146.6,85.4c0.2,0.8,0.5,2.5,0.6,2.9c1,7.3-0.8,15.2-3.5,21.5c-1.6,3.6-3.7,7.9-5.7,10.8
			c-2.5,2.9-5.6,5-9.1,6.6c-3,1.4-8.3,2.1-11.5,1.5c-1.3-0.1-3.2-1.1-3.8,0.6c-0.2,0.7,0.2,1.5,1,1.7c8.5,2.1,17.7-0.9,23.9-6.9
			c5.8-6.8,9.3-15.7,11.1-24.4c0.5-2.5,1.7-16.8-2-16.1C146.8,83.9,146.4,84.6,146.6,85.4L146.6,85.4z"/>
		<path class="st6" d="M144.9,207.4c1.5,1.1,3.3,1.5,5.1,1.1c1.1-0.4,0.3-1.8-0.7-1.3c-1.1,0.2-2.7-0.2-3.8-1
			C144.8,205.7,144.1,206.9,144.9,207.4L144.9,207.4z"/>
		<path class="st6" d="M161.2,208.6c1-0.1,4.5-0.2,4-1.8c-0.2-0.5-0.9-0.3-1.1-0.2c-0.6,0.3-1.3,0.5-2,0.6c-0.3,0.1-1.7-0.1-1.6,0.8
			C160.6,208.3,160.9,208.6,161.2,208.6z"/>
		<path class="st6" d="M141.6,175.8c0.1,0.1,0.2,0.2,0.3,0.3c0,0.1,0,0.1,0,0.2c0,0,0,0,0-0.1c0,0.1,0,0.1,0,0.2c0,0,0,0,0-0.1
			c1.7-3-1-4.4-0.9-1.6c0-0.1,0-0.1,0-0.2c0,0.3-0.1,0.6-0.2,0.9c0,0,0-0.1,0-0.1C139.4,177.5,143,177.5,141.6,175.8L141.6,175.8z"
			/>
		<path class="st6" d="M169.2,175.4c0,0.1,0.1,0.1,0.1,0.2C169.3,175.5,169.2,175.5,169.2,175.4c0.2,0.9,1,2.1,1.7,0.9
			c0.4-2.4-1.2-2.6-2.1-0.4c0.4,0.1,0.9,0.1,1.3,0.2c-0.2-1.8-2.4-0.8-1.2,0.5c1,1.1,2.3-0.8,0.8-1.1c0.1,0,0.1,0,0.2,0
			c0,0-0.1,0-0.1,0c0.1,0,0.1,0,0.2,0.1c0,0-0.1,0-0.1-0.1c0,0,0.1,0.1,0.1,0.1c0,0-0.1-0.1-0.1-0.1c0,0,0.1,0.1,0.1,0.1
			c0,0-0.1-0.1-0.1-0.1c0,0.1,0,0.1,0.1,0.2c0,0,0-0.1,0-0.1c-0.5,0.1-0.9,0.2-1.4,0.4c0.5,1.9,1.7,0.6,2.1-0.6c-0.4,0-0.8,0-1.2,0
			c0,0,0,0.1,0.1,0.1c0-0.1,0-0.1-0.1-0.2c0,0.1,0.1,0.2,0.1,0.4c0-0.1,0-0.1,0-0.2c0,0.1,0,0.2,0,0.4c0-0.1,0-0.1,0-0.2
			c0,0.1,0,0.2-0.1,0.2c0.5,0,0.9,0,1.4,0c-0.2-0.5-0.3-1.3-0.9-1.5C169.4,174.2,168.9,174.9,169.2,175.4L169.2,175.4z"/>
		<path class="st6" d="M170.5,176.3c-0.1-0.9-1.1-1.6-1.5-0.5C168.7,177,170.5,178,170.5,176.3L170.5,176.3z"/>
		<path class="st6" d="M201.3,96.8c-0.4,7.3,6,12.1,12.5,13.7c0.9,0.2,1.2-1.1,0.4-1.4c-4.5-1.4-9.4-3.7-10.9-8.5
			c-0.4-1.2-0.6-2.5-0.6-3.8C202.7,95.9,201.3,95.9,201.3,96.8L201.3,96.8z"/>
		<path class="st6" d="M114.2,103.9c0.4-2.2,3-13.8-0.2-13.9c-0.7,0-1.4,0.6-1.4,1.4c0.1,2.5,0,5-0.3,7.5c0.2,1.2-2,5.3,0.2,6
			C113.2,105.1,114,104.7,114.2,103.9L114.2,103.9z"/>
		<path class="st6" d="M139.7,85.1c0.2,0.8,0.3,1.5,0.4,2.3c0,0.2,0,0.2,0,0c0.4,3,0.4,6.1,0,9.2c-0.4,3-1.6,7.5-3,10.8
			c-1.2,2.9-4,7.7-6.1,10.3c-2.3,2.9-4.7,5.7-7.6,8c-0.5,0.5-3.4,2.2-4,2.4c-1.3,0.8-4.3,0.4-3.9,2.6c1.6,3.2,9.6-2.6,11.3-4.2
			c8.3-7.7,14.5-18.1,16-29.4c0.3-2.3,1.4-14.4-2.1-13.7C139.9,83.7,139.5,84.4,139.7,85.1L139.7,85.1z"/>
		<path class="st6" d="M158.2,129.5c11.7-0.3,21.7-21.6,22.5-31.9c0.5-2.5,0.7-13.6-3.4-12.4c-1.1,0.7-0.6,1.9-0.1,2.8
			c0.2,0.4,0.7,2.1,0.8,3.1c0.3,1.2,0.1,5.5-0.2,6.7c-0.5,3.9-1.6,7.7-3.1,11.2c-1.1,2.8-3.8,7.5-5.7,9.8c-1.8,2.3-3.7,4.4-6,6.3
			c0.1-0.1,0.1-0.1,0.1-0.1c-0.7,0.5-1.5,1-2.3,1.4c-0.2,0.1,0,0,0,0c-0.5,0.2-1.1,0.5-1.7,0.5C156.6,126.2,155.9,129,158.2,129.5z"
			/>
		<path class="st6" d="M90.1,189.9c1.4,1.9,1.3,3.7,2.8,5.6c1.4,1.4,3.3-0.9,1.9-2.1c0.4,0.6-0.4-0.7,0-0.1
			c-0.8-1.6-1.6-6.4-4.1-5.4C89.9,188.4,89.6,189.2,90.1,189.9L90.1,189.9z"/>
		<path class="st6" d="M94.3,194.7c1.4,5.8,2.9,11.9,2.2,17.9c-1.9,11.5-12.2,22-7.8,34.1c0.8,1.3,2.7,8,4.4,6.8
			c1.6-1-1.9-5.3-2.2-6.9c-5.3-13.7,9.2-25.2,7.8-38.9c-0.4-4.6-1.3-9.2-2.4-13.6C96,192.8,94,193.3,94.3,194.7L94.3,194.7z"/>
		<path class="st6" d="M215,193.5c-5.3,4.6-6.9,5.7-6.8,12.6c-0.1,0.4-0.2,0.8-0.3,1.1c0,0-0.1,0.2,0,0.1c-0.4,0.4-0.8,1.9,0.2,2.4
			c3.6,1,2.8-6.1,3.1-7.5c0.1-0.5,0.2-1,0.4-1.4c0.6-1.4,3.7-3.6,5.4-5.3C218.2,194.2,216.3,192.2,215,193.5L215,193.5z"/>
		<path class="st6" d="M215.5,194.9c-5.5,3.8-6.9,10.7-7.1,16.9c0.2,1.8-0.8,6.7,1.6,6.9c0.7,0,1.5-0.6,1.4-1.4
			c-0.3-2.9-0.3-6.6,0.1-9.1c0.3-2.1,0.7-4.2,1.5-6.1c0,0.1-0.1,0.2,0,0c0.3-0.7,0.7-1.5,1.2-2.1c0.6-0.9,2.1-2.3,3.3-3.2
			C218.8,195.6,216.8,193.6,215.5,194.9L215.5,194.9z"/>
		<path class="st6" d="M215.2,197.7c-1.9,5.9-3.2,12.4-1.7,18.6c1.4,5.4,4.7,10.1,6.1,15.6c2.2,8.3,2.6,14.8-3.5,21.5
			c-0.7,1.1,1,2.1,1.7,1c7.3-7.9,5.8-17,2.6-26.4c-2.1-5.3-5.4-10.3-5.6-16.1c-0.2-4.6,0.8-9.3,2.2-13.6
			C217.4,197.1,215.5,196.5,215.2,197.7L215.2,197.7z"/>
		<path class="st6" d="M140.1,309.3c0.3,1,1.8,0.4,1.3-0.5C141.1,307.8,139.6,308.4,140.1,309.3L140.1,309.3z"/>
		<path class="st6" d="M140.9,313.6c2.1,5.3,7.2,9.2,12.9,9.7c0.4,0,0.7-0.4,0.7-0.7c0-0.4-0.3-0.7-0.7-0.7c-5-0.5-9.6-4-11.5-8.7
			C142,312.4,140.6,312.7,140.9,313.6L140.9,313.6z"/>
		<path class="st6" d="M182.7,286.4c-0.5,3.2-0.4,6.4,0.4,9.5c0.2,0.9,1.6,0.5,1.4-0.4c-0.7-2.9-0.8-5.9-0.4-8.8
			C184.2,285.9,182.9,285.5,182.7,286.4L182.7,286.4z"/>
	</g>
	<g class="st20">
		<path class="st1" d="M295.2,274.1v-34.9h11.7c5,0,9.3,1.5,12.8,4.6c3.5,3,5.3,7.3,5.3,12.8c0,2.8-0.5,5.3-1.5,7.6s-2.4,4.1-4,5.5
			c-1.7,1.4-3.6,2.5-5.7,3.2c-2.1,0.8-4.4,1.1-6.8,1.1H295.2z M298.1,271.5h8.3c4.4,0,8.1-1.2,11.1-3.7c3-2.5,4.4-6.2,4.4-11.2
			c0-5-1.5-8.7-4.4-11.2c-2.9-2.5-6.6-3.7-11.1-3.7h-8.3V271.5z"/>
		<path class="st1" d="M350.6,266.3l2.2,1.3c-2.2,4.7-5.8,7-10.6,7c-3.4,0-6.3-1.2-8.4-3.5c-2.2-2.3-3.3-5.3-3.3-9s1.1-6.7,3.2-9
			s4.9-3.5,8.2-3.5c3.3,0,5.9,1.1,7.8,3.2c1.9,2.1,2.9,5,2.9,8.5v1.2h-19.1c0.1,2.9,0.9,5.2,2.4,7c1.6,1.8,3.7,2.6,6.3,2.6
			C345.9,272.2,348.8,270.2,350.6,266.3z M341.8,252.1c-2.3,0-4.2,0.7-5.7,2.2c-1.5,1.5-2.3,3.4-2.6,5.9h16.2
			c-0.1-2.6-0.9-4.6-2.2-6C346,252.8,344.2,252.1,341.8,252.1z"/>
		<path class="st1" d="M367.7,274.6c-2.9,0-5.3-0.7-7.2-2.2c-1.9-1.5-2.9-3.7-3.1-6.6l2.7-0.5c0.4,4.6,3,6.9,7.7,6.9
			c1.9,0,3.4-0.4,4.5-1.2c1.1-0.8,1.7-1.9,1.7-3.4c0-1.2-0.4-2.1-1.1-2.7c-0.8-0.6-2-1.1-3.9-1.4l-2.8-0.5c-2.4-0.4-4.3-1.1-5.6-2
			c-1.3-0.9-2-2.5-2-4.7c0-2,0.8-3.7,2.4-4.8c1.6-1.2,3.8-1.8,6.5-1.8c2.7,0,4.8,0.6,6.3,1.9s2.5,3,3,5.2l-2.6,0.7
			c-0.9-3.6-3.1-5.4-6.7-5.4c-1.9,0-3.4,0.4-4.4,1.1c-1.1,0.7-1.6,1.8-1.6,3.1c0,1.2,0.4,2.2,1.2,2.8c0.8,0.6,2.1,1.1,4.1,1.4
			l2.8,0.5c2.3,0.4,4.2,1.1,5.5,2c1.3,0.9,2,2.5,2,4.6c0,2.2-0.9,4-2.6,5.2C372.7,274,370.5,274.6,367.7,274.6z"/>
		<path class="st1" d="M386.1,243.7c-0.4,0.4-0.9,0.6-1.5,0.6c-0.6,0-1.1-0.2-1.5-0.6s-0.6-0.9-0.6-1.4c0-0.6,0.2-1,0.6-1.4
			c0.4-0.4,0.9-0.6,1.5-0.6c0.6,0,1.1,0.2,1.5,0.6c0.4,0.4,0.6,0.9,0.6,1.4C386.7,242.8,386.5,243.3,386.1,243.7z M383.2,274.1
			v-23.8h2.9v23.8H383.2z"/>
		<path class="st1" d="M412.6,249.1c-1.1,0-2.1,0.9-2.8,2.8c1.7,1.5,2.5,3.5,2.5,6c0,2.5-0.8,4.6-2.5,6c-1.7,1.5-3.9,2.2-6.5,2.2
			c-1.8,0-3.5-0.4-4.9-1.1c-1.8,0.6-2.7,1.6-2.7,2.9c0,0.8,0.3,1.5,0.8,2s1.2,0.8,2.1,0.8h9.5c5.4,0,8.1,2.1,8.1,6.3
			c0,2.4-1.2,4.4-3.5,5.9c-2.3,1.5-5.2,2.3-8.7,2.3c-4,0-7.1-0.6-9.1-1.9c-2.1-1.3-3.1-3-3.1-5.3c0-2.2,1.2-4,3.7-5.3
			c-1.7-0.9-2.6-2.3-2.6-4.3c0-2,1.1-3.6,3.4-4.7c-1.5-1.5-2.3-3.4-2.3-5.8c0-2.5,0.8-4.6,2.5-6c1.7-1.5,3.9-2.2,6.5-2.2
			c1.7,0,3.2,0.3,4.6,1c1.3-2.6,2.9-4,5-4c1.2,0,2.2,0.4,3,1.2s1.2,1.9,1.2,3.5v0.6l-2.4,0.4C414.7,250.2,414,249.1,412.6,249.1z
			 M407.9,273.5h-8.3c-1.4,0-2.6,0.4-3.5,1.2s-1.4,1.8-1.4,2.9c0,3.4,3.1,5.1,9.4,5.1c2.7,0,4.9-0.5,6.7-1.5c1.8-1,2.6-2.3,2.6-4
			c0-1.3-0.4-2.2-1.3-2.8C411.2,273.8,409.8,273.5,407.9,273.5z M398.7,262.3c1.2,1.1,2.7,1.6,4.5,1.6s3.3-0.5,4.5-1.6
			c1.2-1.1,1.8-2.5,1.8-4.3s-0.6-3.3-1.8-4.3c-1.2-1.1-2.7-1.6-4.5-1.6c-1.8,0-3.3,0.5-4.5,1.6s-1.7,2.5-1.7,4.4
			C397,259.8,397.6,261.2,398.7,262.3z"/>
		<path class="st1" d="M421.3,274.1v-23.8h2.9v3.9c1.6-2.9,4.3-4.4,8.1-4.4c2.9,0,5.2,0.9,6.8,2.6c1.6,1.7,2.4,4.1,2.4,7.2v14.7
			h-2.9v-14.3c0-2.5-0.6-4.4-1.8-5.7c-1.2-1.3-2.9-2-5.2-2c-2.2,0-4,0.7-5.4,2c-1.4,1.3-2.1,3.1-2.1,5.4v14.6H421.3z"/>
		<path class="st1" d="M473,274.7c-4.2,0-7.5-0.9-9.9-2.8c-2.3-1.9-3.5-4.4-3.5-7.5c0-1.4,0.2-2.9,0.7-4.4l2.7,0.8
			c-0.3,1-0.5,2.2-0.5,3.4c0,2.5,1,4.4,2.9,5.8c1.9,1.4,4.5,2.1,7.7,2.1c3,0,5.4-0.6,7.2-1.9c1.8-1.3,2.6-3,2.6-5.1
			c0-1.9-0.6-3.3-1.9-4.3c-1.3-1-3.1-1.8-5.6-2.4l-4.7-1.2c-3.5-0.8-6.1-2-7.6-3.5c-1.5-1.5-2.2-3.5-2.2-6c0-2.8,1.1-5.1,3.2-6.7
			c2.1-1.6,4.8-2.5,8.2-2.5c3.9,0,7.1,1,9.4,3.1c2.3,2,3.6,4.9,3.9,8.7l-2.9,0.4c-0.8-6.4-4.3-9.6-10.4-9.6c-2.5,0-4.6,0.6-6.1,1.7
			c-1.5,1.1-2.3,2.7-2.3,4.8c0,2,0.7,3.5,2,4.5c1.4,1,3.3,1.9,5.8,2.5l4.6,1.1c3.4,0.8,5.9,1.9,7.4,3.4c1.5,1.5,2.3,3.5,2.3,5.9
			c0,3.1-1.2,5.6-3.7,7.2C479.6,273.9,476.6,274.7,473,274.7z"/>
		<path class="st1" d="M499.6,274.6c-4.1,0-6.2-2.5-6.2-7.5v-14.4h-4.2v-2.5h4.2l0.6-7.2h2.3v7.2h9.9v2.5h-9.9v14.4
			c0,3.3,1.1,4.9,3.4,4.9c1.1,0,2-0.4,2.8-1.2c0.8-0.8,1.5-2.1,2.2-3.8l2.4,1.1C505.4,272.5,502.9,274.6,499.6,274.6z"/>
		<path class="st1" d="M520.5,274.6c-2.9,0-5.1-0.9-6.7-2.6c-1.6-1.7-2.4-4.1-2.4-7.2v-14.7h2.9v14.5c0,2.4,0.6,4.3,1.7,5.5
			c1.1,1.3,2.8,1.9,5,1.9c2.1,0,3.9-0.7,5.3-2c1.4-1.3,2.1-3.1,2.1-5.3v-14.7h2.9v23.8h-2.9v-3.9c-0.8,1.4-1.8,2.5-3.2,3.2
			C523.9,274.2,522.3,274.6,520.5,274.6z"/>
		<path class="st1" d="M548.6,274.6c-3.2,0-5.8-1.2-7.9-3.6c-2.1-2.4-3.1-5.4-3.1-8.9c0-3.6,1-6.5,3.1-8.9c2.1-2.4,4.7-3.5,7.9-3.5
			c2.2,0,4.1,0.5,5.7,1.5c1.6,1,2.8,2.4,3.7,4.2v-16.3h2.9v34.9H558v-5.2c-0.9,1.8-2.1,3.2-3.7,4.2
			C552.7,274.1,550.8,274.6,548.6,274.6z M549.1,272.2c2.5,0,4.6-1,6.3-2.9c1.7-1.9,2.6-4.3,2.6-7.2c0-2.8-0.9-5.2-2.6-7.1
			c-1.7-1.9-3.8-2.9-6.3-2.9c-2.6,0-4.7,0.9-6.2,2.7c-1.6,1.8-2.4,4.2-2.4,7.3s0.8,5.4,2.4,7.3C544.5,271.2,546.5,272.2,549.1,272.2
			z"/>
		<path class="st1" d="M571.7,243.7c-0.4,0.4-0.9,0.6-1.5,0.6c-0.6,0-1.1-0.2-1.5-0.6s-0.6-0.9-0.6-1.4c0-0.6,0.2-1,0.6-1.4
			c0.4-0.4,0.9-0.6,1.5-0.6c0.6,0,1.1,0.2,1.5,0.6c0.4,0.4,0.6,0.9,0.6,1.4C572.3,242.8,572.1,243.3,571.7,243.7z M568.9,274.1
			v-23.8h2.9v23.8H568.9z"/>
		<path class="st1" d="M598.2,271.1c-2.2,2.3-5,3.5-8.5,3.5s-6.2-1.2-8.5-3.5s-3.3-5.3-3.3-9c0-3.6,1.1-6.6,3.3-8.9
			c2.2-2.3,5-3.5,8.5-3.5s6.2,1.2,8.5,3.5c2.2,2.3,3.3,5.3,3.3,8.9C601.6,265.8,600.4,268.8,598.2,271.1z M583.3,269.4
			c1.6,1.8,3.7,2.8,6.4,2.8s4.8-0.9,6.4-2.8c1.6-1.9,2.4-4.3,2.4-7.3c0-2.9-0.8-5.3-2.4-7.2c-1.6-1.9-3.7-2.8-6.4-2.8
			s-4.8,0.9-6.4,2.7c-1.6,1.8-2.4,4.2-2.4,7.3S581.7,267.6,583.3,269.4z"/>
	</g>
	<g>
		<path class="st5" d="M647.6,265.7c0,0.9,0.2,1.8,0.7,2.5c0.5,0.8,1.1,1.4,1.8,1.8c0.8,0.4,1.6,0.7,2.5,0.7h6v-5.2h-3.1
			c-0.7,0-1.4-0.3-1.9-0.8c-0.5-0.5-0.8-1.2-0.8-1.9v-8h11.5v10.9c0,0.9,0.2,1.8,0.7,2.5h0c0.5,0.8,1.1,1.4,1.8,1.8
			c0.8,0.4,1.6,0.7,2.5,0.7h6v-5.2h-3.1c-0.7,0-1.4-0.3-1.9-0.8c-0.5-0.5-0.8-1.2-0.8-1.9v-8h5v-5.2H643v5.2h4.6V265.7z"/>
		<path class="st5" d="M624.3,237.3v45.6h69.8v-45.6H624.3z M692.7,281.5h-67v-42.8h67V281.5z"/>
	</g>
	<g>
		<g>
			<path class="st1" d="M759.8,208.9c-11,0-19.9-2.3-26.7-7c-6.8-4.7-10.3-11.2-10.4-19.4l20.8-2.4c0.9,9,6.6,13.4,17,13.4
				c7.8,0,11.8-2.6,11.8-7.8c0-2-0.6-3.6-1.9-4.6c-1.3-1-3.5-1.8-6.6-2.3l-8.6-1.5c-3.4-0.6-6.3-1.2-8.7-1.9c-2.4-0.7-5-1.6-7.7-2.9
				c-2.7-1.3-4.9-2.8-6.6-4.4c-1.7-1.7-3.2-3.8-4.3-6.5c-1.1-2.6-1.7-5.7-1.7-9c0-6.9,3-12.4,9.1-16.5c6.1-4.1,14.4-6.1,25-6.1
				c9.8,0,17.6,2,23.4,6.1c5.8,4.1,9.3,9.4,10.4,15.9l-19.6,4.7c-1.8-7.5-6.7-11.3-14.5-11.3c-3.7,0-6.5,0.6-8.6,1.9
				c-2.1,1.3-3.1,3-3.1,5.3c0,2.1,0.8,3.8,2.3,4.9c1.5,1.1,4.1,2,7.8,2.6l8.6,1.4c4,0.6,7.4,1.4,10.4,2.3c3,0.9,5.8,2.2,8.6,4
				c2.8,1.7,4.9,4,6.4,7c1.5,2.9,2.2,6.4,2.2,10.5c0,7.5-3.2,13.4-9.6,17.6C778.2,206.8,769.9,208.9,759.8,208.9z"/>
		</g>
	</g>
	<g>
		<g>
			<path class="st1" d="M706.2,198c-7.7,7.7-17.2,11.5-28.3,11.5c-11.2,0-20.6-3.8-28.3-11.5c-7.7-7.7-11.6-17.1-11.6-28.3
				s3.9-20.6,11.6-28.3c7.7-7.7,17.2-11.5,28.3-11.5c11.2,0,20.6,3.8,28.3,11.5c7.7,7.7,11.6,17.1,11.6,28.3S713.9,190.3,706.2,198z
				 M665.5,182.5c3.3,3.3,7.4,5,12.4,5c4.9,0,9-1.7,12.4-5s5-7.6,5-12.8c0-5.2-1.7-9.5-5-12.8s-7.4-5-12.4-5c-4.9,0-9,1.7-12.4,5
				c-3.3,3.3-5,7.6-5,12.8C660.5,174.9,662.2,179.2,665.5,182.5z"/>
		</g>
	</g>
	<path class="st1" d="M617.9,186.3c-2.1,0-3.8-0.7-5.2-2.2c-1.4-1.5-2.1-3.2-2.1-5.3v-26.4h17.7v-22.4h-17.7H588h-19h-0.3h-17.3
		h-22.6h-16.3v22.4h16.3V189c0,3.6,0.9,6.9,2.7,9.9c1.8,3,4.2,5.4,7.2,7.1c3,1.7,6.3,2.6,9.8,2.6h23.3v-22.4h-13.1
		c-2.1,0-3.8-0.7-5.2-2.2c-1.4-1.5-2.1-3.2-2.1-5.3v-26.4h17.3h0.3h19V189c0,3.6,0.9,6.9,2.7,9.9c1.8,3,4.2,5.4,7.2,7.1
		c3,1.7,6.3,2.6,9.8,2.6H631v-22.4H617.9z"/>
	<path class="st1" d="M394.6,129.9v49.7c0,2,0.7,3.8,2.1,5.3c1.4,1.5,3.2,2.2,5.2,2.2H415v22.4h-23.3c-3.5,0-6.7-0.9-9.8-2.6
		c-3-1.7-5.4-4.1-7.2-7.1c-1.8-3-2.7-6.3-2.7-9.9v-59.9H394.6z"/>
	<g>
		<g>
			<path class="st1" d="M475.6,130.3h22.5V207l-13-15.5l-9.5,8.4c-5.3,6.1-12.7,9.1-22.3,9.1c-9.9,0-18.3-3.8-25.3-11.5
				c-7-7.6-10.5-17-10.5-28.1s3.5-20.4,10.5-28.1c7-7.6,15.4-11.5,25.3-11.5c9.6,0,17,3,22.3,9.1V130.3z M445,182.9
				c3.3,3.3,7.6,4.9,12.9,4.9c5.3,0,9.6-1.6,12.9-4.9c3.3-3.3,4.9-7.7,4.9-13.3c0-5.6-1.6-10-4.9-13.3c-3.3-3.3-7.6-4.9-12.9-4.9
				c-5.3,0-9.6,1.6-12.9,4.9c-3.3,3.3-4.9,7.7-4.9,13.3C440,175.2,441.7,179.6,445,182.9z"/>
		</g>
	</g>
	<path class="st1" d="M358.9,145.1c-1.5-3.4-3.7-6.6-6.4-9.1c-3.1-2.9-7-5-11.2-5.8c-3.4-0.7-7-0.3-10.5-0.3c-5,0-10.1,0-15.1,0
		l-20.4,0.1v79.1h20.4c0,0,0-17,0-17c3.5,0,6.9,0,10.4,0c6,0,12.1,0.5,18-0.6c4-0.7,8-2.4,11-5.3c4-3.9,5.5-9.6,6.4-15.1
		c1-6.2,1.2-12.6-0.1-18.8C360.7,149.9,360,147.4,358.9,145.1z M341.8,169.4c-1.8,2-4,3.1-6.8,3.1h-19.7v-21.2H335
		c2.7,0,5,1,6.8,3.1c1.8,2,2.7,4.5,2.7,7.5C344.5,164.9,343.6,167.4,341.8,169.4z"/>
	<path class="st1" d="M475.6,188.9c0,3.6,0.9,6.9,2.7,9.9c1.8,3,4.2,5.4,7.2,7.1c3,1.7,6.3,2.6,9.8,2.6H515v-22.4h-9.4
		c-2.1,0-3.8-0.7-5.2-2.2c-1.4-1.5-2.1-3.2-2.1-5.3"/>
</g>
</svg>
