<svg xmlns="http://www.w3.org/2000/svg" width="33.381" height="91.113" viewBox="0 0 33.381 91.113">
  <g id="Group_795" data-name="Group 795" transform="translate(-6109.419 376.113) rotate(-90)">
    <g id="Rectangle_307" data-name="Rectangle 307" transform="translate(285 6109.419)" fill="#fff" stroke="#ed5c2a" stroke-linecap="round" stroke-linejoin="round" stroke-miterlimit="10" stroke-width="1.4">
      <rect width="91.113" height="33.381" stroke="none"/>
      <rect x="0.7" y="0.7" width="89.713" height="31.981" fill="none"/>
    </g>
    <path id="Path_1027" data-name="Path 1027" d="M710.966,698.968a2.593,2.593,0,0,0,.948.938,2.527,2.527,0,0,0,1.278.343h3.115v-2.688h-1.613a1.308,1.308,0,0,1-.974-.415,1.361,1.361,0,0,1-.4-.977v-4.148H715.9v-2.688H699.581v2.688h2.377v5.65a2.5,2.5,0,0,0,.352,1.3,2.6,2.6,0,0,0,.948.938,2.526,2.526,0,0,0,1.278.343h3.115v-2.688h-1.613a1.311,1.311,0,0,1-.974-.414,1.362,1.362,0,0,1-.4-.978v-4.148h5.947v5.65A2.5,2.5,0,0,0,710.966,698.968Z" transform="translate(1051.173 5418.386) rotate(90)" fill="#ed5c2a"/>
    <line id="Line_39" data-name="Line 39" x2="42.236" transform="translate(297.812 6126.242)" fill="none" stroke="#ed5c2a" stroke-linecap="round" stroke-miterlimit="10" stroke-width="1.4"/>
  </g>
</svg>
