<svg id="facebook" xmlns="http://www.w3.org/2000/svg" width="31.721" height="31.721" viewBox="0 0 31.721 31.721">
  <path id="Path_1013" data-name="Path 1013" d="M291.253,508.668q-.2.032-.4.06Q291.055,508.7,291.253,508.668Zm0,0" transform="translate(-272.835 -477.153)" fill="#f75a25"/>
  <path id="Path_1014" data-name="Path 1014" d="M299.529,507.793l-.189.033Zm0,0" transform="translate(-280.794 -476.333)" fill="#f75a25"/>
  <path id="Path_1015" data-name="Path 1015" d="M278.076,510.34q-.232.026-.466.046Q277.844,510.366,278.076,510.34Zm0,0" transform="translate(-260.41 -478.722)" fill="#f75a25"/>
  <path id="Path_1016" data-name="Path 1016" d="M286.669,509.738l-.224.028Zm0,0" transform="translate(-268.699 -478.157)" fill="#f75a25"/>
  <path id="Path_1017" data-name="Path 1017" d="M306.832,506.41l-.167.035Zm0,0" transform="translate(-287.665 -475.035)" fill="#f75a25"/>
  <path id="Path_1018" data-name="Path 1018" d="M324.619,502.113l-.135.038Zm0,0" transform="translate(-304.381 -471.005)" fill="#f75a25"/>
  <path id="Path_1019" data-name="Path 1019" d="M319.206,503.543l-.147.038Zm0,0" transform="translate(-299.291 -472.346)" fill="#f75a25"/>
  <path id="Path_1020" data-name="Path 1020" d="M312.223,505.254l-.156.035Zm0,0" transform="translate(-292.732 -473.951)" fill="#f75a25"/>
  <path id="Path_1021" data-name="Path 1021" d="M273.731,511.09l-.251.019Zm0,0" transform="translate(-256.537 -479.425)" fill="#f75a25"/>
  <path id="Path_1022" data-name="Path 1022" d="M31.721,15.861A15.861,15.861,0,1,0,15.861,31.721c.093,0,.186,0,.279,0V19.371H12.732V15.4h3.408V12.477c0-3.389,2.069-5.234,5.092-5.234a28.05,28.05,0,0,1,3.055.156v3.542H22.2c-1.645,0-1.963.782-1.963,1.929V15.4h3.933l-.513,3.971h-3.42V31.108A15.869,15.869,0,0,0,31.721,15.861Zm0,0" fill="#f75a25"/>
  <path id="Path_1023" data-name="Path 1023" d="M265.388,511.43q-.248.016-.5.025Q265.14,511.446,265.388,511.43Zm0,0" transform="translate(-248.479 -479.744)" fill="#f75a25"/>
  <path id="Path_1024" data-name="Path 1024" d="M260.767,511.836l-.263.007Zm0,0" transform="translate(-244.364 -480.125)" fill="#f75a25"/>
</svg>
