<svg xmlns="http://www.w3.org/2000/svg" width="29.718" height="29.721" viewBox="0 0 29.718 29.721">
  <g id="Group_445" data-name="Group 445" transform="translate(553.711 -229.324)">
    <path id="Path_1025" data-name="Path 1025" d="M-553.711,367.668c.078-.386.138-.778.239-1.158a6.532,6.532,0,0,1,1.684-3c2.112-2.125,4.2-4.272,6.365-6.346a6.931,6.931,0,0,1,10.587,1.382c.035.057.067.115.068.116a14.367,14.367,0,0,1-1.207,1.281,1.677,1.677,0,0,1-2.268-.16,3.47,3.47,0,0,0-2.521-.99,3.327,3.327,0,0,0-2.375.983c-2.04,2.033-4.084,4.063-6.108,6.112a3.459,3.459,0,0,0,.025,4.861,3.46,3.46,0,0,0,4.883.055c1.309-1.274,2.592-2.575,3.876-3.874a.519.519,0,0,1,.643-.159,8.268,8.268,0,0,0,3.856.388c.047-.006.095-.005.2-.011-.1.109-.173.183-.244.255q-2.85,2.85-5.7,5.7a6.978,6.978,0,0,1-4.275,2.112.613.613,0,0,0-.133.047h-1.276a1.621,1.621,0,0,0-.191-.053,6.846,6.846,0,0,1-5.772-4.726,12.82,12.82,0,0,1-.36-1.544Z" transform="translate(0 -116.221)" fill="#f75a25"/>
    <path id="Path_1026" data-name="Path 1026" d="M-415.628,245.889c.409-.409.761-.782,1.136-1.13a1.717,1.717,0,0,1,2.388.032,3.55,3.55,0,0,0,2.023.979,3.4,3.4,0,0,0,2.938-.99c.956-.944,1.9-1.9,2.853-2.849,1.06-1.06,2.13-2.109,3.176-3.182a3.468,3.468,0,0,0-1.442-5.759,3.312,3.312,0,0,0-3.454.831c-1.333,1.291-2.632,2.619-3.945,3.931-.1.1-.175.2-.364.13a8.644,8.644,0,0,0-4.216-.432c.069-.087.106-.144.154-.191,1.955-1.956,3.891-3.931,5.872-5.86a6.655,6.655,0,0,1,6.945-1.738,6.61,6.61,0,0,1,4.779,5.225A6.5,6.5,0,0,1-398.474,241c-2.093,2.2-4.247,4.341-6.439,6.439a6.956,6.956,0,0,1-9.786-.35C-415.038,246.728-415.312,246.3-415.628,245.889Z" transform="translate(-127.383)" fill="#f75a25"/>
  </g>
</svg>
