<svg id="linkedin" xmlns="http://www.w3.org/2000/svg" width="26.918" height="26.918" viewBox="0 0 26.918 26.918">
  <path id="Path_897" data-name="Path 897" d="M25.879,26h.007V16.124c0-4.83-1.04-8.55-6.686-8.55a5.861,5.861,0,0,0-5.279,2.9h-.079V8.025H8.489V26h5.574V17.1c0-2.343.444-4.609,3.346-4.609,2.859,0,2.9,2.674,2.9,4.759V26Z" transform="translate(1.032 0.921)" fill="#f75a25"/>
  <path id="Path_898" data-name="Path 898" d="M.4,7.977H5.977V25.948H.4Z" transform="translate(0.048 0.97)" fill="#f75a25"/>
  <path id="Path_899" data-name="Path 899" d="M3.232,0A3.248,3.248,0,1,0,6.465,3.232,3.233,3.233,0,0,0,3.232,0Z" fill="#f75a25"/>
</svg>
