<svg xmlns="http://www.w3.org/2000/svg" width="34.219" height="28.3" viewBox="0 0 34.219 28.3">
  <path id="twitter" d="M.62,26.933A19.82,19.82,0,0,0,11.262,30,19.462,19.462,0,0,0,31.006,10.211c1.341-1.147,2.917-3.337,2.917-5.472a1.069,1.069,0,0,0-1.608-.921,4.414,4.414,0,0,1-3.589.6A7.622,7.622,0,0,0,19.7,3.206a7.333,7.333,0,0,0-3.982,6.873A17.685,17.685,0,0,1,4.245,3.813,1.069,1.069,0,0,0,2.5,3.956,7.438,7.438,0,0,0,2.334,11.3a1.111,1.111,0,0,0-.928,1.106,7.528,7.528,0,0,0,2.623,5.685A1.066,1.066,0,0,0,3.756,19.2a7.662,7.662,0,0,0,4.336,4.645,12.426,12.426,0,0,1-6.768,1.13,1.068,1.068,0,0,0-.7,1.96Zm10.934-2.724a1.068,1.068,0,0,0-.628-1.913,5.567,5.567,0,0,1-4.372-2.274,7.528,7.528,0,0,0,1.457-.233,1.068,1.068,0,0,0-.068-2.076,5.478,5.478,0,0,1-4.151-3.728,7.366,7.366,0,0,0,1.628.216,1.068,1.068,0,0,0,.608-1.958A5.3,5.3,0,0,1,3.757,6.453,19.843,19.843,0,0,0,16.9,12.32a1.065,1.065,0,0,0,1.092-1.3,5.208,5.208,0,0,1,2.718-5.93A5.457,5.457,0,0,1,27.383,6.1c.636.67,2.782.7,3.874.441A6.879,6.879,0,0,1,29.31,8.83a1.067,1.067,0,0,0-.454.926,17.354,17.354,0,0,1-4.779,12.751,17.478,17.478,0,0,1-12.813,5.356,17.923,17.923,0,0,1-5.751-.942,14.412,14.412,0,0,0,6.041-2.712Z" transform="translate(0.096 -1.899)" fill="#f75a25" stroke="#f75a25" stroke-width="0.4"/>
</svg>
