<svg xmlns="http://www.w3.org/2000/svg" width="31.654" height="31.801" viewBox="0 0 31.654 31.801">
  <path id="whatsapp" d="M26.878,4.552A15.523,15.523,0,0,0,2.452,23.278L.25,31.32l8.227-2.158a15.5,15.5,0,0,0,7.416,1.889H15.9a15.526,15.526,0,0,0,10.978-26.5ZM15.9,28.43h-.005a12.883,12.883,0,0,1-6.565-1.8l-.471-.28L3.976,27.633l1.3-4.76-.307-.488A12.9,12.9,0,1,1,15.9,28.43Zm7.076-9.661c-.388-.194-2.294-1.132-2.65-1.262s-.614-.194-.872.194-1,1.262-1.228,1.52-.452.291-.84.1a10.592,10.592,0,0,1-3.119-1.925,11.7,11.7,0,0,1-2.157-2.686c-.226-.388,0-.578.17-.791a10.97,10.97,0,0,0,.969-1.326.713.713,0,0,0-.032-.679c-.1-.194-.872-2.1-1.2-2.879-.315-.756-.634-.654-.873-.666s-.485-.014-.743-.014a1.424,1.424,0,0,0-1.034.485,4.349,4.349,0,0,0-1.357,3.235A7.544,7.544,0,0,0,9.6,16.083c.194.259,2.735,4.176,6.624,5.855a22.2,22.2,0,0,0,2.211.817,5.316,5.316,0,0,0,2.442.154,4,4,0,0,0,2.618-1.844,3.24,3.24,0,0,0,.226-1.844C23.622,19.06,23.363,18.963,22.976,18.768Zm0,0" transform="translate(0.034 0.2)" fill="#f75a25" stroke="#f75a25" stroke-width="0.4" fill-rule="evenodd"/>
</svg>
