<svg xmlns="http://www.w3.org/2000/svg" width="79.084" height="86.422" viewBox="0 0 79.084 86.422">
  <g id="Group_974" data-name="Group 974" transform="translate(-275 -566.235)">
    <path id="Path_2050" data-name="Path 2050" d="M390.633,690.512l-3.21,9.138a4.632,4.632,0,0,1,.824.143l2.855-7.912A8.151,8.151,0,0,1,390.633,690.512Z" transform="translate(-83.743 -92.573)" fill="#f15a24"/>
    <circle id="Ellipse_80" data-name="Ellipse 80" cx="11.225" cy="11.225" r="11.225" transform="translate(282.908 572.808)" fill="#f15a24"/>
    <path id="Path_2051" data-name="Path 2051" d="M409.125,599.12l-18.634,53.052a2.032,2.032,0,0,1-2.045,1.215,3.234,3.234,0,0,1-.856-.118l-.029.084-19.524-6.69a2.23,2.23,0,0,1-1.278-1.14A2.329,2.329,0,0,0,368.312,648l19.164,6.587a2.326,2.326,0,0,0,2.956-1.444l.026-.054.413-.651a18.489,18.489,0,0,1,2.051-3.016,3.468,3.468,0,0,1-.041-1.8,13.169,13.169,0,0,1,.826-2.452,19.255,19.255,0,0,1,2.733-4.575.344.344,0,0,1,.149-.111,5.228,5.228,0,0,1,.8-5.683c.165-.184.353-.344.521-.524a2.346,2.346,0,0,0,.333-.521,7.394,7.394,0,0,0,1.055-2.731.433.433,0,0,1,.018-.087.4.4,0,0,1,.208-.491l-.035-.012,10.82-30.806a2.218,2.218,0,0,0,.038-1.4,1.367,1.367,0,0,0-.852-.9l-.621-.207a2.21,2.21,0,0,1,.253,1.988Z" transform="translate(-68.339 -23.015)" fill="#fff"/>
    <path id="Path_2052" data-name="Path 2052" d="M471.645,580.346l7.609,2.691a.249.249,0,0,0,.195-.01.254.254,0,0,0,.131-.145l.169-.477a.255.255,0,0,0-.156-.326l-7.61-2.691a.255.255,0,0,0-.325.155l-.169.477A.256.256,0,0,0,471.645,580.346Z" transform="translate(-146.353 -9.787)" fill="#fff"/>
    <path id="Path_2053" data-name="Path 2053" d="M408.048,791.916l-1.58-.593a.331.331,0,0,0-.252.009.328.328,0,0,0-.172.185l-.409,1.089a.331.331,0,0,0,.193.425l1.58.592a.331.331,0,0,0,.425-.193l.409-1.09a.331.331,0,0,0-.193-.425Z" transform="translate(-97.293 -167.65)" fill="#fff"/>
    <path id="Path_2054" data-name="Path 2054" d="M388.888,570.879l18.223,6.443a1.779,1.779,0,0,1,1,.879,1.662,1.662,0,0,1,.087,1.31l-16.928,47.88a1.708,1.708,0,0,1-1.623,1.121,1.808,1.808,0,0,1-.6-.1l-18.222-6.443a1.733,1.733,0,0,1-1.092-2.19l.844-2.182a8.776,8.776,0,0,1-.918.207l-.568,1.617-1.161,3.556a1.732,1.732,0,0,0,1.158,1.683l19.326,6.622.027-.076c.941.331,2.147.148,2.453-.723l18.634-53.052a1.733,1.733,0,0,0-1.061-2.209l-.095-.033h0l-19.5-6.85a1.734,1.734,0,0,0-2.209,1.06L379.1,590.912a8.241,8.241,0,0,1,1.138-.733l6.421-18.283A1.732,1.732,0,0,1,388.888,570.879ZM380.41,626.27,380,627.36a.585.585,0,0,1-.754.342l-1.58-.592a.587.587,0,0,1-.343-.754l.409-1.09a.585.585,0,0,1,.753-.343h0l1.58.593a.585.585,0,0,1,.342.754Zm13.709-54.631.169-.477a.51.51,0,0,1,.651-.311l7.609,2.691a.51.51,0,0,1,.311.651l-.169.477a.509.509,0,0,1-.651.311l-7.61-2.691A.511.511,0,0,1,394.119,571.639Z" transform="translate(-69.223 -1.49)" fill="#f15a24"/>
    <path id="Path_2055" data-name="Path 2055" d="M441.429,734.961l.1.24.024-.017-.026.012Z" transform="translate(-123.971 -125.682)" fill="#ff0"/>
    <path id="Path_2056" data-name="Path 2056" d="M503.235,703.808a4.075,4.075,0,0,0,1.3-1.977c.055-.285.129-.7-.091-.938a1.489,1.489,0,0,0-.8-.323,5.457,5.457,0,0,0-2.5-.022.369.369,0,0,1-.236-.01l-1.959,5.576a9.613,9.613,0,0,0,2.363-.879A8.376,8.376,0,0,0,503.235,703.808Z" transform="translate(-166.815 -99.947)" fill="#fff"/>
    <path id="Path_2057" data-name="Path 2057" d="M452.115,636.4c.044.023.139.074.257.141a3.03,3.03,0,0,0-1.382-1.522c-1.911-.919-5,.775-7.932,4.325a8.206,8.206,0,0,1,1.1.528C447.1,636.67,450.115,635.342,452.115,636.4Z" transform="translate(-125.185 -51.051)" fill="#f15a24"/>
    <path id="Path_2058" data-name="Path 2058" d="M472.593,773.857a12.912,12.912,0,0,0-.709,2.147,2.665,2.665,0,0,0,.022,1.413.321.321,0,0,1,.126.259,1.211,1.211,0,0,0,.244.291c1.183.992,2.77-.251,3.609-1.1a8.67,8.67,0,0,0,2.106-3.567,8.566,8.566,0,0,0,.365-2.069,3.559,3.559,0,0,0-.24-1.675,2.577,2.577,0,0,1-2.824-.286.416.416,0,0,1-.057.1A18.154,18.154,0,0,0,472.593,773.857Z" transform="translate(-146.594 -151.238)" fill="#fff"/>
    <path id="Path_2059" data-name="Path 2059" d="M405.631,667.307a7.406,7.406,0,0,0,1.13.561v-.01l.758.107c-.007.054-.012.106-.019.159a7.464,7.464,0,0,0,6.256-13.333l-.035.039-.3-.256a7.451,7.451,0,0,0-7.469-.192l-.143.405-.336-.118a7.462,7.462,0,0,0,.154,12.639Z" transform="translate(-94.645 -64.981)" fill="#f15a24"/>
    <path id="Path_2060" data-name="Path 2060" d="M462.341,807.52a4.817,4.817,0,0,0,.11,3.472c.288.582.809.568,1.358.351a5.446,5.446,0,0,0,1.459-.884,7.855,7.855,0,0,0,2.063-2.776,11.437,11.437,0,0,0,.633-1.776c.09-.329.169-.662.239-1a3.031,3.031,0,0,0,.117-.772,3.957,3.957,0,0,1-2.112.909,2.325,2.325,0,0,1-1.855-.711c-.333.453-.666.905-1,1.36A6.67,6.67,0,0,0,462.341,807.52Z" transform="translate(-139.348 -177.211)" fill="#fff"/>
    <path id="Path_2061" data-name="Path 2061" d="M312.951,762.517a19.384,19.384,0,0,1,5.455-.7,17.347,17.347,0,0,0,6.023-1.159,21.4,21.4,0,0,0,2.958-1.65c1.025-.641,2.042-1.3,3.041-1.978,1.056-.719,2.1-1.462,3.089-2.267a19.678,19.678,0,0,0,1.621-1.447c-.044.024-.086.05-.131.072a2.815,2.815,0,0,1-2.167.133l-19.164-6.587a2.839,2.839,0,0,1-1.76-3.6l.156-.477a2.254,2.254,0,0,1,.121-.6l.253-.719.807-2.3.452-1.383a8.7,8.7,0,0,1-3.136-.262.383.383,0,0,1,.2-.738,7.961,7.961,0,0,0,5.587-.53c-.065-.054-.13-.107-.193-.164-.368-.329.175-.868.541-.541a8.155,8.155,0,0,0,5.839,2.048,12.306,12.306,0,0,0,3.311-.757,2.147,2.147,0,0,0,1.121-.666,1.916,1.916,0,0,0,.3-.835c.078-.585-.08-1.208-.716-1.353a.39.39,0,0,1-.064-.021.4.4,0,0,1-.1.009,4.8,4.8,0,0,1-1.044-.147c-2.776-.718-4.309-3.618-7.023-4.433-1.634-.491-3.357.216-4.831.9-1.588.737-3.154,1.553-4.7,2.37a12.687,12.687,0,0,0-3.858,2.755,4.323,4.323,0,0,0-.946,1.834c-.155.683-.195,1.4-.316,2.089a12.868,12.868,0,0,1-2.757,6.252,21.494,21.494,0,0,1-2.852,2.712c-1.388,1.135-2.839,2.192-4.291,3.244a.358.358,0,0,1-.163.068,39.044,39.044,0,0,0,13.987,15.6A10.417,10.417,0,0,1,312.951,762.517Z" transform="translate(-13.869 -121.469)" fill="#fff"/>
    <path id="Path_2062" data-name="Path 2062" d="M388.6,622.247a1.815,1.815,0,0,1,1.274,2.125,2.823,2.823,0,0,1-.353,1.113,2.383,2.383,0,0,1-1.225.943,12.564,12.564,0,0,1-3.813.927,8.9,8.9,0,0,1-5.62-1.589l-.02.014a8.72,8.72,0,0,1-1.411.6l.189.073-.928,2.4a1.222,1.222,0,0,0,.783,1.532L395.7,636.83a1.224,1.224,0,0,0,1.575-.706l16.928-47.88a1.156,1.156,0,0,0-.062-.911,1.273,1.273,0,0,0-.719-.628L395.2,580.262a1.223,1.223,0,0,0-1.574.706l-6.251,17.8a8.215,8.215,0,0,1,5.427-.346c3.264-4.047,6.723-5.869,9.04-4.754,1.713.824,2.577,3.084,2.433,6.362a31.557,31.557,0,0,1-9.44,19.614c-1.811,1.581-3.533,2.4-5,2.4a3.4,3.4,0,0,1-1.493-.329c-2.054-.988-2.872-4.013-2.245-8.3l.36.053c-.056-.033-.114-.062-.169-.1a8.231,8.231,0,0,1-2.914-3.035l-2.681,7.431c.139.051.276.106.411.167a16.733,16.733,0,0,1,3.5,2.529,6.3,6.3,0,0,0,3.632,1.742.673.673,0,0,0,.365.04Z" transform="translate(-75.702 -10.393)" fill="#fff"/>
    <path id="Path_2063" data-name="Path 2063" d="M523.26,731.131a4.571,4.571,0,1,0-4.348-4.566A4.466,4.466,0,0,0,523.26,731.131Z" transform="translate(-181.688 -116.028)" fill="#f15a24"/>
    <path id="Path_2064" data-name="Path 2064" d="M424.581,666.052a3.36,3.36,0,0,0,2.9-.129l.05.117a10.627,10.627,0,0,0,2.7-1.77,30.182,30.182,0,0,0,4.845-7.321,27.707,27.707,0,0,0,2.9-10.349,11.044,11.044,0,0,0-.227-2.957,7.316,7.316,0,0,0-1.007-.624c-1.634-.863-4.312.394-6.947,3.214a8.226,8.226,0,0,1-6.852,14.673C422.734,663.528,423.313,665.382,424.581,666.052Z" transform="translate(-110.171 -56.996)" fill="#fff"/>
    <path id="Path_2065" data-name="Path 2065" d="M417.969,718.81c1.073.516,2.536.214,4.149-.817a4.867,4.867,0,0,1-1.549.278,3.217,3.217,0,0,1-1.52-.36c-1.58-.834-2.3-3.022-2.026-6.057a8.231,8.231,0,0,1-.893-.391C415.6,715.258,416.286,718,417.969,718.81Z" transform="translate(-104.997 -108.179)" fill="#f15a24"/>
    <path id="Path_2066" data-name="Path 2066" d="M489.38,739.014a4.213,4.213,0,0,0,.751-2.267,9.238,9.238,0,0,0-.222-2.692,4.652,4.652,0,0,0-.952-2.025,3.516,3.516,0,0,0-1.1-.77,7.493,7.493,0,0,1-.945,2.49,4.623,4.623,0,0,1-.7,1.06,5.447,5.447,0,0,0-.874,1.042,4.677,4.677,0,0,0-.67,2.237,3.2,3.2,0,0,0,.609,2.186,1.892,1.892,0,0,0,2.2.233l.063-.028a.445.445,0,0,1,.274-.128A4.477,4.477,0,0,0,489.38,739.014Z" transform="translate(-156.176 -122.925)" fill="#fff"/>
    <path id="Path_2067" data-name="Path 2067" d="M382.986,597.4a45.3,45.3,0,0,1,11.538-1.635V595a45.978,45.978,0,0,0-12.15,1.78C382.584,596.98,382.79,597.186,382.986,597.4Z" transform="translate(-79.982 -21.427)" fill="#f15a24"/>
    <path id="Path_2068" data-name="Path 2068" d="M340.479,633l-.5.578a38.77,38.77,0,0,1-45.591,62.385c-.042.07-.085.14-.127.211a.383.383,0,0,1-.661-.386c.045-.077.092-.154.139-.23a39.044,39.044,0,0,1-13.987-15.6.4.4,0,0,1-.31-.642,38.757,38.757,0,0,1,4.155-39.832c-.079-.144-.153-.291-.226-.439l-.255-.2a39.179,39.179,0,0,0-8.115,24A39.542,39.542,0,1,0,340.479,633Z" transform="translate(0 -49.733)" fill="#f15a24"/>
    <path id="Path_2069" data-name="Path 2069" d="M385.853,696.678l3.21-9.138a8.215,8.215,0,0,1-.183-1.018l-3.564,10.148c.068,0,.136-.007.2-.007C385.631,696.663,385.742,696.669,385.853,696.678Z" transform="translate(-82.173 -89.6)" fill="#f15a24"/>
    <path id="Path_2070" data-name="Path 2070" d="M417.613,567.9a1.734,1.734,0,0,1,2.209-1.06l19.5,6.85.012-.034-.3-.1.152-.455-19.2-6.743a2.245,2.245,0,0,0-2.859,1.373l-7.65,21.781.315.11c.085-.07.171-.138.259-.206Z" transform="translate(-100.174)" fill="#f15a24"/>
    <path id="Path_2071" data-name="Path 2071" d="M420.49,709.867v.01a7.406,7.406,0,0,0,.74.255c.007-.053.012-.1.019-.159Z" transform="translate(-108.374 -106.99)" fill="#f15a24"/>
    <path id="Path_2072" data-name="Path 2072" d="M422,719.052a3.217,3.217,0,0,0,1.52.36,4.865,4.865,0,0,0,1.549-.278q.217-.139.438-.3l-.1-.24-.1-.235h0l-.05-.117a3.36,3.36,0,0,1-2.9.129c-1.269-.67-1.847-2.524-1.636-5.146-.253-.067-.5-.145-.747-.235C419.7,716.03,420.419,718.218,422,719.052Z" transform="translate(-107.946 -109.32)" fill="#f15a24"/>
    <path id="Path_2073" data-name="Path 2073" d="M446.943,658.01c-.109-.075-.219-.147-.332-.217l.3.256Z" transform="translate(-127.832 -68.2)" fill="#f15a24"/>
    <path id="Path_2074" data-name="Path 2074" d="M454.964,640.786a7.315,7.315,0,0,1,1.007.624,5.893,5.893,0,0,0-.392-1.16c-.118-.067-.213-.117-.257-.141-2-1.056-5.012.272-7.959,3.471q.338.194.655.419C450.651,641.179,453.33,639.923,454.964,640.786Z" transform="translate(-128.391 -54.762)" fill="#f15a24"/>
    <path id="Path_2075" data-name="Path 2075" d="M500.312,698.293a5.459,5.459,0,0,1,2.5.022,1.489,1.489,0,0,1,.8.323c.22.233.146.653.091.938a4.074,4.074,0,0,1-1.3,1.977,8.375,8.375,0,0,1-1.926,1.428,9.611,9.611,0,0,1-2.363.879l-.284.808a.391.391,0,0,0,.183,0,9.766,9.766,0,0,0,5.065-2.713,4.416,4.416,0,0,0,1.4-2.422,1.791,1.791,0,0,0-.179-1.258,1.661,1.661,0,0,0-.928-.613,6.177,6.177,0,0,0-3.023-.162l-.274.78A.369.369,0,0,0,500.312,698.293Z" transform="translate(-165.986 -97.692)" fill="#f15a24"/>
    <path id="Path_2076" data-name="Path 2076" d="M485.1,727.746a.4.4,0,0,0-.208.491.436.436,0,0,0-.018.087,7.4,7.4,0,0,1-1.055,2.731,2.345,2.345,0,0,1-.333.521c-.168.18-.356.341-.521.525a5.229,5.229,0,0,0-.8,5.683c.271-.1.582.248.448.556a2.577,2.577,0,0,0,2.824.286,2.078,2.078,0,0,0-.191-.339.311.311,0,0,1,.029-.424l-.062.028a1.892,1.892,0,0,1-2.2-.233,3.2,3.2,0,0,1-.609-2.186,4.678,4.678,0,0,1,.67-2.237,5.445,5.445,0,0,1,.874-1.042,4.621,4.621,0,0,0,.7-1.06,7.493,7.493,0,0,0,.945-2.49,3.519,3.519,0,0,1,1.1.77,4.652,4.652,0,0,1,.952,2.025,9.24,9.24,0,0,1,.222,2.692,4.213,4.213,0,0,1-.751,2.267,4.478,4.478,0,0,1-1.57,1.337.383.383,0,0,1,.357.165,2.584,2.584,0,0,1,.221.385,5.458,5.458,0,0,0,1.17-.916c1.386-1.454,1.508-3.455,1.236-5.353a6.284,6.284,0,0,0-1.067-2.86,4.56,4.56,0,0,0-1.885-1.358l-.037.106Z" transform="translate(-153.915 -120.308)" fill="#f15a24"/>
    <path id="Path_2077" data-name="Path 2077" d="M472.469,767.149a19.257,19.257,0,0,0-2.733,4.575,13.176,13.176,0,0,0-.826,2.452,3.467,3.467,0,0,0,.041,1.8c.041-.055.084-.111.124-.166a.416.416,0,0,1,.6-.064,2.666,2.666,0,0,1-.022-1.413,12.9,12.9,0,0,1,.709-2.147,18.157,18.157,0,0,1,2.642-4.492.413.413,0,0,0,.057-.1c.133-.308-.177-.657-.448-.556A.344.344,0,0,0,472.469,767.149Z" transform="translate(-144.369 -149.563)" fill="#f15a24"/>
    <path id="Path_2078" data-name="Path 2078" d="M477.643,766.893a.445.445,0,0,0-.274.128.311.311,0,0,0-.029.424,2.077,2.077,0,0,1,.191.339,3.558,3.558,0,0,1,.24,1.675,8.562,8.562,0,0,1-.365,2.069A8.67,8.67,0,0,1,475.3,775.1c-.839.849-2.426,2.092-3.609,1.1a1.209,1.209,0,0,1-.244-.291.34.34,0,0,1-.07.191l-.363.495a2.325,2.325,0,0,0,1.855.711,3.956,3.956,0,0,0,2.112-.909.865.865,0,0,0-.018-.141.4.4,0,0,1,.639-.385,9.517,9.517,0,0,0,2.915-6.108,4.549,4.549,0,0,0-.3-2.316,2.58,2.58,0,0,0-.221-.385A.383.383,0,0,0,477.643,766.893Z" transform="translate(-146.01 -149.467)" fill="#f15a24"/>
    <path id="Path_2079" data-name="Path 2079" d="M466.107,801.519a.865.865,0,0,1,.018.141,3.032,3.032,0,0,1-.117.772c-.07.334-.148.667-.239,1a11.44,11.44,0,0,1-.633,1.776,7.854,7.854,0,0,1-2.063,2.776,5.45,5.45,0,0,1-1.459.884c-.549.217-1.07.232-1.358-.351a4.816,4.816,0,0,1-.11-3.472,6.666,6.666,0,0,1,1.016-1.824c.33-.455.664-.907,1-1.36l.363-.495a.34.34,0,0,0,.07-.191.321.321,0,0,0-.126-.259.416.416,0,0,0-.6.064c-.041.055-.083.111-.125.166a18.5,18.5,0,0,0-2.051,3.016l.724-1.14.431.273-1.121,1.765a2.837,2.837,0,0,1-.322.634.418.418,0,0,1,.262.669c-.169.208-.348.408-.532.6a4.887,4.887,0,0,0,.449,1.9,1.515,1.515,0,0,0,1.485.919,4.08,4.08,0,0,0,1.83-.722,7.929,7.929,0,0,0,2.655-2.959,11.812,11.812,0,0,0,.916-2.3c.115-.4.212-.807.3-1.216a2.952,2.952,0,0,0,.088-1.264.355.355,0,0,0-.1-.181A.4.4,0,0,0,466.107,801.519Z" transform="translate(-137.154 -174.734)" fill="#f15a24"/>
    <path id="Path_2080" data-name="Path 2080" d="M392.756,747.115a1.916,1.916,0,0,1-.3.835,2.147,2.147,0,0,1-1.121.666,12.3,12.3,0,0,1-3.311.757,8.156,8.156,0,0,1-5.839-2.048c-.366-.327-.909.212-.541.541.063.056.128.109.193.164.088-.043.177-.087.264-.134.426-.23.8.4.406.647a8.9,8.9,0,0,0,5.62,1.589,12.564,12.564,0,0,0,3.813-.927,2.383,2.383,0,0,0,1.225-.943,2.822,2.822,0,0,0,.353-1.113,1.815,1.815,0,0,0-1.274-2.125.384.384,0,0,0-.193,0,.39.39,0,0,1-.074.712.4.4,0,0,0,.064.021C392.676,745.906,392.834,746.53,392.756,747.115Z" transform="translate(-79.347 -133.171)" fill="#f15a24"/>
    <path id="Path_2081" data-name="Path 2081" d="M363.067,757.442l-.022.067.041.014-.08.228a8.82,8.82,0,0,0,.918-.207l.087-.224.286.111a8.724,8.724,0,0,0,1.412-.6l.02-.014c.4-.244.02-.877-.406-.647-.087.047-.176.09-.264.134a7.961,7.961,0,0,1-5.587.53.383.383,0,0,0-.2.738,8.7,8.7,0,0,0,3.136.262l.178-.546Z" transform="translate(-62.569 -141.441)" fill="#f15a24"/>
    <path id="Path_2082" data-name="Path 2082" d="M376.387,819.94a2.806,2.806,0,0,1-.974.892,19.7,19.7,0,0,1-1.621,1.447c-.992.8-2.034,1.548-3.089,2.267-1,.681-2.016,1.337-3.041,1.978a21.4,21.4,0,0,1-2.958,1.65,17.346,17.346,0,0,1-6.023,1.159,19.384,19.384,0,0,0-5.455.7,10.417,10.417,0,0,0-5.345,4.776c-.046.077-.093.153-.139.23a.383.383,0,0,0,.661.386c.041-.071.084-.141.127-.211a9.742,9.742,0,0,1,4.651-4.354,16.768,16.768,0,0,1,5.291-.751,19.174,19.174,0,0,0,6.05-1.041,18.208,18.208,0,0,0,3.072-1.6c.98-.608,1.953-1.227,2.912-1.867,1.187-.793,2.355-1.616,3.477-2.5a19.747,19.747,0,0,0,2.135-1.889c.184-.195.363-.395.532-.6A.418.418,0,0,0,376.387,819.94Z" transform="translate(-54.145 -188.982)" fill="#f15a24"/>
    <path id="Path_2083" data-name="Path 2083" d="M292.486,749.436a.358.358,0,0,0,.163-.068c1.452-1.052,2.9-2.109,4.291-3.244a21.48,21.48,0,0,0,2.852-2.712,12.868,12.868,0,0,0,2.757-6.252c.121-.691.16-1.406.316-2.089a4.323,4.323,0,0,1,.946-1.834,12.686,12.686,0,0,1,3.857-2.755c1.548-.818,3.114-1.633,4.7-2.37,1.473-.684,3.2-1.391,4.831-.9,2.714.815,4.247,3.715,7.023,4.433a4.8,4.8,0,0,0,1.044.147.4.4,0,0,0,.1-.009.39.39,0,0,0,.075-.712.386.386,0,0,0-.171-.044,6.3,6.3,0,0,1-3.633-1.742,16.736,16.736,0,0,0-3.5-2.529c-.135-.061-.273-.116-.411-.167l-.168.467-.48-.173.161-.447a4.616,4.616,0,0,0-.824-.143c-.11-.009-.221-.015-.333-.015-.068,0-.136,0-.2.007a7.938,7.938,0,0,0-2.346.521,46.205,46.205,0,0,0-4.917,2.336c-2.593,1.3-6.137,2.935-6.568,6.186a14.745,14.745,0,0,1-2.2,6.777,15.551,15.551,0,0,1-2.457,2.641c-1.237,1.094-2.562,2.087-3.891,3.064q-.616.453-1.235.9a.414.414,0,0,0-.086.086A.4.4,0,0,0,292.486,749.436Z" transform="translate(-12.736 -119.213)" fill="#f15a24"/>
    <path id="Path_2084" data-name="Path 2084" d="M468.279,595.406a1.733,1.733,0,0,1,1.061,2.209l-18.634,53.052c-.306.871-1.512,1.054-2.453.723l-.027.076.2.068-.137.4a3.24,3.24,0,0,0,.856.118,2.032,2.032,0,0,0,2.045-1.215l18.634-53.052a2.229,2.229,0,0,0-.094-1.714,2.258,2.258,0,0,0-.159-.274l-1.372-.457-.012.034h0Z" transform="translate(-129.035 -21.679)" fill="#f15a24"/>
    <path id="Path_2085" data-name="Path 2085" d="M366.325,777.257l-.253.719a2.249,2.249,0,0,0-.121.6l.425-1.3Z" transform="translate(-67.749 -157.188)" fill="#f15a24"/>
    <path id="Path_2086" data-name="Path 2086" d="M366.808,783.826a2.23,2.23,0,0,0,1.278,1.14l19.524,6.69.029-.084.137-.4-.2-.068-19.326-6.622A1.732,1.732,0,0,1,367.1,782.8l-.177.543A2.33,2.33,0,0,0,366.808,783.826Z" transform="translate(-68.387 -161.318)" fill="#f15a24"/>
    <path id="Path_2087" data-name="Path 2087" d="M368.224,768.25l-.807,2.3.051.018Z" transform="translate(-68.841 -150.479)" fill="#f15a24"/>
    <path id="Path_2088" data-name="Path 2088" d="M373.092,761.573l-.607,1.86.568-1.617.08-.228Z" transform="translate(-72.615 -145.505)" fill="#f15a24"/>
    <path id="Path_2089" data-name="Path 2089" d="M503.108,593.635l1.372.457.621.207a1.367,1.367,0,0,1,.852.9,2.217,2.217,0,0,1-.038,1.4L495.094,627.4l.035.012.446.157.037-.106.18-.513.284-.808,1.959-5.576.274-.78,8.086-23.022a2.734,2.734,0,0,0,.041-1.726,1.875,1.875,0,0,0-1.171-1.221l-2.3-.765-.01.029-.152.455Z" transform="translate(-163.946 -19.976)" fill="#f15a24"/>
    <path id="Path_2090" data-name="Path 2090" d="M393.037,695.879l-2.855,7.912-.161.447.48.174.168-.467,2.681-7.431C393.236,696.308,393.133,696.1,393.037,695.879Z" transform="translate(-85.678 -96.57)" fill="#f15a24"/>
    <path id="Path_2091" data-name="Path 2091" d="M393.711,578.772l18.222,6.443a1.273,1.273,0,0,1,.719.628,1.156,1.156,0,0,1,.062.911l-16.929,47.88a1.223,1.223,0,0,1-1.574.706L375.989,628.9a1.222,1.222,0,0,1-.783-1.532l.928-2.4-.189-.073-.286-.111-.087.224-.844,2.182a1.733,1.733,0,0,0,1.092,2.19l18.222,6.443a1.805,1.805,0,0,0,.6.1,1.708,1.708,0,0,0,1.623-1.121l16.929-47.88a1.662,1.662,0,0,0-.087-1.31,1.778,1.778,0,0,0-1-.879l-18.223-6.443a1.732,1.732,0,0,0-2.225,1.017l-6.421,18.283c.211-.113.428-.218.65-.312l6.251-17.8A1.223,1.223,0,0,1,393.711,578.772Z" transform="translate(-74.215 -8.903)" fill="#f15a24"/>
    <path id="Path_2092" data-name="Path 2092" d="M415.935,657.039c-.164.089-.323.186-.479.287l.336.118Z" transform="translate(-104.624 -67.639)" fill="#f15a24"/>
    <path id="Path_2093" data-name="Path 2093" d="M470.815,579.842l7.61,2.691a.51.51,0,0,0,.651-.311l.169-.477a.51.51,0,0,0-.311-.651l-7.609-2.691a.51.51,0,0,0-.651.311l-.169.477A.511.511,0,0,0,470.815,579.842Zm-.07-.566.169-.477a.253.253,0,0,1,.325-.155l7.61,2.691a.255.255,0,0,1,.156.326l-.169.477a.253.253,0,0,1-.131.145.249.249,0,0,1-.195.01L470.9,579.6A.256.256,0,0,1,470.745,579.276Z" transform="translate(-145.607 -9.042)" fill="#f15a24"/>
    <path id="Path_2094" data-name="Path 2094" d="M407.393,790.931l-1.58-.593h0a.585.585,0,0,0-.753.343l-.409,1.09a.587.587,0,0,0,.343.754l1.58.592a.586.586,0,0,0,.754-.342l.408-1.09a.585.585,0,0,0-.342-.754Zm.1.664-.409,1.09a.33.33,0,0,1-.425.193l-1.58-.592a.331.331,0,0,1-.193-.425l.409-1.089a.328.328,0,0,1,.172-.185.331.331,0,0,1,.252-.009l1.58.593a.331.331,0,0,1,.193.425Z" transform="translate(-96.548 -166.904)" fill="#f15a24"/>
    <path id="Path_2095" data-name="Path 2095" d="M314.99,612.98a11.984,11.984,0,0,0,8.87-20.049c-.2-.215-.4-.42-.612-.621a11.983,11.983,0,0,0-19.022,13.957c.073.148.147.295.226.439A12,12,0,0,0,314.99,612.98Zm0-23.215a11.225,11.225,0,1,1-11.225,11.225A11.237,11.237,0,0,1,314.99,589.765Z" transform="translate(-20.857 -16.957)" fill="#f15a24"/>
    <path id="Path_2096" data-name="Path 2096" d="M399.769,662.055c.1.216.2.429.313.635A8.231,8.231,0,0,0,403,665.726c.055.034.113.063.169.1l.4.058c-.007.051-.012.1-.019.151a8.257,8.257,0,0,0,.893.391c.245.09.494.168.747.235a8.226,8.226,0,0,0,6.852-14.673q-.317-.224-.655-.419a8.19,8.19,0,0,0-1.1-.528c-.076.093-.153.185-.229.281l-.6-.479.05-.062a8.215,8.215,0,0,0-5.427.346c-.222.094-.439.2-.65.312a8.239,8.239,0,0,0-1.138.733c-.088.067-.174.135-.259.206a8.218,8.218,0,0,0-2.974,6.328,8.356,8.356,0,0,0,.058.966,8.176,8.176,0,0,0,.652,2.387Zm3.473-9.621c.156-.1.315-.2.479-.287a7.451,7.451,0,0,1,7.469.192c.113.069.223.142.332.217a7.466,7.466,0,1,1-8.28-.122Z" transform="translate(-92.41 -62.746)" fill="#f15a24"/>
    <path id="Path_2097" data-name="Path 2097" d="M515.912,724.331A5.118,5.118,0,1,0,521.025,719,5.231,5.231,0,0,0,515.912,724.331Zm5.113-4.566a4.571,4.571,0,1,1-4.348,4.566A4.466,4.466,0,0,1,521.025,719.765Z" transform="translate(-179.453 -113.793)" fill="#f15a24"/>
    <path id="Path_2098" data-name="Path 2098" d="M415.39,660.138a3.405,3.405,0,0,0,1.493.329c1.464,0,3.186-.817,5-2.4a31.558,31.558,0,0,0,9.439-19.614c.143-3.279-.721-5.538-2.433-6.362-2.317-1.114-5.776.707-9.04,4.754l-.05.062.6.479c.076-.1.153-.188.229-.281,2.931-3.549,6.021-5.244,7.932-4.325a3.03,3.03,0,0,1,1.382,1.522,5.889,5.889,0,0,1,.392,1.16,11.043,11.043,0,0,1,.227,2.957,27.707,27.707,0,0,1-2.9,10.349,30.18,30.18,0,0,1-4.845,7.321,18.962,18.962,0,0,0,1.857-1.862l.384.336a14.119,14.119,0,0,1-4.719,3.754l-.024.017c-.147.1-.293.2-.438.3-1.614,1.031-3.077,1.333-4.149.817-1.683-.81-2.366-3.552-1.84-7.347.007-.051.012-.1.019-.151l-.4-.058-.36-.053C412.518,656.125,413.336,659.149,415.39,660.138Z" transform="translate(-102.749 -48.817)" fill="#f15a24"/>
    <path id="Path_2099" data-name="Path 2099" d="M441.036,723.435l.1.235.1.235.026-.012a14.117,14.117,0,0,0,4.719-3.754l-.384-.336a18.965,18.965,0,0,1-1.857,1.862,10.627,10.627,0,0,1-2.7,1.77Z" transform="translate(-123.679 -114.391)" fill="#f15a24"/>
    <path id="Path_2100" data-name="Path 2100" d="M388.936,774.976a2.326,2.326,0,0,1-2.956,1.444l-19.164-6.587a2.333,2.333,0,0,1-1.442-2.959l.177-.543,1.161-3.556.607-1.86.022-.067-.485-.159-.178.546-.452,1.383-.756,2.316-.425,1.3-.156.477a2.84,2.84,0,0,0,1.76,3.6l19.164,6.587a2.814,2.814,0,0,0,2.167-.133c.045-.022.087-.048.131-.072a2.806,2.806,0,0,0,.974-.892,2.837,2.837,0,0,0,.322-.634l1.121-1.765-.431-.273-.724,1.14-.413.651Z" transform="translate(-66.844 -144.847)" fill="#f15a24"/>
  </g>
</svg>
