<svg xmlns="http://www.w3.org/2000/svg" width="124.981" height="148" viewBox="0 0 124.981 148">
  <g id="Group_820" data-name="Group 820" transform="translate(-248 -387)">
    <g id="Group_425" data-name="Group 425" transform="translate(248 475.617)">
      <g id="Ellipse_69" data-name="Ellipse 69" transform="translate(0 0.383)" fill="none" stroke="#f75a25" stroke-width="0.5">
        <circle cx="29.5" cy="29.5" r="29.5" stroke="none"/>
        <circle cx="29.5" cy="29.5" r="29.25" fill="none"/>
      </g>
      <ellipse id="Ellipse_63" data-name="Ellipse 63" cx="23.5" cy="23" rx="23.5" ry="23" transform="translate(6 6.383)" fill="#f75a25"/>
    </g>
    <path id="Path_1007" data-name="Path 1007" d="M-508.512-1037.056v9.625c-1.777,2.168-18.646,21.625-50.682,21.625-32.108,0-48.493-19.466-50.2-21.619v-13.713h.052v-.76c-.019-9.862-.037-14.611-.056-19.342-.019-5.021-.039-10.023-.059-21.1-.013-7.555-.026-15.366,1.318-22.919a45.686,45.686,0,0,1,6.275-16.883c10.585-16.42,30.416-25.9,49.346-23.6a48.477,48.477,0,0,1,14.992,4.406,50.793,50.793,0,0,1,21.1,18.662,44.36,44.36,0,0,1,3.844,7.834h1.631a46.1,46.1,0,0,0-4.193-8.643,52.3,52.3,0,0,0-21.727-19.22,49.972,49.972,0,0,0-15.458-4.544c-19.493-2.371-39.912,7.386-50.814,24.294a47.209,47.209,0,0,0-6.487,17.439c-1.366,7.672-1.353,15.553-1.339,23.175.019,11.077.039,16.081.059,21.1.018,4.608.035,9.231.053,18.581l-.048,15.738.147.2a52.453,52.453,0,0,0,12.69,11.241c7.761,5.1,20.807,11.183,38.882,11.183,34.533,0,51.871-22.191,52.043-22.414l.155-.2v-10.147Z" transform="translate(879.978 1534.597)" fill="#f75a25"/>
  </g>
</svg>
