<svg xmlns="http://www.w3.org/2000/svg" width="38.919" height="39" viewBox="0 0 38.919 39">
  <g id="Group_319" data-name="Group 319" transform="translate(1826.304 344.61)">
    <path id="Path_1004" data-name="Path 1004" d="M-1808.018-344.11h2.37a2.136,2.136,0,0,0,.285.062,18.063,18.063,0,0,1,11.028,4.7c5.219,4.775,7.4,10.717,6.05,17.7a18.9,18.9,0,0,1-26.7,13.366,1.049,1.049,0,0,0-.734-.115c-2.376.554-4.757,1.087-7.135,1.634-.909.209-1.813.439-2.72.66h-.148c.015-.1.024-.2.045-.292q1.06-4.848,2.114-9.7a.9.9,0,0,0-.076-.552,19.157,19.157,0,0,1-1.879-5.555c-.107-.644-.186-1.292-.278-1.939v-2.3c.121-.829.211-1.663.367-2.485a18.965,18.965,0,0,1,15.254-14.884C-1809.459-343.932-1808.737-344.013-1808.018-344.11Zm-13.827,34.06c.113-.021.16-.027.208-.038,2.127-.482,4.253-.971,6.383-1.438a.979.979,0,0,1,.615.093,15.808,15.808,0,0,0,14.594.494,15.813,15.813,0,0,0,8.891-17.317,16.039,16.039,0,0,0-18.925-12.558,15.667,15.667,0,0,0-10.741,7.862,15.113,15.113,0,0,0-1.88,9.611,16.4,16.4,0,0,0,2.164,6.18.917.917,0,0,1,.114.583c-.208,1.041-.45,2.075-.678,3.112C-1821.346-312.346-1821.589-311.226-1821.845-310.05Z" transform="translate(0)" fill="#f75a25" stroke="#f75a25" stroke-width="1"/>
    <path id="Path_1005" data-name="Path 1005" d="M-1684-202.655c.711-.175,1.117.279,1.391.981.4,1.011.815,2.013,1.238,3.014a.82.82,0,0,1-.042.846c-.317.437-.646.867-1,1.272-.4.459-.429.578-.113,1.1a11.866,11.866,0,0,0,5.836,5.039c.475.193.652.167.973-.217.411-.493.821-.988,1.215-1.5s.552-.584,1.159-.312c.821.369,1.625.773,2.436,1.164.289.139.568.3.864.422a.766.766,0,0,1,.475.826,3.75,3.75,0,0,1-3.529,3.62,8.555,8.555,0,0,1-3.647-.637,15.843,15.843,0,0,1-8.07-6.155,12.336,12.336,0,0,1-2.094-3.685,4.919,4.919,0,0,1,.971-4.957A1.932,1.932,0,0,1-1684-202.655Z" transform="translate(-128.319 -130.921)" fill="#f75a25" stroke="#f75a25" stroke-width="1"/>
  </g>
</svg>
