<svg xmlns="http://www.w3.org/2000/svg" width="58.642" height="40.417" viewBox="0 0 58.642 40.417">
  <g id="Group_318" data-name="Group 318" transform="translate(-775.084 -741.658)">
    <path id="Path_1000" data-name="Path 1000" d="M-218.134-213.42a3.5,3.5,0,0,1-.454-.206q-9.435-5.972-18.865-11.95c-.127-.081-.249-.169-.444-.3l19.763-13.032Z" transform="translate(1051.86 988.032)" fill="#f75a25"/>
    <path id="Path_1001" data-name="Path 1001" d="M-478.782-290.914q12.687,0,25.375,0a3.673,3.673,0,0,1,3.709,2.583.626.626,0,0,1-.3.836q-14.183,9.338-28.345,18.71a.722.722,0,0,1-.949-.023q-13.8-9.135-27.622-18.245l-.335-.22c-.891-.588-.909-.6-.437-1.567a3.494,3.494,0,0,1,2.958-2.055c.265-.026.534-.018.8-.018Z" transform="translate(1283.192 1032.572)" fill="#f75a25"/>
    <path id="Path_1002" data-name="Path 1002" d="M-478.533-114.3q-12.692,0-25.383,0a3.653,3.653,0,0,1-3.663-2.489.657.657,0,0,1,.313-.923q11.073-6.979,22.112-14.012a.7.7,0,0,1,.9.024c1.471,1,2.968,1.951,4.437,2.95a2.1,2.1,0,0,0,2.6.008c1.5-1.018,3.029-2,4.533-3.012a.588.588,0,0,1,.757,0q11.12,7.066,22.257,14.1a.55.55,0,0,1,.265.741,3.629,3.629,0,0,1-3.172,2.593c-.266.021-.534.018-.8.018Z" transform="translate(1282.9 896.37)" fill="#f75a25"/>
    <path id="Path_1003" data-name="Path 1003" d="M-508.79-238.841l19.747,13.036-19.747,12.511Z" transform="translate(1283.874 987.972)" fill="#f75a25"/>
  </g>
</svg>
