<svg xmlns="http://www.w3.org/2000/svg" width="38.553" height="38.62" viewBox="0 0 38.553 38.62">
  <path id="Path_998" data-name="Path 998" d="M-627.4,286.332c-.941-.2-1.9-.36-2.821-.618a23.422,23.422,0,0,1-5.4-2.377,50.459,50.459,0,0,1-12.674-10.647,41.376,41.376,0,0,1-6.079-8.91,19.45,19.45,0,0,1-2.035-6.313,6.708,6.708,0,0,1,.566-4.078,5.072,5.072,0,0,1,.818-1.119c1.12-1.155,2.281-2.271,3.406-3.422a3.841,3.841,0,0,1,5.456,0c1.756,1.711,3.483,3.451,5.2,5.2a3.608,3.608,0,0,1,.022,5.25,3.682,3.682,0,0,1-1.144.7,3.928,3.928,0,0,0-2.339,2.1,3.218,3.218,0,0,0-.147,2.171,13.113,13.113,0,0,0,3.182,5.4,17.165,17.165,0,0,0,5.182,4.018,4.928,4.928,0,0,0,2.814.679,3.473,3.473,0,0,0,2.983-2.166,4.05,4.05,0,0,1,1.516-2.05,3.61,3.61,0,0,1,4.538.506q2.716,2.644,5.361,5.36a3.822,3.822,0,0,1-.074,5.343c-1.155,1.174-2.329,2.329-3.492,3.5a5,5,0,0,1-2.977,1.4,2.5,2.5,0,0,0-.284.072Z" transform="translate(656.487 -247.712)" fill="#f75a25"/>
</svg>
