<svg xmlns="http://www.w3.org/2000/svg" width="16.201" height="21.719" viewBox="0 0 16.201 21.719">
  <path id="Path_986" data-name="Path 986" d="M5976.058-390.763q-.013-.309-.039-.622a8.489,8.489,0,0,0-1.124-3.852,7.282,7.282,0,0,0-3.02-2.672,6.96,6.96,0,0,0-2.147-.631,7.48,7.48,0,0,0-7.063,3.376,6.583,6.583,0,0,0-.9,2.422,18.333,18.333,0,0,0-.187,3.25c.005,3.034.011,2.837.016,5.7h-.007v2.078a9.11,9.11,0,0,0,7.188,3.119,9.359,9.359,0,0,0,7.255-3.119v-2.078h0C5976.045-384.938,5976.093-389.972,5976.058-390.763Z" transform="translate(-5960.728 399.459)" fill="#fff" stroke="#f75a25" stroke-width="1.7"/>
</svg>
