<svg xmlns="http://www.w3.org/2000/svg" width="68.059" height="66.411" viewBox="0 0 68.059 66.411">
  <g id="Group_248" data-name="Group 248" transform="translate(2804.874 -2263.401)">
    <path id="Path_970" data-name="Path 970" d="M-2736.795,2294.085a2.682,2.682,0,0,1-2.926,1.756c-1.991-.071-3.987-.018-5.98-.018h-.79v.841q0,12.559,0,25.118c0,1.315-.145,1.464-1.437,1.465q-3.555,0-7.11,0h-.767c0,1.785,0,3.486,0,5.188,0,1.132-.237,1.375-1.352,1.375q-23.158,0-46.316,0c-1.137,0-1.377-.237-1.377-1.348q0-11.462,0-22.926c0-1.123.228-1.348,1.367-1.348h12.716v-.87q0-19.238,0-38.475c0-1.222.208-1.433,1.42-1.433q14.652,0,29.3-.01a2.056,2.056,0,0,1,1.587.647q5.666,5.705,11.372,11.37a1.856,1.856,0,0,1,.6,1.464c-.033,1.634-.011,3.27-.011,5h.753c1.971,0,3.944.05,5.914-.017a2.816,2.816,0,0,1,3.029,1.723Zm-52.22-28.951v39.055h31.807c1.184,0,1.4.215,1.4,1.38q0,7.575,0,15.15v.809h7.567v-25.706H-2749q-4.12,0-8.24,0a2.339,2.339,0,0,1-2.649-2.657q-.01-4.286,0-8.572c0-1.843.885-2.713,2.743-2.714q4.086,0,8.173,0h.724v-4.655h-.775q-4.984,0-9.967,0c-1.077,0-1.313-.24-1.313-1.335q0-5.017,0-10.034v-.719Zm31.477,40.807h-45.555v22.124h45.555Zm9.249-22.357q-4.484,0-8.968,0c-.774,0-.928.156-.929.938q-.005,4.351,0,8.7c0,.75.145.9.9.9q8.935.005,17.87,0c.809,0,.917-.114.918-.933q0-4.318,0-8.636c0-.858-.109-.968-.952-.969Q-2743.872,2283.582-2748.289,2283.585Zm-1.413-8.085-8.839-8.835v8.835Z" transform="translate(-0.021)" fill="#f75a25"/>
    <path id="Path_971" data-name="Path 971" d="M-2731.7,2318.494c0,4.449.011,8.9-.012,13.348a8.55,8.55,0,0,1-.272,2.02c-.367,1.456-.8,2.9-1.208,4.342-.134.477-.342.883-.926.869-.547-.012-.747-.4-.873-.853-.464-1.66-.931-3.319-1.382-4.982a3.272,3.272,0,0,1-.1-.849q-.008-13.946,0-27.891c0-1.057.232-1.291,1.284-1.3.708-.005,1.417,0,2.125,0,1.146,0,1.371.225,1.372,1.35Q-2731.7,2311.521-2731.7,2318.494Zm-3.033-13.574v26.992h1.284V2304.92Zm.571,29.926.145,0,.341-1.213-.831.039Z" transform="translate(-61.476 -35.772)" fill="#f75a25"/>
    <path id="Path_972" data-name="Path 972" d="M-2804.872,2324.122c0-4.471-.01-8.943.012-13.414a8.211,8.211,0,0,1,.266-1.953c.368-1.456.8-2.9,1.206-4.343.133-.474.326-.891.912-.886s.769.431.9.9c.453,1.617.914,3.232,1.354,4.852a3.794,3.794,0,0,1,.125.979q.01,13.912,0,27.824c0,1.083-.234,1.312-1.337,1.317-.752,0-1.505.009-2.258,0-.924-.013-1.184-.276-1.184-1.2Q-2804.874,2331.161-2804.872,2324.122Zm3.03,13.558v-26.992h-1.28v26.992Zm-.571-29.93-.148.008-.343,1.211.83-.039Z" transform="translate(0 -36.068)" fill="#f75a25"/>
    <path id="Path_973" data-name="Path 973" d="M-2622.346,2314.057a4.368,4.368,0,0,1-4.345-4.356,4.384,4.384,0,0,1,4.372-4.338A4.4,4.4,0,0,1-2618,2309.7,4.392,4.392,0,0,1-2622.346,2314.057Zm2.642-4.367a2.635,2.635,0,0,0-2.684-2.617,2.667,2.667,0,0,0-2.619,2.632,2.71,2.71,0,0,0,2.667,2.671A2.673,2.673,0,0,0-2619.7,2309.69Z" transform="translate(-160.168 -37.719)" fill="#f75a25"/>
    <path id="Path_974" data-name="Path 974" d="M-2741.6,2750.632a4.338,4.338,0,0,1,4.363,4.325,4.353,4.353,0,0,1-4.278,4.35,4.339,4.339,0,0,1-4.39-4.3A4.326,4.326,0,0,1-2741.6,2750.632Zm2.663,4.358a2.652,2.652,0,0,0-2.629-2.684,2.678,2.678,0,0,0-2.656,2.668,2.634,2.634,0,0,0,2.606,2.628A2.613,2.613,0,0,0-2738.933,2754.99Z" transform="translate(-53.011 -437.971)" fill="#f75a25"/>
    <path id="Path_975" data-name="Path 975" d="M-2483.011,2746.211c-1.372,0-2.744.009-4.116,0-.673-.007-1.045-.335-1.016-.872a.826.826,0,0,1,.933-.825q4.281-.018,8.562,0a.817.817,0,0,1,.916.84c.02.519-.332.848-.964.854C-2480.135,2746.222-2481.573,2746.211-2483.011,2746.211Z" transform="translate(-284.708 -432.461)" fill="#f75a25"/>
    <path id="Path_976" data-name="Path 976" d="M-2482.894,2786.295c1.371,0,2.743-.005,4.114,0,.7,0,1.045.287,1.05.824s-.338.855-1.031.858q-4.18.019-8.361,0c-.682,0-1.033-.338-1.019-.872s.359-.806,1.067-.81C-2485.681,2786.29-2484.287,2786.295-2482.894,2786.295Z" transform="translate(-284.711 -470.027)" fill="#f75a25"/>
    <path id="Path_977" data-name="Path 977" d="M-2482.973,2829.392c-1.372,0-2.743.006-4.114,0-.7,0-1.048-.285-1.058-.82s.344-.859,1.029-.862q4.18-.019,8.36,0c.689,0,1.034.328,1.022.866s-.36.813-1.06.816C-2480.187,2829.4-2481.58,2829.392-2482.973,2829.392Z" transform="translate(-284.707 -507.245)" fill="#f75a25"/>
    <path id="Path_978" data-name="Path 978" d="M-2330.009,2480.924a4.32,4.32,0,0,1-4.245-4.435,4.35,4.35,0,0,1,4.455-4.237,4.344,4.344,0,0,1,4.208,4.478A4.322,4.322,0,0,1-2330.009,2480.924Zm.083-6.969a2.62,2.62,0,0,0-2.632,2.662,2.656,2.656,0,0,0,2.611,2.636,2.684,2.684,0,0,0,2.677-2.648A2.645,2.645,0,0,0-2329.926,2473.955Z" transform="translate(-423.039 -187.735)" fill="#f75a25"/>
    <path id="Path_979" data-name="Path 979" d="M-2235.066,2493.94c-.862,0-1.725.01-2.587,0-.621-.01-.989-.333-.973-.842a.819.819,0,0,1,.913-.843q2.652-.029,5.305,0a.814.814,0,0,1,.906.848c.011.511-.35.827-.977.837C-2233.341,2493.951-2234.2,2493.94-2235.066,2493.94Z" transform="translate(-508.999 -205.7)" fill="#f75a25"/>
    <path id="Path_980" data-name="Path 980" d="M-2235.049,2522.852c-.862,0-1.724.01-2.586,0-.626-.01-.994-.327-.979-.836.019-.617.428-.851.972-.855q2.586-.022,5.173,0c.542,0,.956.231.978.849.019.529-.361.836-1.037.844C-2233.369,2522.86-2234.209,2522.852-2235.049,2522.852Z" transform="translate(-509.009 -231.687)" fill="#f75a25"/>
    <path id="Path_981" data-name="Path 981" d="M-2594.007,2339.24a1.159,1.159,0,0,1-1.157-1.187,1.182,1.182,0,0,1,1.155-1.128,1.192,1.192,0,0,1,1.161,1.193A1.177,1.177,0,0,1-2594.007,2339.24Z" transform="translate(-188.508 -66.092)" fill="#f75a25"/>
    <path id="Path_982" data-name="Path 982" d="M-2712.1,2783.325a1.154,1.154,0,0,1-1.185,1.15,1.144,1.144,0,0,1-1.112-1.153,1.126,1.126,0,0,1,1.116-1.143A1.137,1.137,0,0,1-2712.1,2783.325Z" transform="translate(-81.328 -466.328)" fill="#f75a25"/>
    <path id="Path_983" data-name="Path 983" d="M-2301.562,2503.8a1.141,1.141,0,0,1,1.112,1.216,1.121,1.121,0,0,1-1.172,1.084,1.133,1.133,0,0,1-1.117-1.209A1.152,1.152,0,0,1-2301.562,2503.8Z" transform="translate(-451.367 -216.09)" fill="#f75a25"/>
  </g>
</svg>
