<svg xmlns="http://www.w3.org/2000/svg" width="384.073" height="529.995" viewBox="0 0 384.073 529.995">
  <path id="balazs-ketyi-LPWl2pEVGKc-unsplash" d="M2139.914,954.5q-.359-8.194-1.023-16.472c-2.908-35.58-10.707-71.694-29.786-102.076a192.933,192.933,0,0,0-80.027-70.8,184.283,184.283,0,0,0-56.9-16.721c-73.379-8.933-147.443,27.864-187.169,89.468-12.474,19.345-19.858,41.639-23.874,64.194-5.046,28.348-5.01,57.323-4.96,86.117.143,80.412.284,75.18.426,151.162h-.187v55.06s61.051,82.665,190.476,82.665c129.167,0,192.27-82.665,192.27-82.665v-55.06h-.005C2139.558,1108.849,2140.833,975.459,2139.914,954.5Z" transform="translate(-1756.167 -747.099)" fill="#f75a25"/>
</svg>
