<svg xmlns="http://www.w3.org/2000/svg" width="29.988" height="30.066" viewBox="0 0 29.988 30.066">
  <g id="Group_957" data-name="Group 957" transform="translate(1825.796 344.11)">
    <path id="Path_1004" data-name="Path 1004" d="M-1811.73-344.11h1.875a1.693,1.693,0,0,0,.225.049,14.291,14.291,0,0,1,8.725,3.717,14.335,14.335,0,0,1,4.786,14,14.954,14.954,0,0,1-21.124,10.575.831.831,0,0,0-.581-.091c-1.88.438-3.764.86-5.645,1.293-.719.166-1.435.348-2.152.522h-.117c.012-.077.019-.155.035-.231q.838-3.836,1.673-7.673a.709.709,0,0,0-.06-.436,15.158,15.158,0,0,1-1.487-4.4c-.085-.509-.147-1.023-.22-1.534v-1.82c.1-.656.167-1.316.29-1.966a15.005,15.005,0,0,1,12.07-11.776C-1812.87-343.969-1812.3-344.033-1811.73-344.11Zm-10.94,26.949c.089-.016.127-.022.164-.03,1.683-.382,3.365-.768,5.051-1.138a.774.774,0,0,1,.487.074,12.507,12.507,0,0,0,11.547.391,12.511,12.511,0,0,0,7.035-13.7,12.69,12.69,0,0,0-14.974-9.936,12.4,12.4,0,0,0-8.5,6.221,11.958,11.958,0,0,0-1.487,7.6,12.975,12.975,0,0,0,1.712,4.89.725.725,0,0,1,.09.461c-.164.824-.356,1.642-.536,2.462C-1822.275-318.978-1822.467-318.091-1822.67-317.161Z" transform="translate(0)" fill="#f75a25"/>
    <path id="Path_1005" data-name="Path 1005" d="M-1684.667-202.663c.563-.138.884.221,1.1.776.313.8.645,1.593.979,2.385a.649.649,0,0,1-.033.669c-.25.346-.511.686-.792,1.006-.319.363-.34.457-.09.874a9.388,9.388,0,0,0,4.617,3.987c.376.153.516.132.769-.171.326-.39.65-.782.961-1.183s.437-.462.917-.247c.649.292,1.286.612,1.927.921.229.11.45.236.683.334a.606.606,0,0,1,.376.653,2.967,2.967,0,0,1-2.792,2.865,6.769,6.769,0,0,1-2.885-.5,12.535,12.535,0,0,1-6.385-4.87,9.761,9.761,0,0,1-1.657-2.916,3.892,3.892,0,0,1,.768-3.922A1.529,1.529,0,0,1-1684.667-202.663Z" transform="translate(-130.467 -133.113)" fill="#f75a25"/>
  </g>
</svg>
