<svg xmlns="http://www.w3.org/2000/svg" width="27.874" height="21.239" viewBox="0 0 27.874 21.239">
  <g id="Group_678" data-name="Group 678" transform="translate(-3641.25 470.791)">
    <path id="Path_1700" data-name="Path 1700" d="M3669.123-468.613v16.875a.2.2,0,0,0-.023.049,2.521,2.521,0,0,1-2.689,2.135c-1.215-.034-2.431-.007-3.647-.007q-9.458,0-18.916,0a2.452,2.452,0,0,1-2.593-2.517q-.011-8.1.008-16.195a2.717,2.717,0,0,1,.255-1.124,2.4,2.4,0,0,1,2.357-1.394h22.618c.064,0,.127,0,.19,0a2.478,2.478,0,0,1,1.91.943A2.986,2.986,0,0,1,3669.123-468.613Zm-2.868-.522h-22.187l11.139,11.042Zm-7.8,10.123a2.929,2.929,0,0,1-.187.227q-1.172,1.175-2.348,2.347a.846.846,0,0,1-1.367,0q-1.219-1.206-2.434-2.414c-.069-.068-.14-.133-.162-.153l-7.792,7.791h22.089Zm-15.562,6.5,7.776-7.776L3642.9-468Zm16.852-7.688,7.722,7.722v-15.445Z" fill="#f75a25"/>
  </g>
</svg>
