<svg xmlns="http://www.w3.org/2000/svg" width="29.648" height="27.384" viewBox="0 0 29.648 27.384">
  <g id="Group_680" data-name="Group 680" transform="translate(-2522.357 610.655)">
    <path id="Path_1701" data-name="Path 1701" d="M2552.005-591.63a8.45,8.45,0,0,1-.382,1.231,4.173,4.173,0,0,1-4.051,2.507q-5.861,0-11.722,0a.958.958,0,0,0-.632.213q-2.661,2.069-5.335,4.122c-.532.41-1.11.39-1.414-.086a1.368,1.368,0,0,1-.185-.68c-.025-1.071-.021-2.142-.027-3.213,0-.1,0-.207,0-.352-.5,0-.974.03-1.44-.008a6.856,6.856,0,0,1-1.59-.238,4.164,4.164,0,0,1-2.865-4.031c-.008-1.852,0-3.7,0-5.557,0-2.875-.005-5.75,0-8.625a4.208,4.208,0,0,1,3.564-4.24,5.034,5.034,0,0,1,.864-.06q10.391,0,20.782,0a4.232,4.232,0,0,1,4.213,2.908c.092.27.147.553.22.83ZM2530.058-586c.141-.1.212-.149.28-.2,1.359-1.048,2.722-2.093,4.074-3.15a1.64,1.64,0,0,1,1.064-.363q6.049.01,12.1,0a2.437,2.437,0,0,0,2.622-2.616q0-6.946,0-13.892a3.031,3.031,0,0,0-.084-.772,2.393,2.393,0,0,0-2.508-1.842q-10.419,0-20.838,0a2.434,2.434,0,0,0-2.595,2.614q0,6.946,0,13.892a3.064,3.064,0,0,0,.084.772,2.37,2.37,0,0,0,2.362,1.841c.752.013,1.5,0,2.257,0,.871,0,1.181.309,1.183,1.187C2530.06-587.708,2530.058-586.891,2530.058-586Z" fill="#f75a25"/>
  </g>
</svg>
