<svg xmlns="http://www.w3.org/2000/svg" width="23.93" height="23.928" viewBox="0 0 23.93 23.928">
  <g id="Group_677" data-name="Group 677" transform="translate(-3056.26 526.593)">
    <path id="Path_1699" data-name="Path 1699" d="M3078.321-502.665a9.849,9.849,0,0,0-2.3-6.39,9.775,9.775,0,0,0-6.531-3.615,9.778,9.778,0,0,0-8.067,2.57,9.863,9.863,0,0,0-3.238,6.362c-.041.355-.04.714-.058,1.072h-1.87v-.7c.062-.461.107-.924.187-1.381a11.721,11.721,0,0,1,3.4-6.458,11.742,11.742,0,0,1,4.269-2.7c.049-.018.1-.043.164-.074a6.869,6.869,0,0,1-2.966-5.825,6.632,6.632,0,0,1,2.071-4.8,6.9,6.9,0,0,1,9.769.089,6.927,6.927,0,0,1-.944,10.512c4.984,2.138,7.784,5.818,7.976,11.343ZM3068.2-514.631a5.062,5.062,0,0,0,5.068-5.014,5.062,5.062,0,0,0-5.026-5.08,5.062,5.062,0,0,0-5.068,5.014A5.063,5.063,0,0,0,3068.2-514.631Z" fill="#f75a25"/>
  </g>
</svg>
