<svg xmlns="http://www.w3.org/2000/svg" width="31.308" height="28.332" viewBox="0 0 31.308 28.332">
  <g id="Group_212" data-name="Group 212" transform="translate(0.15 0.15)">
    <path id="Path_906" data-name="Path 906" d="M-727.526,1599.711h-27.5a7.8,7.8,0,0,1-.84-.35,2.055,2.055,0,0,1-.916-1.238v-20.092c.013-.013.033-.025.038-.041a2.113,2.113,0,0,1,2.311-1.547h5.857c0-.151,0-.269,0-.386,0-.876-.023-1.753.024-2.626a1.974,1.974,0,0,1,2.04-1.745q5.237-.015,10.475,0a1.97,1.97,0,0,1,2.034,1.749c.047.874.019,1.751.024,2.626,0,.117,0,.234,0,.382h.353q2.785,0,5.57,0a3.2,3.2,0,0,1,.482.024,1.972,1.972,0,0,1,1.8,1.99q0,7.1,0,14.2c0,1.706,0,3.412,0,5.118a1.952,1.952,0,0,1-1.563,1.866C-727.4,1599.662-727.462,1599.688-727.526,1599.711Zm-27.426-14.013c0,.088-.009.133-.009.178q0,5.9,0,11.8c0,.333.087.4.514.4h26.34c.456,0,.52-.058.52-.475q0-5.8,0-11.6c0-.086-.009-.173-.013-.26a.416.416,0,0,0-.081.006q-5.292,1.869-10.58,3.746a.313.313,0,0,0-.163.238c-.015.483,0,.967-.01,1.45a1.427,1.427,0,0,1-1.51,1.379q-1.332.019-2.664,0a1.427,1.427,0,0,1-1.506-1.382c-.008-.456-.016-.913,0-1.368.01-.212-.078-.3-.285-.372q-3.578-1.255-7.15-2.524Zm16.548,2.049c.1-.032.2-.058.292-.09q5.136-1.818,10.273-3.632c.188-.066.259-.139.258-.329-.01-1.724-.005-3.449-.006-5.173,0-.373-.073-.436-.5-.436h-26.373c-.434,0-.5.061-.5.465,0,1.706,0,3.412,0,5.118a.316.316,0,0,0,.26.354q4.086,1.433,8.163,2.884l2.408.853c.01-.1.016-.17.025-.24a1.384,1.384,0,0,1,1.325-1.224c1.007-.039,2.018-.034,3.025,0a1.372,1.372,0,0,1,1.274,1.014C-738.449,1587.447-738.433,1587.591-738.4,1587.746Zm2.606-11.312c0-.961.005-1.9,0-2.837,0-.222-.182-.276-.4-.276q-5.07,0-10.14,0c-.279,0-.412.1-.411.357,0,.876,0,1.751,0,2.627a.658.658,0,0,0,.028.13Zm-4.462,14.462v-2.968h-2.021v2.968Z" transform="translate(756.778 -1571.678)" fill="#fff" stroke="#fff" stroke-width="0.3"/>
  </g>
</svg>
