<svg id="instagram_1_" data-name="instagram (1)" xmlns="http://www.w3.org/2000/svg" width="25.329" height="25.334" viewBox="0 0 25.329 25.334">
  <path id="Path_894" data-name="Path 894" d="M25.714,7.448a9.257,9.257,0,0,0-.589-3.073A6.49,6.49,0,0,0,21.418.668,9.281,9.281,0,0,0,18.345.079C16.989.015,16.558,0,13.119,0S9.249.015,7.9.074A9.26,9.26,0,0,0,4.824.663,6.181,6.181,0,0,0,2.577,2.128,6.237,6.237,0,0,0,1.117,4.37,9.282,9.282,0,0,0,.528,7.443C.464,8.8.449,9.23.449,12.67s.015,3.87.074,5.221a9.257,9.257,0,0,0,.589,3.073,6.489,6.489,0,0,0,3.707,3.707,9.282,9.282,0,0,0,3.073.589c1.351.06,1.782.074,5.221.074s3.87-.015,5.221-.074a9.255,9.255,0,0,0,3.073-.589,6.48,6.48,0,0,0,3.707-3.707,9.288,9.288,0,0,0,.589-3.073c.059-1.351.074-1.782.074-5.221S25.774,8.8,25.714,7.448ZM23.433,17.792A6.944,6.944,0,0,1,23,20.143a4.2,4.2,0,0,1-2.405,2.405,6.969,6.969,0,0,1-2.351.435c-1.336.06-1.737.074-5.117.074s-3.786-.015-5.117-.074a6.94,6.94,0,0,1-2.351-.435A3.9,3.9,0,0,1,4.2,21.6a3.939,3.939,0,0,1-.945-1.455A6.97,6.97,0,0,1,2.82,17.8c-.06-1.336-.074-1.737-.074-5.117s.015-3.786.074-5.117a6.94,6.94,0,0,1,.435-2.351,3.851,3.851,0,0,1,.95-1.455,3.933,3.933,0,0,1,1.455-.945,6.973,6.973,0,0,1,2.351-.436C9.348,2.316,9.749,2.3,13.129,2.3s3.786.015,5.117.074a6.944,6.944,0,0,1,2.351.436,3.9,3.9,0,0,1,1.455.945A3.938,3.938,0,0,1,23,5.211a6.972,6.972,0,0,1,.436,2.351c.059,1.336.074,1.737.074,5.117S23.492,16.456,23.433,17.792Zm0,0" transform="translate(-0.449 0)" fill="#fff"/>
  <path id="Path_895" data-name="Path 895" d="M131.457,124.5a6.508,6.508,0,1,0,6.508,6.508A6.51,6.51,0,0,0,131.457,124.5Zm0,10.73a4.222,4.222,0,1,1,4.222-4.222A4.222,4.222,0,0,1,131.457,135.23Zm0,0" transform="translate(-118.788 -118.338)" fill="#fff"/>
  <path id="Path_896" data-name="Path 896" d="M365.488,90.121a1.519,1.519,0,1,1-1.52-1.519A1.52,1.52,0,0,1,365.488,90.121Zm0,0" transform="translate(-344.534 -84.217)" fill="#fff"/>
</svg>
