<svg xmlns="http://www.w3.org/2000/svg" width="503.669" height="256.335" viewBox="0 0 503.669 256.335">
  <g id="Group_92" data-name="Group 92" transform="translate(-1811.236 -492.136) rotate(8)">
    <g id="Group_91" data-name="Group 91" transform="translate(1887.415 198.711)">
      <g id="Path_548" data-name="Path 548" transform="translate(0 215.702)">
        <rect id="Rectangle_33" data-name="Rectangle 33" width="0.988" height="170.861" transform="translate(0 0.975) rotate(-80.758)" fill="#ed5c2a"/>
      </g>
      <g id="Path_549" data-name="Path 549" transform="translate(1.478 207.228)">
        <rect id="Rectangle_34" data-name="Rectangle 34" width="0.988" height="170.885" transform="translate(0 0.969) rotate(-78.843)" fill="#ed5c2a"/>
      </g>
      <g id="Path_550" data-name="Path 550" transform="translate(3.169 198.922)">
        <rect id="Rectangle_35" data-name="Rectangle 35" width="0.988" height="170.929" transform="matrix(0.226, -0.974, 0.974, 0.226, 0, 0.963)" fill="#ed5c2a"/>
      </g>
      <g id="Path_551" data-name="Path 551" transform="translate(5.069 190.788)">
        <rect id="Rectangle_36" data-name="Rectangle 36" width="0.988" height="171.002" transform="translate(0 0.955) rotate(-75.098)" fill="#ed5c2a"/>
      </g>
      <g id="Path_552" data-name="Path 552" transform="translate(7.172 182.824)">
        <rect id="Rectangle_37" data-name="Rectangle 37" width="0.988" height="171.091" transform="matrix(0.288, -0.958, 0.958, 0.288, 0, 0.946)" fill="#ed5c2a"/>
      </g>
      <g id="Path_553" data-name="Path 553" transform="translate(9.475 175.029)">
        <rect id="Rectangle_38" data-name="Rectangle 38" width="0.988" height="171.192" transform="translate(0 0.937) rotate(-71.459)" fill="#ed5c2a"/>
      </g>
      <g id="Path_554" data-name="Path 554" transform="translate(11.974 167.404)">
        <rect id="Rectangle_39" data-name="Rectangle 39" width="0.988" height="171.305" transform="translate(0 0.926) rotate(-69.677)" fill="#ed5c2a"/>
      </g>
      <g id="Path_555" data-name="Path 555" transform="translate(14.665 159.951)">
        <rect id="Rectangle_40" data-name="Rectangle 40" width="0.988" height="171.421" transform="translate(0 0.915) rotate(-67.917)" fill="#ed5c2a"/>
      </g>
      <g id="Path_556" data-name="Path 556" transform="translate(17.541 152.664)">
        <rect id="Rectangle_41" data-name="Rectangle 41" width="0.988" height="171.542" transform="translate(0 0.904) rotate(-66.179)" fill="#ed5c2a"/>
      </g>
      <g id="Path_557" data-name="Path 557" transform="translate(20.602 145.549)">
        <rect id="Rectangle_42" data-name="Rectangle 42" width="0.988" height="171.662" transform="translate(0 0.891) rotate(-64.461)" fill="#ed5c2a"/>
      </g>
      <g id="Path_558" data-name="Path 558" transform="translate(23.84 138.604)">
        <rect id="Rectangle_43" data-name="Rectangle 43" width="0.987" height="171.779" transform="translate(0 0.878) rotate(-62.763)" fill="#ed5c2a"/>
      </g>
      <g id="Path_559" data-name="Path 559" transform="translate(27.25 131.828)">
        <rect id="Rectangle_44" data-name="Rectangle 44" width="0.987" height="171.894" transform="matrix(0.484, -0.875, 0.875, 0.484, 0, 0.864)" fill="#ed5c2a"/>
      </g>
      <g id="Path_560" data-name="Path 560" transform="translate(30.834 125.222)">
        <rect id="Rectangle_45" data-name="Rectangle 45" width="0.988" height="171.998" transform="translate(0 0.851) rotate(-59.42)" fill="#ed5c2a"/>
      </g>
      <g id="Path_561" data-name="Path 561" transform="translate(34.582 118.787)">
        <rect id="Rectangle_46" data-name="Rectangle 46" width="0.987" height="172.096" transform="translate(0 0.835) rotate(-57.772)" fill="#ed5c2a"/>
      </g>
      <g id="Path_562" data-name="Path 562" transform="translate(38.491 112.521)">
        <rect id="Rectangle_47" data-name="Rectangle 47" width="0.988" height="172.186" transform="translate(0 0.82) rotate(-56.139)" fill="#ed5c2a"/>
      </g>
      <g id="Path_563" data-name="Path 563" transform="translate(42.559 106.425)">
        <rect id="Rectangle_48" data-name="Rectangle 48" width="0.988" height="172.264" transform="matrix(0.58, -0.814, 0.814, 0.58, 0, 0.804)" fill="#ed5c2a"/>
      </g>
      <g id="Path_564" data-name="Path 564" transform="translate(46.775 100.497)">
        <rect id="Rectangle_49" data-name="Rectangle 49" width="0.988" height="172.334" transform="matrix(0.603, -0.798, 0.798, 0.603, 0, 0.788)" fill="#ed5c2a"/>
      </g>
      <g id="Path_565" data-name="Path 565" transform="translate(51.143 94.742)">
        <rect id="Rectangle_50" data-name="Rectangle 50" width="0.987" height="172.388" transform="matrix(0.625, -0.781, 0.781, 0.625, 0, 0.771)" fill="#ed5c2a"/>
      </g>
      <g id="Path_566" data-name="Path 566" transform="translate(55.654 89.156)">
        <rect id="Rectangle_51" data-name="Rectangle 51" width="0.987" height="172.434" transform="matrix(0.646, -0.763, 0.763, 0.646, 0, 0.753)" fill="#ed5c2a"/>
      </g>
      <g id="Path_567" data-name="Path 567" transform="translate(60.304 83.739)">
        <rect id="Rectangle_52" data-name="Rectangle 52" width="0.988" height="172.468" transform="translate(0 0.736) rotate(-48.152)" fill="#ed5c2a"/>
      </g>
      <g id="Path_568" data-name="Path 568" transform="translate(65.09 78.492)">
        <rect id="Rectangle_53" data-name="Rectangle 53" width="0.988" height="172.487" transform="translate(0 0.718) rotate(-46.585)" fill="#ed5c2a"/>
      </g>
      <g id="Path_569" data-name="Path 569" transform="translate(70.007 73.414)">
        <rect id="Rectangle_54" data-name="Rectangle 54" width="0.988" height="172.496" transform="translate(0 0.699) rotate(-45.024)" fill="#ed5c2a"/>
      </g>
      <g id="Path_570" data-name="Path 570" transform="translate(75.052 68.506)">
        <rect id="Rectangle_55" data-name="Rectangle 55" width="0.988" height="172.494" transform="translate(0 0.679) rotate(-43.471)" fill="#ed5c2a"/>
      </g>
      <g id="Path_571" data-name="Path 571" transform="translate(80.219 63.769)">
        <rect id="Rectangle_56" data-name="Rectangle 56" width="0.988" height="172.48" transform="translate(0 0.66) rotate(-41.923)" fill="#ed5c2a"/>
      </g>
      <g id="Path_572" data-name="Path 572" transform="translate(85.504 59.201)">
        <rect id="Rectangle_57" data-name="Rectangle 57" width="0.987" height="172.456" transform="translate(0 0.64) rotate(-40.381)" fill="#ed5c2a"/>
      </g>
      <g id="Path_573" data-name="Path 573" transform="translate(90.903 54.803)">
        <rect id="Rectangle_58" data-name="Rectangle 58" width="0.988" height="172.422" transform="translate(0 0.62) rotate(-38.843)" fill="#ed5c2a"/>
      </g>
      <g id="Path_574" data-name="Path 574" transform="translate(96.413 50.574)">
        <rect id="Rectangle_59" data-name="Rectangle 59" width="0.987" height="172.377" transform="matrix(0.795, -0.606, 0.606, 0.795, 0, 0.599)" fill="#ed5c2a"/>
      </g>
      <g id="Path_575" data-name="Path 575" transform="translate(102.026 46.515)">
        <rect id="Rectangle_60" data-name="Rectangle 60" width="0.988" height="172.325" transform="translate(0 0.578) rotate(-35.779)" fill="#ed5c2a"/>
      </g>
      <g id="Path_576" data-name="Path 576" transform="translate(107.741 42.627)">
        <rect id="Rectangle_61" data-name="Rectangle 61" width="0.987" height="172.266" transform="matrix(0.827, -0.563, 0.563, 0.827, 0, 0.556)" fill="#ed5c2a"/>
      </g>
      <g id="Path_577" data-name="Path 577" transform="translate(113.553 38.907)">
        <rect id="Rectangle_62" data-name="Rectangle 62" width="0.987" height="172.2" transform="matrix(0.841, -0.541, 0.541, 0.841, 0, 0.534)" fill="#ed5c2a"/>
      </g>
      <g id="Path_578" data-name="Path 578" transform="translate(119.461 35.357)">
        <rect id="Rectangle_63" data-name="Rectangle 63" width="0.988" height="172.127" transform="matrix(0.855, -0.518, 0.518, 0.855, 0, 0.512)" fill="#ed5c2a"/>
      </g>
      <g id="Path_579" data-name="Path 579" transform="translate(125.451 31.977)">
        <rect id="Rectangle_64" data-name="Rectangle 64" width="0.988" height="172.051" transform="translate(0 0.489) rotate(-29.681)" fill="#ed5c2a"/>
      </g>
      <g id="Path_580" data-name="Path 580" transform="translate(131.529 28.768)">
        <rect id="Rectangle_65" data-name="Rectangle 65" width="0.988" height="171.97" transform="translate(0 0.466) rotate(-28.16)" fill="#ed5c2a"/>
      </g>
      <g id="Path_581" data-name="Path 581" transform="translate(137.686 25.728)">
        <rect id="Rectangle_66" data-name="Rectangle 66" width="0.987" height="171.886" transform="matrix(0.894, -0.448, 0.448, 0.894, 0, 0.443)" fill="#ed5c2a"/>
      </g>
      <g id="Path_582" data-name="Path 582" transform="translate(143.917 22.856)">
        <rect id="Rectangle_67" data-name="Rectangle 67" width="0.988" height="171.801" transform="translate(0 0.419) rotate(-25.121)" fill="#ed5c2a"/>
      </g>
      <g id="Path_583" data-name="Path 583" transform="translate(150.22 20.156)">
        <rect id="Rectangle_68" data-name="Rectangle 68" width="0.987" height="171.714" transform="matrix(0.916, -0.4, 0.4, 0.916, 0, 0.395)" fill="#ed5c2a"/>
      </g>
      <g id="Path_584" data-name="Path 584" transform="translate(156.59 17.624)">
        <rect id="Rectangle_69" data-name="Rectangle 69" width="0.988" height="171.625" transform="matrix(0.927, -0.376, 0.376, 0.927, 0, 0.371)" fill="#ed5c2a"/>
      </g>
      <g id="Path_585" data-name="Path 585" transform="translate(163.023 15.263)">
        <rect id="Rectangle_70" data-name="Rectangle 70" width="0.988" height="171.541" transform="translate(0 0.347) rotate(-20.561)" fill="#ed5c2a"/>
      </g>
      <g id="Path_586" data-name="Path 586" transform="translate(169.513 13.071)">
        <rect id="Rectangle_71" data-name="Rectangle 71" width="0.988" height="171.457" transform="translate(0 0.322) rotate(-19.042)" fill="#ed5c2a"/>
      </g>
      <g id="Path_587" data-name="Path 587" transform="translate(176.059 11.049)">
        <rect id="Rectangle_72" data-name="Rectangle 72" width="0.987" height="171.376" transform="translate(0 0.297) rotate(-17.522)" fill="#ed5c2a"/>
      </g>
      <g id="Path_588" data-name="Path 588" transform="translate(182.653 9.196)">
        <path id="Path_891" data-name="Path 891" d="M2304.5,382.268q-23.605-82.331-47.217-164.662l.949-.272q23.611,82.332,47.216,164.663Z" transform="translate(-2257.286 -217.333)" fill="#ed5c2a"/>
      </g>
      <g id="Path_589" data-name="Path 589" transform="translate(189.293 7.514)">
        <rect id="Rectangle_73" data-name="Rectangle 73" width="0.987" height="171.225" transform="translate(0 0.247) rotate(-14.479)" fill="#ed5c2a"/>
      </g>
      <g id="Path_590" data-name="Path 590" transform="translate(195.972 6)">
        <rect id="Rectangle_74" data-name="Rectangle 74" width="0.988" height="171.157" transform="translate(0 0.221) rotate(-12.957)" fill="#ed5c2a"/>
      </g>
      <g id="Path_591" data-name="Path 591" transform="translate(202.691 4.656)">
        <rect id="Rectangle_75" data-name="Rectangle 75" width="0.988" height="171.095" transform="translate(0 0.196) rotate(-11.435)" fill="#ed5c2a"/>
      </g>
      <g id="Path_592" data-name="Path 592" transform="translate(209.442 3.482)">
        <rect id="Rectangle_76" data-name="Rectangle 76" width="0.988" height="171.039" transform="translate(0 0.17) rotate(-9.911)" fill="#ed5c2a"/>
      </g>
      <g id="Path_593" data-name="Path 593" transform="translate(216.22 2.478)">
        <rect id="Rectangle_77" data-name="Rectangle 77" width="0.988" height="170.99" transform="translate(0 0.144) rotate(-8.388)" fill="#ed5c2a"/>
      </g>
      <g id="Path_594" data-name="Path 594" transform="translate(223.023 1.644)">
        <rect id="Rectangle_78" data-name="Rectangle 78" width="0.988" height="170.948" transform="translate(0 0.118) rotate(-6.863)" fill="#ed5c2a"/>
      </g>
      <g id="Path_595" data-name="Path 595" transform="translate(229.844 0.978)">
        <rect id="Rectangle_79" data-name="Rectangle 79" width="0.988" height="170.915" transform="translate(0 0.092) rotate(-5.338)" fill="#ed5c2a"/>
      </g>
      <g id="Path_596" data-name="Path 596" transform="translate(236.682 0.483)">
        <rect id="Rectangle_80" data-name="Rectangle 80" width="0.988" height="170.889" transform="translate(0 0.066) rotate(-3.813)" fill="#ed5c2a"/>
      </g>
      <g id="Path_597" data-name="Path 597" transform="translate(243.531 0.157)">
        <rect id="Rectangle_81" data-name="Rectangle 81" width="0.987" height="170.872" transform="translate(0 0.039) rotate(-2.288)" fill="#ed5c2a"/>
      </g>
      <g id="Path_598" data-name="Path 598" transform="translate(250.387)">
        <path id="Path_892" data-name="Path 892" d="M2396.72,369.573q-1.139-85.425-2.274-170.848l.988-.014q1.136,85.424,2.274,170.848Z" transform="translate(-2394.446 -198.711)" fill="#ed5c2a"/>
      </g>
      <g id="Path_599" data-name="Path 599" transform="translate(254.97)">
        <path id="Path_893" data-name="Path 893" d="M2404.714,369.573l-.988-.014q1.139-85.424,2.274-170.848l.988.014Q2405.853,284.148,2404.714,369.573Z" transform="translate(-2403.726 -198.711)" fill="#ed5c2a"/>
      </g>
      <g id="Path_600" data-name="Path 600" transform="translate(257.268 0.157)">
        <rect id="Rectangle_82" data-name="Rectangle 82" width="170.872" height="0.987" transform="translate(0 170.735) rotate(-87.705)" fill="#ed5c2a"/>
      </g>
      <g id="Path_601" data-name="Path 601" transform="translate(259.594 0.482)">
        <rect id="Rectangle_83" data-name="Rectangle 83" width="170.889" height="0.988" transform="translate(0 170.512) rotate(-86.193)" fill="#ed5c2a"/>
      </g>
      <g id="Path_602" data-name="Path 602" transform="translate(261.914 0.976)">
        <rect id="Rectangle_84" data-name="Rectangle 84" width="170.915" height="0.988" transform="translate(0 170.179) rotate(-84.679)" fill="#ed5c2a"/>
      </g>
      <g id="Path_603" data-name="Path 603" transform="translate(264.219 1.64)">
        <rect id="Rectangle_85" data-name="Rectangle 85" width="170.948" height="0.988" transform="translate(0 169.731) rotate(-83.159)" fill="#ed5c2a"/>
      </g>
      <g id="Path_604" data-name="Path 604" transform="translate(266.508 2.474)">
        <rect id="Rectangle_86" data-name="Rectangle 86" width="170.99" height="0.988" transform="translate(0 169.17) rotate(-81.632)" fill="#ed5c2a"/>
      </g>
      <g id="Path_605" data-name="Path 605" transform="translate(268.787 3.478)">
        <rect id="Rectangle_87" data-name="Rectangle 87" width="171.039" height="0.988" transform="translate(0 168.495) rotate(-80.105)" fill="#ed5c2a"/>
      </g>
      <g id="Path_606" data-name="Path 606" transform="translate(271.044 4.655)">
        <rect id="Rectangle_88" data-name="Rectangle 88" width="171.095" height="0.988" transform="translate(0 167.701) rotate(-78.569)" fill="#ed5c2a"/>
      </g>
      <g id="Path_607" data-name="Path 607" transform="translate(273.274 6.007)">
        <rect id="Rectangle_89" data-name="Rectangle 89" width="171.157" height="0.988" transform="translate(0 166.785) rotate(-77.022)" fill="#ed5c2a"/>
      </g>
      <g id="Path_608" data-name="Path 608" transform="translate(275.55 7.516)">
        <rect id="Rectangle_90" data-name="Rectangle 90" width="171.224" height="0.987" transform="matrix(0.25, -0.968, 0.968, 0.25, 0, 165.782)" fill="#ed5c2a"/>
      </g>
      <g id="Path_609" data-name="Path 609" transform="translate(277.81 9.193)">
        <rect id="Rectangle_91" data-name="Rectangle 91" width="171.299" height="0.987" transform="translate(0 164.67) rotate(-74.008)" fill="#ed5c2a"/>
      </g>
      <g id="Path_610" data-name="Path 610" transform="translate(280.033 11.045)">
        <rect id="Rectangle_92" data-name="Rectangle 92" width="171.376" height="0.987" transform="translate(0 163.432) rotate(-72.486)" fill="#ed5c2a"/>
      </g>
      <g id="Path_611" data-name="Path 611" transform="translate(282.238 13.069)">
        <rect id="Rectangle_93" data-name="Rectangle 93" width="171.457" height="0.988" transform="translate(0 162.08) rotate(-70.963)" fill="#ed5c2a"/>
      </g>
      <g id="Path_612" data-name="Path 612" transform="translate(284.403 15.271)">
        <rect id="Rectangle_94" data-name="Rectangle 94" width="171.541" height="0.988" transform="translate(0 160.598) rotate(-69.424)" fill="#ed5c2a"/>
      </g>
      <g id="Path_613" data-name="Path 613" transform="translate(286.593 17.624)">
        <rect id="Rectangle_95" data-name="Rectangle 95" width="171.625" height="0.988" transform="matrix(0.376, -0.927, 0.927, 0.376, 0, 159.036)" fill="#ed5c2a"/>
      </g>
      <g id="Path_614" data-name="Path 614" transform="translate(288.732 20.162)">
        <rect id="Rectangle_96" data-name="Rectangle 96" width="171.714" height="0.987" transform="matrix(0.401, -0.916, 0.916, 0.401, 0, 157.34)" fill="#ed5c2a"/>
      </g>
      <g id="Path_615" data-name="Path 615" transform="translate(290.849 22.868)">
        <rect id="Rectangle_97" data-name="Rectangle 97" width="171.801" height="0.988" transform="translate(0 155.528) rotate(-64.861)" fill="#ed5c2a"/>
      </g>
      <g id="Path_616" data-name="Path 616" transform="translate(292.979 25.728)">
        <rect id="Rectangle_98" data-name="Rectangle 98" width="171.886" height="0.987" transform="translate(0 153.638) rotate(-63.36)" fill="#ed5c2a"/>
      </g>
      <g id="Path_617" data-name="Path 617" transform="translate(295.084 28.755)">
        <rect id="Rectangle_99" data-name="Rectangle 99" width="171.97" height="0.988" transform="matrix(0.472, -0.882, 0.882, 0.472, 0, 151.641)" fill="#ed5c2a"/>
      </g>
      <g id="Path_618" data-name="Path 618" transform="translate(297.13 31.969)">
        <rect id="Rectangle_100" data-name="Rectangle 100" width="172.051" height="0.988" transform="matrix(0.495, -0.869, 0.869, 0.495, 0, 149.495)" fill="#ed5c2a"/>
      </g>
      <g id="Path_619" data-name="Path 619" transform="translate(299.176 35.336)">
        <rect id="Rectangle_101" data-name="Rectangle 101" width="172.129" height="0.988" transform="translate(0 147.272) rotate(-58.825)" fill="#ed5c2a"/>
      </g>
      <g id="Path_620" data-name="Path 620" transform="translate(301.097 38.933)">
        <rect id="Rectangle_102" data-name="Rectangle 102" width="172.2" height="0.987" transform="matrix(0.541, -0.841, 0.841, 0.541, 0, 144.813)" fill="#ed5c2a"/>
      </g>
      <g id="Path_621" data-name="Path 621" transform="translate(303.107 42.625)">
        <rect id="Rectangle_103" data-name="Rectangle 103" width="172.265" height="0.987" transform="translate(0 142.394) rotate(-55.751)" fill="#ed5c2a"/>
      </g>
      <g id="Path_622" data-name="Path 622" transform="translate(305.032 46.519)">
        <rect id="Rectangle_104" data-name="Rectangle 104" width="172.325" height="0.988" transform="matrix(0.585, -0.811, 0.811, 0.585, 0, 139.793)" fill="#ed5c2a"/>
      </g>
      <g id="Path_623" data-name="Path 623" transform="translate(306.902 50.602)">
        <rect id="Rectangle_105" data-name="Rectangle 105" width="172.378" height="0.987" transform="matrix(0.607, -0.795, 0.795, 0.607, 0, 137.049)" fill="#ed5c2a"/>
      </g>
      <g id="Path_624" data-name="Path 624" transform="translate(308.835 54.778)">
        <rect id="Rectangle_106" data-name="Rectangle 106" width="172.421" height="0.988" transform="matrix(0.627, -0.779, 0.779, 0.627, 0, 134.342)" fill="#ed5c2a"/>
      </g>
      <g id="Path_625" data-name="Path 625" transform="translate(310.652 59.185)">
        <rect id="Rectangle_107" data-name="Rectangle 107" width="172.456" height="0.987" transform="translate(0 131.401) rotate(-49.635)" fill="#ed5c2a"/>
      </g>
      <g id="Path_626" data-name="Path 626" transform="translate(312.436 63.759)">
        <rect id="Rectangle_108" data-name="Rectangle 108" width="172.479" height="0.988" transform="translate(0 128.353) rotate(-48.088)" fill="#ed5c2a"/>
      </g>
      <g id="Path_627" data-name="Path 627" transform="translate(314.17 68.512)">
        <rect id="Rectangle_109" data-name="Rectangle 109" width="172.494" height="0.988" transform="translate(0 125.172) rotate(-46.524)" fill="#ed5c2a"/>
      </g>
      <g id="Path_628" data-name="Path 628" transform="translate(315.913 73.388)">
        <rect id="Rectangle_110" data-name="Rectangle 110" width="172.496" height="0.988" transform="translate(0 121.973) rotate(-45)" fill="#ed5c2a"/>
      </g>
      <g id="Path_629" data-name="Path 629" transform="translate(317.557 78.489)">
        <rect id="Rectangle_111" data-name="Rectangle 111" width="172.487" height="0.988" transform="translate(0 118.553) rotate(-43.418)" fill="#ed5c2a"/>
      </g>
      <g id="Path_630" data-name="Path 630" transform="translate(319.165 83.755)">
        <rect id="Rectangle_112" data-name="Rectangle 112" width="172.468" height="0.988" transform="matrix(0.745, -0.667, 0.667, 0.745, 0, 115.03)" fill="#ed5c2a"/>
      </g>
      <g id="Path_631" data-name="Path 631" transform="translate(320.773 89.138)">
        <rect id="Rectangle_113" data-name="Rectangle 113" width="172.434" height="0.987" transform="translate(0 111.496) rotate(-40.286)" fill="#ed5c2a"/>
      </g>
      <g id="Path_632" data-name="Path 632" transform="translate(322.301 94.729)">
        <rect id="Rectangle_114" data-name="Rectangle 114" width="172.388" height="0.987" transform="translate(0 107.772) rotate(-38.695)" fill="#ed5c2a"/>
      </g>
      <g id="Path_633" data-name="Path 633" transform="translate(323.79 100.478)">
        <rect id="Rectangle_115" data-name="Rectangle 115" width="172.334" height="0.988" transform="matrix(0.798, -0.603, 0.603, 0.798, 0, 103.965)" fill="#ed5c2a"/>
      </g>
      <g id="Path_634" data-name="Path 634" transform="translate(325.194 106.452)">
        <rect id="Rectangle_116" data-name="Rectangle 116" width="172.264" height="0.988" transform="matrix(0.815, -0.58, 0.58, 0.815, 0, 99.935)" fill="#ed5c2a"/>
      </g>
      <g id="Path_635" data-name="Path 635" transform="translate(326.62 112.483)">
        <rect id="Rectangle_117" data-name="Rectangle 117" width="172.186" height="0.988" transform="matrix(0.83, -0.558, 0.558, 0.83, 0, 96.016)" fill="#ed5c2a"/>
      </g>
      <g id="Path_636" data-name="Path 636" transform="translate(327.93 118.784)">
        <rect id="Rectangle_118" data-name="Rectangle 118" width="172.096" height="0.987" transform="matrix(0.846, -0.533, 0.533, 0.846, 0, 91.784)" fill="#ed5c2a"/>
      </g>
      <g id="Path_637" data-name="Path 637" transform="translate(329.197 125.235)">
        <rect id="Rectangle_119" data-name="Rectangle 119" width="171.998" height="0.988" transform="translate(0 87.478) rotate(-30.57)" fill="#ed5c2a"/>
      </g>
      <g id="Path_638" data-name="Path 638" transform="translate(330.428 131.826)">
        <rect id="Rectangle_120" data-name="Rectangle 120" width="171.892" height="0.987" transform="translate(0 83.122) rotate(-28.919)" fill="#ed5c2a"/>
      </g>
      <g id="Path_639" data-name="Path 639" transform="translate(331.614 138.565)">
        <rect id="Rectangle_121" data-name="Rectangle 121" width="171.777" height="0.987" transform="matrix(0.889, -0.458, 0.458, 0.889, 0, 78.695)" fill="#ed5c2a"/>
      </g>
      <g id="Path_640" data-name="Path 640" transform="translate(332.685 145.582)">
        <rect id="Rectangle_122" data-name="Rectangle 122" width="171.661" height="0.988" transform="translate(0 73.94) rotate(-25.514)" fill="#ed5c2a"/>
      </g>
      <g id="Path_641" data-name="Path 641" transform="translate(333.761 152.642)">
        <rect id="Rectangle_123" data-name="Rectangle 123" width="171.542" height="0.988" transform="translate(0 69.328) rotate(-23.838)" fill="#ed5c2a"/>
      </g>
      <g id="Path_642" data-name="Path 642" transform="translate(334.736 159.952)">
        <rect id="Rectangle_124" data-name="Rectangle 124" width="171.421" height="0.988" transform="matrix(0.927, -0.376, 0.376, 0.927, 0, 64.443)" fill="#ed5c2a"/>
      </g>
      <g id="Path_643" data-name="Path 643" transform="translate(335.673 167.372)">
        <rect id="Rectangle_125" data-name="Rectangle 125" width="171.304" height="0.988" transform="matrix(0.938, -0.348, 0.348, 0.938, 0, 59.562)" fill="#ed5c2a"/>
      </g>
      <g id="Path_644" data-name="Path 644" transform="translate(336.53 175.003)">
        <rect id="Rectangle_126" data-name="Rectangle 126" width="171.192" height="0.988" transform="matrix(0.948, -0.318, 0.318, 0.948, 0, 54.487)" fill="#ed5c2a"/>
      </g>
      <g id="Path_645" data-name="Path 645" transform="translate(337.318 182.82)">
        <rect id="Rectangle_127" data-name="Rectangle 127" width="171.09" height="0.988" transform="translate(0 49.27) rotate(-16.737)" fill="#ed5c2a"/>
      </g>
      <g id="Path_646" data-name="Path 646" transform="translate(338.035 190.824)">
        <rect id="Rectangle_128" data-name="Rectangle 128" width="171" height="0.988" transform="translate(0 43.904) rotate(-14.877)" fill="#ed5c2a"/>
      </g>
      <g id="Path_647" data-name="Path 647" transform="translate(338.705 198.938)">
        <rect id="Rectangle_129" data-name="Rectangle 129" width="170.929" height="0.988" transform="translate(0 38.545) rotate(-13.032)" fill="#ed5c2a"/>
      </g>
      <g id="Path_648" data-name="Path 648" transform="translate(339.289 207.245)">
        <rect id="Rectangle_130" data-name="Rectangle 130" width="170.885" height="0.988" transform="translate(0 33.032) rotate(-11.145)" fill="#ed5c2a"/>
      </g>
      <g id="Path_649" data-name="Path 649" transform="translate(339.81 215.744)">
        <rect id="Rectangle_131" data-name="Rectangle 131" width="170.861" height="0.988" transform="translate(0 27.359) rotate(-9.214)" fill="#ed5c2a"/>
      </g>
    </g>
  </g>
</svg>
