<svg id="linkedin" xmlns="http://www.w3.org/2000/svg" width="22.918" height="22.918" viewBox="0 0 22.918 22.918">
  <path id="Path_897" data-name="Path 897" d="M23.3,23.26H23.3V14.853c0-4.112-.885-7.279-5.692-7.279a4.99,4.99,0,0,0-4.495,2.47h-.067V7.958H8.489v15.3h4.746V15.682c0-1.995.378-3.924,2.849-3.924,2.434,0,2.47,2.277,2.47,4.052V23.26Z" transform="translate(-0.383 -0.341)" fill="#fff"/>
  <path id="Path_898" data-name="Path 898" d="M.4,7.977H5.148v15.3H.4Z" transform="translate(-0.018 -0.359)" fill="#fff"/>
  <path id="Path_899" data-name="Path 899" d="M2.752,0A2.765,2.765,0,1,0,5.5,2.752,2.753,2.753,0,0,0,2.752,0Z" fill="#fff"/>
</svg>
