<svg xmlns="http://www.w3.org/2000/svg" width="127.278" height="46.631" viewBox="0 0 127.278 46.631">
  <g id="Group_959" data-name="Group 959" transform="translate(-285 -6109.419)">
    <g id="Rectangle_307" data-name="Rectangle 307" transform="translate(285 6109.419)" fill="#fff" stroke="#f75a25" stroke-linecap="round" stroke-linejoin="round" stroke-miterlimit="10" stroke-width="1.4">
      <rect width="127.278" height="46.631" stroke="none"/>
      <rect x="0.7" y="0.7" width="125.878" height="45.231" fill="none"/>
    </g>
    <path id="Path_1027" data-name="Path 1027" d="M715.485,702.792a3.622,3.622,0,0,0,1.324,1.311,3.529,3.529,0,0,0,1.785.479h4.352v-3.755h-2.253a1.827,1.827,0,0,1-1.36-.579,1.9,1.9,0,0,1-.553-1.365v-5.794h3.6v-3.754h-22.8v3.754H702.9v7.893a3.492,3.492,0,0,0,.491,1.811,3.626,3.626,0,0,0,1.324,1.311,3.527,3.527,0,0,0,1.785.479h4.352v-3.755H708.6a1.831,1.831,0,0,1-1.36-.579,1.9,1.9,0,0,1-.553-1.366v-5.794h8.307v7.893A3.49,3.49,0,0,0,715.485,702.792Z" transform="translate(-326.549 5436.085)" fill="#f75a25"/>
    <line id="Line_39" data-name="Line 39" x2="59" transform="translate(302.898 6132.919)" fill="none" stroke="#f75a25" stroke-linecap="round" stroke-miterlimit="10" stroke-width="1.4"/>
  </g>
</svg>
