<svg xmlns="http://www.w3.org/2000/svg" width="56.834" height="168.46" viewBox="0 0 56.834 168.46">
  <g id="Group_670" data-name="Group 670" transform="translate(-1799 -589.5)">
    <g id="Rectangle_139" data-name="Rectangle 139" transform="translate(1855.834 589.5) rotate(90)" fill="#fff" stroke="#f75a25" stroke-miterlimit="10" stroke-width="2">
      <rect width="168.46" height="56.834" stroke="none"/>
      <rect x="1" y="1" width="166.46" height="54.834" fill="none"/>
    </g>
    <path id="Path_907" data-name="Path 907" d="M718.965,705.737a4.415,4.415,0,0,0,1.614,1.6,4.3,4.3,0,0,0,2.175.583h5.3v-4.576h-2.746a2.227,2.227,0,0,1-1.658-.706,2.317,2.317,0,0,1-.674-1.664V693.91h4.39v-4.576H699.581v4.576h4.047v9.62a4.258,4.258,0,0,0,.6,2.207,4.42,4.42,0,0,0,1.614,1.6,4.3,4.3,0,0,0,2.175.583h5.3v-4.576h-2.746a2.231,2.231,0,0,1-1.658-.705,2.319,2.319,0,0,1-.674-1.664V693.91h10.125v9.62A4.254,4.254,0,0,0,718.965,705.737Z" transform="translate(1113.597 -80.271)" fill="#f75a25"/>
    <line id="Line_16" data-name="Line 16" y1="94.979" transform="translate(1827.417 738.257) rotate(180)" fill="none" stroke="#f75a25" stroke-miterlimit="10" stroke-width="2"/>
  </g>
</svg>
