<svg xmlns="http://www.w3.org/2000/svg" width="23.803" height="15.533" viewBox="0 0 23.803 15.533">
  <path id="Path_1027" data-name="Path 1027" d="M715.783,703.044a3.69,3.69,0,0,0,1.349,1.335,3.6,3.6,0,0,0,1.818.487h4.433v-3.825h-2.3a1.861,1.861,0,0,1-1.386-.59,1.936,1.936,0,0,1-.564-1.391v-5.9h3.67v-3.825H699.581v3.825h3.383V701.2a3.558,3.558,0,0,0,.5,1.845,3.694,3.694,0,0,0,1.349,1.335,3.594,3.594,0,0,0,1.818.487h4.433v-3.825H708.77a1.865,1.865,0,0,1-1.386-.589,1.938,1.938,0,0,1-.564-1.391v-5.9h8.463V701.2A3.556,3.556,0,0,0,715.783,703.044Z" transform="translate(-699.581 -689.334)" fill="#f75a25"/>
</svg>
