<svg xmlns="http://www.w3.org/2000/svg" width="394.289" height="535.724" viewBox="0 0 394.289 535.724">
  <g id="Path_985" data-name="Path 985" transform="translate(-5940.085 421.175)" fill="#fff" stroke-miterlimit="10">
    <path d="M 6135.88330078125 113.7986831665039 C 6120.0830078125 113.7986831665039 6104.4638671875 112.5030822753906 6089.45947265625 109.9478149414062 C 6075.82080078125 107.6252136230469 6062.3828125 104.2101440429688 6049.51953125 99.79747772216797 C 6027.85546875 92.36608123779297 6007.39794921875 82.00408172607422 5988.71484375 68.99941253662109 C 5981.37548828125 63.89068222045898 5974.29541015625 58.35688018798828 5967.671875 52.55181503295898 C 5962.37451171875 47.90861511230469 5957.35546875 43.08274841308594 5952.7548828125 38.20821380615234 C 5945.7333984375 30.76877403259277 5941.84228515625 25.48619270324707 5941.09033203125 24.44135856628418 L 5941.09033203125 -17.71985244750977 L 5941.28369140625 -17.71985244750977 L 5941.2822265625 -18.47125244140625 C 5941.21142578125 -56.40665054321289 5941.13916015625 -74.91965484619141 5941.0693359375 -92.82305145263672 C 5940.99609375 -111.7153854370117 5940.919921875 -131.2508544921875 5940.84521484375 -173.6550598144531 C 5940.794921875 -202.7378540039062 5940.74267578125 -232.8108520507812 5945.9248046875 -261.9301147460938 C 5948.080078125 -274.0373229980469 5951.09619140625 -285.4979248046875 5954.8896484375 -295.9935913085938 C 5959.05029296875 -307.5066528320312 5964.244140625 -318.1261901855469 5970.326171875 -327.5571899414062 C 5988.31884765625 -355.4595336914062 6013.5380859375 -378.8705139160156 6043.25634765625 -395.2591857910156 C 6057.96826171875 -403.3724670410156 6073.56201171875 -409.6410522460938 6089.60400390625 -413.8909912109375 C 6105.97021484375 -418.2269287109375 6122.6796875 -420.4254455566406 6139.267578125 -420.4254455566406 C 6146.78125 -420.4254455566406 6154.34619140625 -419.9682006835938 6161.7529296875 -419.0663757324219 C 6171.70263671875 -417.8550415039062 6181.72119140625 -415.7720642089844 6191.529296875 -412.8751831054688 C 6201.17822265625 -410.0255737304688 6210.73388671875 -406.3563232421875 6219.9326171875 -401.9693298339844 C 6236.5986328125 -394.0199890136719 6252.09033203125 -383.7801208496094 6265.97705078125 -371.5340576171875 C 6280.01513671875 -359.1543273925781 6292.06005859375 -345.0317077636719 6301.7763671875 -329.55859375 C 6306.482421875 -322.0637817382812 6310.7099609375 -313.8920593261719 6314.3408203125 -305.2704467773438 C 6317.7412109375 -297.1963195800781 6320.72265625 -288.480712890625 6323.20166015625 -279.3656616210938 C 6325.49755859375 -270.9247741699219 6327.4365234375 -261.8666381835938 6328.9658203125 -252.4429931640625 C 6330.35791015625 -243.8613128662109 6331.4599609375 -234.6634521484375 6332.2412109375 -225.10498046875 C 6332.6826171875 -219.7173919677734 6333.03564453125 -214.0374450683594 6333.291015625 -208.2229156494141 C 6334.2548828125 -186.2181854248047 6332.8681640625 -45.5393180847168 6332.5107421875 -18.4797191619873 L 6332.5009765625 -17.71985244750977 L 6332.517578125 -17.71985244750977 L 6332.517578125 24.88791656494141 C 6331.73046875 25.94116973876953 6327.6962890625 31.21818733215332 6320.4951171875 38.62488174438477 C 6315.7783203125 43.47654724121094 6310.6455078125 48.27914810180664 6305.23974609375 52.8994140625 C 6298.48291015625 58.67388153076172 6291.27783203125 64.17807769775391 6283.82470703125 69.25921630859375 C 6264.85693359375 82.19028472900391 6244.185546875 92.49301147460938 6222.384765625 99.88134765625 C 6209.44140625 104.2678146362305 6195.95068359375 107.6625442504883 6182.287109375 109.9712142944336 C 6167.25634765625 112.5109481811523 6151.6435546875 113.7986831665039 6135.88330078125 113.7986831665039 Z" stroke="none"/>
    <path d="M 6139.255859375 -419.6754150390625 C 6122.734375 -419.6754150390625 6106.0908203125 -417.4851989746094 6089.78759765625 -413.1654968261719 C 6073.80615234375 -408.9310607910156 6058.27099609375 -402.6851196289062 6043.61328125 -394.6011352539062 C 6014.005859375 -378.2720642089844 5988.8818359375 -354.9481201171875 5970.95654296875 -327.1507873535156 C 5964.9052734375 -317.7672119140625 5959.73681640625 -307.1986999511719 5955.59521484375 -295.7386474609375 C 5951.81640625 -285.2830505371094 5948.81103515625 -273.8639221191406 5946.66357421875 -261.7987060546875 C 5941.49267578125 -232.7445678710938 5941.544921875 -202.7059173583984 5941.59521484375 -173.6563415527344 C 5941.669921875 -131.2548522949219 5941.74609375 -111.7201385498047 5941.8193359375 -92.8284912109375 C 5941.88916015625 -74.92434692382812 5941.96142578125 -56.41064453125 5942.0322265625 -18.47262573242188 L 5942.03515625 -16.9698486328125 L 5941.84033203125 -16.9698486328125 L 5941.84033203125 24.19845581054688 C 5942.84619140625 25.57916259765625 5946.6630859375 30.66128540039062 5953.30029296875 37.69345092773438 C 5957.884765625 42.55078125 5962.88623046875 47.36013793945312 5968.16650390625 51.98779296875 C 5974.76904296875 57.77456665039062 5981.82666015625 63.291015625 5989.14306640625 68.3837890625 C 6007.76953125 81.34878540039062 6028.16455078125 91.67913818359375 6049.7626953125 99.0880126953125 C 6062.58837890625 103.4876403808594 6075.986328125 106.8926391601562 6089.5849609375 109.2084350585938 C 6104.54833984375 111.7566528320312 6120.12548828125 113.0486450195312 6135.88330078125 113.0486450195312 C 6151.59375 113.0486450195312 6167.15625 111.7658081054688 6182.138671875 109.2357177734375 C 6195.7568359375 106.9359436035156 6209.203125 103.5543518066406 6222.10302734375 99.18487548828125 C 6243.83349609375 91.82443237304688 6264.439453125 81.55987548828125 6283.34814453125 68.67636108398438 C 6290.77978515625 63.61279296875 6297.96435546875 58.12738037109375 6304.70166015625 52.3724365234375 C 6310.09326171875 47.76708984375 6315.21240234375 42.97979736328125 6319.91748046875 38.14352416992188 C 6326.7392578125 31.13046264648438 6330.71240234375 26.031982421875 6331.767578125 24.63735961914062 L 6331.767578125 -16.9698486328125 L 6331.74072265625 -16.9698486328125 L 6331.7607421875 -18.4896240234375 C 6332.1181640625 -45.54507446289062 6333.50537109375 -186.198486328125 6332.54150390625 -208.1900634765625 C 6332.28662109375 -213.9959106445312 6331.93408203125 -219.6662750244141 6331.49365234375 -225.0439147949219 C 6330.71435546875 -234.5827026367188 6329.61474609375 -243.7607116699219 6328.2255859375 -252.3228454589844 C 6326.70068359375 -261.7207641601562 6324.76708984375 -270.7530517578125 6322.47802734375 -279.1688537597656 C 6320.0078125 -288.2519226074219 6317.037109375 -296.9358520507812 6313.64990234375 -304.9793395996094 C 6310.0341796875 -313.5636901855469 6305.82568359375 -321.69921875 6301.14111328125 -329.1597900390625 C 6291.462890625 -344.5719299316406 6279.46484375 -358.639404296875 6265.48095703125 -370.9715576171875 C 6251.646484375 -383.171630859375 6236.212890625 -393.3729858398438 6219.609375 -401.2923583984375 C 6210.44677734375 -405.6624755859375 6200.927734375 -409.3175048828125 6191.31689453125 -412.1559143066406 C 6181.54833984375 -415.0409851074219 6171.5712890625 -417.1155700683594 6161.66259765625 -418.3219299316406 C 6154.2890625 -419.2196350097656 6146.75439453125 -419.6749877929688 6139.26708984375 -419.6754150390625 L 6139.255859375 -419.6754150390625 M 6139.26708984375 -421.1754455566406 C 6146.77197265625 -421.1749877929688 6154.31689453125 -420.727294921875 6161.84375 -419.8109130859375 C 6182.08544921875 -417.3464965820312 6201.85986328125 -411.4197692871094 6220.25537109375 -402.6462707519531 C 6253.673828125 -386.70654296875 6282.6982421875 -361.3497924804688 6302.41162109375 -329.9574890136719 C 6321.9970703125 -298.7662048339844 6330.00390625 -261.692626953125 6332.98876953125 -225.1660614013672 C 6333.4521484375 -219.5083465576172 6333.7939453125 -213.8639221191406 6334.0400390625 -208.2558441162109 C 6334.98291015625 -186.7403564453125 6333.67431640625 -49.80233764648438 6333.2607421875 -18.4698486328125 L 6333.267578125 -18.4698486328125 L 6333.267578125 25.13528442382812 C 6333.267578125 25.13528442382812 6268.48583984375 114.5486450195312 6135.88330078125 114.5486450195312 C 6003.01513671875 114.5486450195312 5940.34033203125 24.68121337890625 5940.34033203125 24.68121337890625 L 5940.34033203125 -18.4698486328125 L 5940.5322265625 -18.4698486328125 C 5940.38623046875 -96.47355651855469 5940.24072265625 -91.10263061523438 5940.09521484375 -173.6537017822266 C 5940.0439453125 -203.2130584716797 5940.00732421875 -232.9594116210938 5945.1865234375 -262.0614929199219 C 5949.30859375 -285.2164916992188 5956.888671875 -308.1044311523438 5969.69580078125 -327.9637145996094 C 6006.4033203125 -384.8873596191406 6071.65966796875 -421.179443359375 6139.26708984375 -421.1754455566406 Z" stroke="none" fill="#f75a25"/>
  </g>
</svg>
